G04 Layer_Color=32896*
%FSLAX44Y44*%
%MOMM*%
G71*
G01*
G75*
%ADD32C,0.2540*%
%ADD47C,0.2000*%
%ADD50C,0.0500*%
%ADD51C,0.1500*%
%ADD52C,0.1000*%
%ADD85C,0.3000*%
G36*
X180500Y645514D02*
X174190Y641520D01*
X173665Y641155D01*
X173211Y640835D01*
X172841Y640536D01*
X172558Y640257D01*
X172344Y640024D01*
X172186Y639858D01*
X172107Y639775D01*
X172075Y639722D01*
X171883Y639403D01*
X171752Y639091D01*
X171660Y638769D01*
X171591Y638463D01*
X171554Y638210D01*
X171549Y638009D01*
X171538Y637871D01*
X171544Y637809D01*
X171597Y637415D01*
X171672Y637036D01*
X171780Y636710D01*
X171873Y636407D01*
X171983Y636181D01*
X172064Y636002D01*
X172138Y635885D01*
X172168Y635838D01*
X172399Y635525D01*
X172624Y635273D01*
X172858Y635059D01*
X173085Y634907D01*
X173274Y634764D01*
X173419Y634692D01*
X173525Y634627D01*
X173563Y634619D01*
X173885Y634526D01*
X174176Y634481D01*
X174477Y634474D01*
X174739Y634475D01*
X174971Y634524D01*
X175141Y634566D01*
X175265Y634578D01*
X175288Y634593D01*
X175576Y634710D01*
X175896Y634879D01*
X176262Y635078D01*
X176614Y635301D01*
X176958Y635485D01*
X177216Y635649D01*
X177333Y635723D01*
X177403Y635768D01*
X177450Y635797D01*
X177474Y635812D01*
X184019Y639954D01*
X185281Y637960D01*
X177985Y633343D01*
X177539Y633061D01*
X177125Y632832D01*
X176806Y632663D01*
X176509Y632508D01*
X176322Y632389D01*
X176166Y632323D01*
X176057Y632287D01*
X176034Y632273D01*
X175684Y632150D01*
X175343Y632066D01*
X175026Y631996D01*
X174741Y631980D01*
X174494Y631955D01*
X174332Y631951D01*
X174208Y631939D01*
X174170Y631947D01*
X173840Y632001D01*
X173519Y632094D01*
X173221Y632201D01*
X172932Y632346D01*
X172696Y632460D01*
X172498Y632565D01*
X172392Y632629D01*
X172339Y632661D01*
X171975Y632924D01*
X171673Y633193D01*
X171395Y633477D01*
X171155Y633752D01*
X170968Y633995D01*
X170811Y634191D01*
X170737Y634309D01*
X170707Y634356D01*
X170464Y634793D01*
X170267Y635260D01*
X170123Y635694D01*
X170003Y636144D01*
X169959Y636576D01*
X169930Y636985D01*
X169916Y637370D01*
X169941Y637747D01*
X169980Y638101D01*
X170026Y638392D01*
X170109Y638675D01*
X170161Y638905D01*
X170204Y639097D01*
X170253Y639226D01*
X170294Y639318D01*
X170303Y639356D01*
X168590Y638272D01*
X167462Y640055D01*
X179238Y647508D01*
X180500Y645514D01*
D02*
G37*
G36*
X192366Y636629D02*
X189555Y630480D01*
X189206Y629734D01*
X188889Y629040D01*
X188589Y628424D01*
X188330Y627898D01*
X188112Y627464D01*
X188031Y627281D01*
X187958Y627137D01*
X187908Y627007D01*
X187868Y626916D01*
X187836Y626862D01*
X187812Y626848D01*
X188507Y626893D01*
X189192Y626899D01*
X189839Y626915D01*
X190425Y626924D01*
X190911Y626936D01*
X191111Y626931D01*
X191287Y626911D01*
X191411Y626924D01*
X191511Y626921D01*
X191588Y626904D01*
X191611Y626919D01*
X198557Y626846D01*
X200205Y624242D01*
X186880Y624582D01*
X180007Y620232D01*
X178641Y622391D01*
X185515Y626740D01*
X190777Y639139D01*
X192366Y636629D01*
D02*
G37*
G36*
X206556Y600500D02*
X206795Y600487D01*
X206957Y600490D01*
X206995Y600482D01*
X207425Y600425D01*
X207861Y600307D01*
X208236Y600183D01*
X208563Y600029D01*
X208838Y599907D01*
X209074Y599793D01*
X209195Y599706D01*
X209248Y599674D01*
X209611Y599411D01*
X209966Y599110D01*
X210259Y598802D01*
X210523Y598542D01*
X210709Y598299D01*
X210867Y598102D01*
X210956Y597962D01*
X210970Y597938D01*
X210985Y597915D01*
X211185Y597548D01*
X211360Y597166D01*
X211498Y596793D01*
X211573Y596414D01*
X211680Y595726D01*
X211672Y595064D01*
X211650Y594787D01*
X211628Y594510D01*
X211577Y594281D01*
X211534Y594089D01*
X211490Y593898D01*
X211465Y593783D01*
X211432Y593730D01*
X211424Y593691D01*
X217218Y597358D01*
X218480Y595364D01*
X202247Y585091D01*
X201074Y586944D01*
X202552Y587879D01*
X202098Y587921D01*
X201692Y587992D01*
X201294Y588102D01*
X200905Y588250D01*
X200577Y588404D01*
X200258Y588596D01*
X199977Y588780D01*
X199720Y588979D01*
X199306Y589374D01*
X199126Y589555D01*
X198998Y589704D01*
X198909Y589845D01*
X198811Y589948D01*
X198767Y590018D01*
X198752Y590041D01*
X198538Y590432D01*
X198347Y590837D01*
X198195Y591233D01*
X198104Y591636D01*
X197962Y592432D01*
X197963Y592794D01*
X197940Y593142D01*
X197956Y593480D01*
X197978Y593757D01*
X198015Y594010D01*
X198028Y594249D01*
X198071Y594440D01*
X198097Y594555D01*
X198114Y594632D01*
X198123Y594670D01*
X198288Y595136D01*
X198491Y595593D01*
X198710Y596027D01*
X199004Y596443D01*
X199291Y596822D01*
X199615Y597191D01*
X200247Y597854D01*
X200555Y598147D01*
X200853Y598402D01*
X201120Y598604D01*
X201363Y598790D01*
X201559Y598947D01*
X201700Y599037D01*
X201817Y599111D01*
X201841Y599126D01*
X202325Y599399D01*
X202785Y599658D01*
X203229Y599840D01*
X203625Y599992D01*
X203975Y600115D01*
X204239Y600216D01*
X204324Y600237D01*
X204410Y600258D01*
X204448Y600250D01*
X204471Y600265D01*
X204959Y600376D01*
X205438Y600450D01*
X205871Y600493D01*
X206256Y600507D01*
X206556Y600500D01*
D02*
G37*
G36*
X170373Y658818D02*
X170534Y658821D01*
X170634Y658819D01*
X170673Y658810D01*
X170979Y658741D01*
X171301Y658649D01*
X171590Y658503D01*
X171879Y658358D01*
X172106Y658206D01*
X172281Y658087D01*
X172402Y657999D01*
X172455Y657967D01*
X172810Y657666D01*
X173156Y657326D01*
X173479Y656972D01*
X173778Y656603D01*
X174024Y656266D01*
X174211Y656023D01*
X174285Y655906D01*
X174330Y655835D01*
X174359Y655788D01*
X174374Y655765D01*
X174707Y655187D01*
X174972Y654665D01*
X175199Y654151D01*
X175366Y653731D01*
X175503Y653358D01*
X175581Y653079D01*
X175617Y652970D01*
X175638Y652885D01*
X175630Y652847D01*
X175645Y652823D01*
X175733Y652320D01*
X175744Y651835D01*
X175750Y651411D01*
X175725Y651034D01*
X175656Y650728D01*
X175605Y650498D01*
X175570Y650345D01*
X175562Y650307D01*
X175390Y649902D01*
X175181Y649507D01*
X174941Y649158D01*
X174711Y648848D01*
X174465Y648561D01*
X174298Y648357D01*
X174219Y648274D01*
X174149Y648230D01*
X174140Y648192D01*
X174117Y648177D01*
X172627Y649960D01*
X172960Y650368D01*
X173246Y650747D01*
X173447Y651104D01*
X173593Y651393D01*
X173691Y651653D01*
X173734Y651844D01*
X173745Y651983D01*
X173754Y652021D01*
X173740Y652406D01*
X173649Y652809D01*
X173521Y653220D01*
X173360Y653578D01*
X173199Y653936D01*
X173074Y654186D01*
X173014Y654280D01*
X172970Y654350D01*
X172940Y654397D01*
X172925Y654420D01*
X172560Y654945D01*
X172193Y655370D01*
X171838Y655671D01*
X171513Y655925D01*
X171224Y656071D01*
X171011Y656199D01*
X170843Y656257D01*
X170805Y656265D01*
X170475Y656320D01*
X170128Y656297D01*
X169772Y656236D01*
X169446Y656128D01*
X169158Y656012D01*
X168909Y655887D01*
X168768Y655798D01*
X168745Y655783D01*
X168721Y655768D01*
X168674Y655739D01*
X168580Y655679D01*
X168416Y655575D01*
X168290Y655463D01*
X168243Y655433D01*
X168220Y655418D01*
X168298Y655139D01*
X168391Y654836D01*
X168592Y654208D01*
X168860Y653524D01*
X169099Y652886D01*
X169231Y652575D01*
X169370Y652302D01*
X169472Y652038D01*
X169567Y651835D01*
X169648Y651656D01*
X169722Y651539D01*
X169758Y651430D01*
X169773Y651407D01*
X169993Y650955D01*
X170145Y650559D01*
X170292Y650224D01*
X170393Y649960D01*
X170488Y649757D01*
X170530Y649587D01*
X170566Y649478D01*
X170581Y649454D01*
X170680Y649090D01*
X170750Y648773D01*
X170796Y648440D01*
X170836Y648170D01*
X170861Y647923D01*
X170841Y647746D01*
X170854Y647623D01*
X170845Y647584D01*
X170829Y647246D01*
X170760Y646939D01*
X170691Y646633D01*
X170593Y646374D01*
X170503Y646152D01*
X170421Y645969D01*
X170357Y645863D01*
X170349Y645825D01*
X170165Y645544D01*
X169943Y645272D01*
X169729Y645038D01*
X169501Y644828D01*
X169305Y644671D01*
X169155Y644544D01*
X169061Y644484D01*
X169014Y644455D01*
X168718Y644300D01*
X168469Y644175D01*
X167902Y643980D01*
X167399Y643892D01*
X166928Y643857D01*
X166528Y643867D01*
X166213Y643897D01*
X166021Y643941D01*
X165945Y643958D01*
X165373Y644187D01*
X164841Y644508D01*
X164350Y644920D01*
X163936Y645315D01*
X163598Y645693D01*
X163456Y645865D01*
X163352Y646030D01*
X163240Y646155D01*
X163180Y646249D01*
X163136Y646320D01*
X163121Y646343D01*
X162877Y646780D01*
X162657Y647232D01*
X162466Y647637D01*
X162329Y648010D01*
X162236Y648313D01*
X162173Y648568D01*
X162107Y648724D01*
X162101Y648786D01*
X162013Y649289D01*
X161986Y649798D01*
X161998Y650298D01*
X161987Y650783D01*
X162020Y651199D01*
X162050Y651514D01*
X162078Y651729D01*
X162110Y651782D01*
X162096Y651805D01*
X161761Y651659D01*
X161450Y651528D01*
X161162Y651411D01*
X160906Y651348D01*
X160674Y651300D01*
X160527Y651273D01*
X160418Y651237D01*
X160380Y651245D01*
X159059Y653333D01*
X159391Y653379D01*
X159723Y653425D01*
X160017Y653480D01*
X160258Y653566D01*
X160490Y653615D01*
X160646Y653680D01*
X160755Y653716D01*
X160778Y653731D01*
X160957Y653812D01*
X161183Y653922D01*
X161418Y654070D01*
X161691Y654210D01*
X162292Y654558D01*
X162878Y654929D01*
X163456Y655262D01*
X163714Y655425D01*
X163925Y655559D01*
X164113Y655677D01*
X164254Y655767D01*
X164348Y655826D01*
X164371Y655841D01*
X167045Y657533D01*
X167491Y657815D01*
X167905Y658044D01*
X168225Y658214D01*
X168483Y658377D01*
X168685Y658473D01*
X168841Y658538D01*
X168926Y658559D01*
X168950Y658574D01*
X169299Y658697D01*
X169617Y658766D01*
X169887Y658806D01*
X170172Y658822D01*
X170373Y658818D01*
D02*
G37*
G36*
X144406Y698861D02*
X144606Y698857D01*
X144745Y698846D01*
X144821Y698829D01*
X144860Y698820D01*
X145319Y698717D01*
X145770Y698575D01*
X146189Y698380D01*
X146585Y698170D01*
X146957Y697946D01*
X147267Y697715D01*
X147592Y697461D01*
X147841Y697224D01*
X148104Y696964D01*
X148314Y696735D01*
X148510Y696530D01*
X148652Y696357D01*
X148779Y696208D01*
X148869Y696067D01*
X148913Y695997D01*
X148928Y695974D01*
X149186Y695513D01*
X149407Y695061D01*
X149589Y694618D01*
X149709Y694168D01*
X149814Y693742D01*
X149881Y693325D01*
X149934Y692931D01*
X149933Y692569D01*
X149955Y692221D01*
X149925Y691906D01*
X149903Y691630D01*
X149875Y691415D01*
X149832Y691223D01*
X149821Y691085D01*
X149803Y691008D01*
X149795Y690970D01*
X149630Y690504D01*
X149426Y690047D01*
X149208Y689613D01*
X148951Y689187D01*
X148642Y688794D01*
X148341Y688440D01*
X147709Y687777D01*
X147425Y687499D01*
X147126Y687244D01*
X146859Y687042D01*
X146616Y686855D01*
X146420Y686698D01*
X146279Y686609D01*
X146162Y686535D01*
X146138Y686520D01*
X145607Y686217D01*
X145085Y685952D01*
X144571Y685726D01*
X144090Y685552D01*
X143617Y685417D01*
X143167Y685297D01*
X142750Y685230D01*
X142355Y685178D01*
X142008Y685155D01*
X141685Y685147D01*
X141423Y685146D01*
X141184Y685159D01*
X140984Y685164D01*
X140846Y685175D01*
X140769Y685192D01*
X140731Y685201D01*
X140256Y685328D01*
X139829Y685484D01*
X139410Y685679D01*
X139000Y685912D01*
X138651Y686151D01*
X138287Y686414D01*
X137684Y686952D01*
X137444Y687228D01*
X137219Y687479D01*
X137009Y687708D01*
X136852Y687904D01*
X136724Y688053D01*
X136635Y688194D01*
X136576Y688288D01*
X136561Y688311D01*
X136148Y689068D01*
X135849Y689799D01*
X135619Y690475D01*
X135564Y690769D01*
X135510Y691063D01*
X135470Y691333D01*
X135445Y691581D01*
X135426Y691766D01*
X135408Y691951D01*
X135419Y692089D01*
X135421Y692190D01*
X135438Y692266D01*
X135423Y692290D01*
X135549Y693026D01*
X135757Y693683D01*
X136018Y694309D01*
X136315Y694826D01*
X136595Y695266D01*
X136739Y695455D01*
X136835Y695614D01*
X136946Y695750D01*
X137025Y695833D01*
X137057Y695886D01*
X137080Y695901D01*
X138645Y694000D01*
X138318Y693530D01*
X138076Y693082D01*
X137881Y692663D01*
X137742Y692311D01*
X137658Y692029D01*
X137607Y691799D01*
X137587Y691622D01*
X137578Y691584D01*
X137584Y691160D01*
X137636Y690766D01*
X137750Y690378D01*
X137858Y690052D01*
X137974Y689764D01*
X138084Y689538D01*
X138174Y689398D01*
X138188Y689374D01*
X138203Y689351D01*
X138405Y689084D01*
X138592Y688841D01*
X139006Y688446D01*
X139437Y688128D01*
X139862Y687871D01*
X140205Y687693D01*
X140503Y687586D01*
X140709Y687520D01*
X140771Y687526D01*
X140786Y687502D01*
X141416Y687441D01*
X142048Y687480D01*
X142683Y687619D01*
X143241Y687775D01*
X143708Y687972D01*
X143926Y688044D01*
X144105Y688124D01*
X144245Y688214D01*
X144354Y688249D01*
X144424Y688294D01*
X144448Y688309D01*
X138881Y697106D01*
X139100Y697278D01*
X139264Y697382D01*
X139358Y697441D01*
X139382Y697456D01*
X139936Y697774D01*
X140458Y698039D01*
X140972Y698265D01*
X141477Y698454D01*
X141950Y698589D01*
X142400Y698709D01*
X142817Y698776D01*
X143211Y698828D01*
X143582Y698866D01*
X143906Y698873D01*
X144168Y698875D01*
X144406Y698861D01*
D02*
G37*
G36*
X158828Y689623D02*
X156017Y683474D01*
X155668Y682728D01*
X155351Y682034D01*
X155051Y681417D01*
X154792Y680892D01*
X154574Y680458D01*
X154493Y680275D01*
X154420Y680131D01*
X154371Y680001D01*
X154330Y679910D01*
X154298Y679856D01*
X154275Y679842D01*
X154969Y679887D01*
X155654Y679894D01*
X156302Y679909D01*
X156887Y679918D01*
X157373Y679930D01*
X157573Y679925D01*
X157750Y679905D01*
X157873Y679918D01*
X157973Y679915D01*
X158050Y679898D01*
X158073Y679913D01*
X165019Y679840D01*
X166667Y677236D01*
X153343Y677576D01*
X146469Y673226D01*
X145103Y675385D01*
X151977Y679734D01*
X157239Y692133D01*
X158828Y689623D01*
D02*
G37*
G36*
X162560Y671319D02*
X162913Y671280D01*
X163234Y671187D01*
X163556Y671095D01*
X163845Y670949D01*
X164081Y670836D01*
X164255Y670716D01*
X164361Y670652D01*
X164415Y670620D01*
X164763Y670381D01*
X165080Y670088D01*
X165358Y669804D01*
X165598Y669529D01*
X165785Y669286D01*
X165927Y669113D01*
X166016Y668972D01*
X166031Y668949D01*
X166046Y668925D01*
X166304Y668465D01*
X166501Y667998D01*
X166645Y667563D01*
X166765Y667114D01*
X166832Y666696D01*
X166861Y666287D01*
X166851Y665887D01*
X166836Y665548D01*
X166796Y665195D01*
X166728Y664889D01*
X166667Y664621D01*
X166616Y664391D01*
X166558Y664223D01*
X166508Y664093D01*
X166468Y664001D01*
X166459Y663963D01*
X168148Y665032D01*
X169276Y663249D01*
X157500Y655796D01*
X156238Y657790D01*
X162642Y661843D01*
X163041Y662096D01*
X163410Y662395D01*
X163709Y662650D01*
X163984Y662890D01*
X164221Y663138D01*
X164435Y663372D01*
X164610Y663614D01*
X164738Y663827D01*
X164858Y664001D01*
X164939Y664184D01*
X165012Y664329D01*
X165061Y664458D01*
X165119Y664626D01*
X165137Y664703D01*
X165195Y665233D01*
X165145Y665727D01*
X165049Y666192D01*
X164958Y666594D01*
X164812Y666929D01*
X164687Y667178D01*
X164651Y667287D01*
X164606Y667357D01*
X164592Y667381D01*
X164577Y667404D01*
X164375Y667671D01*
X164174Y667938D01*
X163955Y668128D01*
X163766Y668271D01*
X163591Y668391D01*
X163455Y668502D01*
X163364Y668542D01*
X163326Y668551D01*
X163051Y668673D01*
X162768Y668757D01*
X162515Y668794D01*
X162300Y668822D01*
X162115Y668803D01*
X161953Y668799D01*
X161853Y668802D01*
X161829Y668787D01*
X161527Y668694D01*
X161201Y668586D01*
X160866Y668440D01*
X160546Y668270D01*
X160273Y668131D01*
X160062Y667997D01*
X159898Y667893D01*
X159874Y667878D01*
X159851Y667863D01*
X152719Y663350D01*
X151458Y665344D01*
X158683Y669917D01*
X159176Y670229D01*
X159589Y670458D01*
X159932Y670642D01*
X160214Y670820D01*
X160417Y670915D01*
X160572Y670981D01*
X160681Y671017D01*
X160704Y671032D01*
X161054Y671154D01*
X161409Y671215D01*
X161703Y671270D01*
X161997Y671324D01*
X162236Y671311D01*
X162398Y671315D01*
X162521Y671327D01*
X162560Y671319D01*
D02*
G37*
G36*
X201166Y612859D02*
X195896Y605975D01*
X195522Y605476D01*
X195142Y605038D01*
X194777Y604577D01*
X194452Y604207D01*
X194160Y603891D01*
X194049Y603755D01*
X193946Y603657D01*
X193867Y603574D01*
X193812Y603507D01*
X193780Y603453D01*
X193756Y603438D01*
X194385Y603639D01*
X194967Y603810D01*
X195525Y603966D01*
X196013Y604078D01*
X196415Y604169D01*
X196586Y604211D01*
X196733Y604238D01*
X196865Y604289D01*
X196950Y604310D01*
X196989Y604301D01*
X197012Y604316D01*
X205397Y606173D01*
X206733Y604062D01*
X192136Y601066D01*
X191985Y600839D01*
X191850Y600688D01*
X191786Y600582D01*
X191762Y600567D01*
X191453Y600174D01*
X191213Y599825D01*
X190991Y599553D01*
X190863Y599341D01*
X190752Y599204D01*
X190688Y599098D01*
X190671Y599021D01*
X190647Y599007D01*
X190508Y598656D01*
X190454Y598326D01*
X190443Y598187D01*
X190440Y598087D01*
X190423Y598011D01*
X190438Y597987D01*
X190471Y597779D01*
X190505Y597570D01*
X190657Y597173D01*
X190746Y597033D01*
X190797Y596900D01*
X190857Y596807D01*
X190871Y596783D01*
X191132Y596423D01*
X191440Y596092D01*
X191576Y595981D01*
X191674Y595878D01*
X191757Y595799D01*
X191772Y595776D01*
X189785Y594814D01*
X189528Y595013D01*
X189332Y595218D01*
X189152Y595399D01*
X188986Y595557D01*
X188882Y595721D01*
X188785Y595824D01*
X188740Y595894D01*
X188725Y595918D01*
X188526Y596284D01*
X188380Y596619D01*
X188272Y596945D01*
X188217Y597239D01*
X188178Y597510D01*
X188159Y597695D01*
X188146Y597818D01*
X188155Y597857D01*
X188179Y598234D01*
X188280Y598593D01*
X188381Y598953D01*
X188497Y599289D01*
X188619Y599563D01*
X188709Y599785D01*
X188782Y599929D01*
X188814Y599982D01*
X188934Y600157D01*
X189039Y600354D01*
X189319Y600794D01*
X189646Y601264D01*
X189987Y601710D01*
X190282Y602127D01*
X190425Y602316D01*
X190545Y602490D01*
X190633Y602612D01*
X190697Y602718D01*
X190752Y602786D01*
X190776Y602801D01*
X199904Y614853D01*
X201166Y612859D01*
D02*
G37*
G36*
X238137Y551688D02*
X238505Y551626D01*
X238865Y551525D01*
X239216Y551386D01*
X239543Y551231D01*
X239809Y551071D01*
X240022Y550943D01*
X240143Y550855D01*
X240181Y550847D01*
X240196Y550823D01*
X240589Y550513D01*
X240950Y550150D01*
X241297Y549811D01*
X241581Y549465D01*
X241827Y549128D01*
X242014Y548885D01*
X242073Y548791D01*
X242118Y548721D01*
X242148Y548674D01*
X242162Y548651D01*
X242370Y548322D01*
X242531Y547964D01*
X242686Y547668D01*
X242802Y547380D01*
X242889Y547139D01*
X242946Y546945D01*
X242982Y546837D01*
X242988Y546775D01*
X243072Y546434D01*
X243142Y546116D01*
X243182Y545846D01*
X243207Y545599D01*
X243225Y545414D01*
X243214Y545275D01*
X243235Y545190D01*
X243227Y545152D01*
X243211Y544813D01*
X243142Y544507D01*
X243035Y544209D01*
X242960Y543964D01*
X242870Y543743D01*
X242797Y543598D01*
X242733Y543492D01*
X242724Y543454D01*
X242540Y543173D01*
X242365Y542931D01*
X242137Y542721D01*
X241956Y542540D01*
X241759Y542383D01*
X241633Y542271D01*
X241539Y542211D01*
X241493Y542181D01*
X241149Y541997D01*
X240838Y541866D01*
X240512Y541758D01*
X240233Y541680D01*
X240001Y541632D01*
X239792Y541598D01*
X239668Y541586D01*
X239630Y541594D01*
X239253Y541618D01*
X238909Y541696D01*
X238587Y541788D01*
X238289Y541896D01*
X238053Y542009D01*
X237870Y542090D01*
X237764Y542155D01*
X237711Y542187D01*
X237537Y542306D01*
X237309Y542458D01*
X236848Y542823D01*
X236395Y543227D01*
X235905Y543639D01*
X235505Y544011D01*
X235301Y544177D01*
X235136Y544335D01*
X235000Y544446D01*
X234902Y544549D01*
X234834Y544604D01*
X234819Y544628D01*
X234556Y544888D01*
X234322Y545102D01*
X234103Y545292D01*
X233899Y545458D01*
X233734Y545616D01*
X233559Y545736D01*
X233287Y545958D01*
X233098Y546101D01*
X232953Y546174D01*
X232885Y546229D01*
X232847Y546238D01*
X232573Y546360D01*
X232296Y546382D01*
X232058Y546395D01*
X231849Y546362D01*
X231655Y546305D01*
X231523Y546254D01*
X231429Y546195D01*
X231406Y546180D01*
X231139Y545978D01*
X230949Y545759D01*
X230788Y545494D01*
X230675Y545258D01*
X230600Y545013D01*
X230542Y544845D01*
X230531Y544706D01*
X230522Y544668D01*
X230513Y544268D01*
X230588Y543889D01*
X230717Y543477D01*
X230855Y543104D01*
X231001Y542770D01*
X231126Y542520D01*
X231185Y542426D01*
X231230Y542356D01*
X231260Y542309D01*
X231274Y542286D01*
X231610Y541808D01*
X231947Y541430D01*
X232264Y541138D01*
X232574Y540907D01*
X232840Y540747D01*
X233052Y540618D01*
X233182Y540569D01*
X233235Y540537D01*
X233657Y540442D01*
X234095Y540424D01*
X234489Y540476D01*
X234845Y540537D01*
X235163Y540607D01*
X235427Y540708D01*
X235597Y540750D01*
X235621Y540765D01*
X235644Y540780D01*
X236586Y538616D01*
X235826Y538365D01*
X235105Y538205D01*
X234473Y538166D01*
X233911Y538172D01*
X233434Y538199D01*
X233089Y538276D01*
X232859Y538328D01*
X232821Y538336D01*
X232783Y538345D01*
X232470Y538476D01*
X232166Y538645D01*
X231575Y539059D01*
X231040Y539542D01*
X230566Y540031D01*
X230356Y540259D01*
X230184Y540479D01*
X230012Y540698D01*
X229893Y540886D01*
X229766Y541035D01*
X229692Y541153D01*
X229647Y541223D01*
X229632Y541246D01*
X229329Y541777D01*
X229094Y542253D01*
X228897Y542720D01*
X228753Y543154D01*
X228654Y543519D01*
X228576Y543798D01*
X228534Y543968D01*
X228543Y544007D01*
X228528Y544030D01*
X228486Y544562D01*
X228490Y545024D01*
X228546Y545454D01*
X228594Y545846D01*
X228663Y546153D01*
X228753Y546374D01*
X228787Y546527D01*
X228820Y546580D01*
X229029Y546976D01*
X229292Y547339D01*
X229523Y547649D01*
X229760Y547898D01*
X229988Y548108D01*
X230161Y548251D01*
X230278Y548325D01*
X230325Y548354D01*
X230715Y548568D01*
X231073Y548729D01*
X231414Y548814D01*
X231717Y548907D01*
X231987Y548946D01*
X232188Y548942D01*
X232311Y548954D01*
X232349Y548946D01*
X232703Y548906D01*
X233047Y548829D01*
X233369Y548736D01*
X233643Y548614D01*
X233894Y548478D01*
X234053Y548381D01*
X234160Y548317D01*
X234213Y548285D01*
X234387Y548165D01*
X234576Y548022D01*
X235023Y547681D01*
X235499Y547292D01*
X235951Y546888D01*
X236374Y546531D01*
X236555Y546350D01*
X236705Y546216D01*
X236841Y546105D01*
X236939Y546002D01*
X237007Y545947D01*
X237022Y545923D01*
X237256Y545710D01*
X237474Y545519D01*
X237655Y545338D01*
X237844Y545195D01*
X238107Y544935D01*
X238326Y544744D01*
X238501Y544625D01*
X238584Y544546D01*
X238637Y544514D01*
X238652Y544490D01*
X238864Y544362D01*
X239038Y544242D01*
X239221Y544161D01*
X239351Y544112D01*
X239481Y544062D01*
X239581Y544060D01*
X239619Y544051D01*
X239657Y544043D01*
X239981Y544050D01*
X240260Y544128D01*
X240354Y544188D01*
X240439Y544209D01*
X240486Y544239D01*
X240510Y544254D01*
X240706Y544411D01*
X240873Y544615D01*
X241001Y544827D01*
X241067Y545034D01*
X241149Y545216D01*
X241183Y545370D01*
X241186Y545470D01*
X241194Y545508D01*
X241195Y545870D01*
X241119Y546249D01*
X240982Y546622D01*
X240859Y546972D01*
X240690Y547291D01*
X240565Y547541D01*
X240505Y547635D01*
X240461Y547705D01*
X240431Y547752D01*
X240416Y547776D01*
X240140Y548159D01*
X239856Y548505D01*
X239569Y548751D01*
X239327Y548926D01*
X239099Y549078D01*
X238916Y549159D01*
X238810Y549223D01*
X238772Y549232D01*
X238412Y549333D01*
X238074Y549349D01*
X237750Y549341D01*
X237465Y549324D01*
X237209Y549261D01*
X237015Y549204D01*
X236907Y549168D01*
X236860Y549139D01*
X235885Y551249D01*
X236344Y551408D01*
X236755Y551536D01*
X237134Y551612D01*
X237490Y551673D01*
X237752Y551674D01*
X237975Y551685D01*
X238099Y551697D01*
X238137Y551688D01*
D02*
G37*
G36*
X245019Y539879D02*
X245219Y539875D01*
X245358Y539864D01*
X245434Y539846D01*
X245473Y539838D01*
X245932Y539734D01*
X246383Y539593D01*
X246802Y539398D01*
X247198Y539188D01*
X247570Y538964D01*
X247880Y538733D01*
X248205Y538479D01*
X248454Y538242D01*
X248717Y537981D01*
X248927Y537753D01*
X249123Y537548D01*
X249265Y537375D01*
X249393Y537226D01*
X249482Y537085D01*
X249526Y537015D01*
X249541Y536991D01*
X249800Y536531D01*
X250020Y536079D01*
X250202Y535636D01*
X250322Y535186D01*
X250428Y534760D01*
X250495Y534342D01*
X250547Y533948D01*
X250546Y533586D01*
X250569Y533239D01*
X250538Y532924D01*
X250516Y532647D01*
X250488Y532432D01*
X250445Y532241D01*
X250434Y532103D01*
X250417Y532026D01*
X250408Y531988D01*
X250243Y531522D01*
X250039Y531064D01*
X249821Y530631D01*
X249564Y530205D01*
X249255Y529812D01*
X248954Y529457D01*
X248322Y528795D01*
X248038Y528516D01*
X247739Y528262D01*
X247472Y528060D01*
X247229Y527873D01*
X247033Y527716D01*
X246892Y527627D01*
X246775Y527553D01*
X246751Y527538D01*
X246220Y527235D01*
X245698Y526970D01*
X245184Y526744D01*
X244703Y526570D01*
X244230Y526435D01*
X243780Y526315D01*
X243363Y526248D01*
X242969Y526195D01*
X242621Y526173D01*
X242298Y526165D01*
X242036Y526164D01*
X241798Y526177D01*
X241597Y526182D01*
X241459Y526193D01*
X241382Y526210D01*
X241344Y526219D01*
X240870Y526345D01*
X240442Y526502D01*
X240023Y526697D01*
X239613Y526930D01*
X239264Y527169D01*
X238901Y527432D01*
X238297Y527970D01*
X238057Y528245D01*
X237832Y528497D01*
X237622Y528726D01*
X237465Y528922D01*
X237337Y529071D01*
X237248Y529212D01*
X237189Y529306D01*
X237174Y529329D01*
X236761Y530086D01*
X236462Y530817D01*
X236232Y531493D01*
X236177Y531787D01*
X236123Y532081D01*
X236083Y532351D01*
X236058Y532598D01*
X236039Y532784D01*
X236021Y532969D01*
X236032Y533107D01*
X236034Y533207D01*
X236051Y533284D01*
X236036Y533307D01*
X236162Y534044D01*
X236370Y534701D01*
X236631Y535327D01*
X236929Y535843D01*
X237209Y536283D01*
X237352Y536473D01*
X237448Y536632D01*
X237559Y536768D01*
X237638Y536851D01*
X237670Y536904D01*
X237694Y536919D01*
X239258Y535018D01*
X238931Y534548D01*
X238689Y534099D01*
X238495Y533680D01*
X238355Y533329D01*
X238272Y533046D01*
X238220Y532817D01*
X238200Y532640D01*
X238192Y532602D01*
X238197Y532178D01*
X238249Y531784D01*
X238363Y531396D01*
X238471Y531070D01*
X238587Y530782D01*
X238697Y530556D01*
X238787Y530415D01*
X238801Y530392D01*
X238816Y530368D01*
X239018Y530102D01*
X239205Y529859D01*
X239619Y529464D01*
X240050Y529145D01*
X240476Y528889D01*
X240818Y528711D01*
X241116Y528604D01*
X241322Y528537D01*
X241384Y528544D01*
X241399Y528520D01*
X242029Y528459D01*
X242661Y528498D01*
X243296Y528637D01*
X243855Y528793D01*
X244321Y528990D01*
X244539Y529062D01*
X244718Y529142D01*
X244858Y529231D01*
X244967Y529267D01*
X245037Y529312D01*
X245061Y529327D01*
X239494Y538124D01*
X239713Y538296D01*
X239878Y538400D01*
X239971Y538459D01*
X239995Y538474D01*
X240549Y538792D01*
X241072Y539057D01*
X241585Y539283D01*
X242090Y539472D01*
X242563Y539607D01*
X243013Y539727D01*
X243431Y539794D01*
X243825Y539846D01*
X244195Y539884D01*
X244519Y539891D01*
X244781Y539893D01*
X245019Y539879D01*
D02*
G37*
G36*
X256914Y528975D02*
X257506Y528923D01*
X258012Y528849D01*
X258395Y528763D01*
X258525Y528714D01*
X258640Y528688D01*
X258678Y528679D01*
X258717Y528671D01*
X259259Y528488D01*
X259746Y528238D01*
X260210Y527973D01*
X260611Y527701D01*
X260936Y527447D01*
X261170Y527234D01*
X261276Y527170D01*
X261321Y527099D01*
X261374Y527067D01*
X261389Y527044D01*
X261712Y526689D01*
X262079Y526265D01*
X262423Y525825D01*
X262743Y525371D01*
X263034Y524963D01*
X263153Y524776D01*
X263257Y524612D01*
X263331Y524494D01*
X263390Y524400D01*
X263435Y524330D01*
X263450Y524307D01*
X266983Y518723D01*
X250749Y508450D01*
X247053Y514291D01*
X246735Y514846D01*
X246446Y515353D01*
X246211Y515828D01*
X246021Y516233D01*
X245860Y516592D01*
X245735Y516841D01*
X245714Y516926D01*
X245692Y517011D01*
X245678Y517035D01*
X245663Y517058D01*
X245513Y517555D01*
X245416Y518019D01*
X245325Y518422D01*
X245288Y518792D01*
X245257Y519101D01*
X245247Y519325D01*
X245258Y519463D01*
X245252Y519525D01*
X245270Y519964D01*
X245364Y520385D01*
X245436Y520792D01*
X245537Y521151D01*
X245629Y521472D01*
X245704Y521717D01*
X245762Y521885D01*
X245794Y521938D01*
X246021Y522411D01*
X246271Y522897D01*
X246528Y523323D01*
X246814Y523701D01*
X247054Y524049D01*
X247252Y524307D01*
X247331Y524390D01*
X247387Y524458D01*
X247419Y524511D01*
X247442Y524525D01*
X247916Y525023D01*
X248405Y525496D01*
X248900Y525908D01*
X249372Y526305D01*
X249802Y526611D01*
X249990Y526729D01*
X250140Y526857D01*
X250257Y526931D01*
X250374Y527005D01*
X250421Y527035D01*
X250445Y527050D01*
X251257Y527531D01*
X252029Y527921D01*
X252760Y528219D01*
X253095Y528365D01*
X253397Y528458D01*
X253700Y528551D01*
X253941Y528638D01*
X254158Y528710D01*
X254367Y528743D01*
X254522Y528809D01*
X254646Y528821D01*
X254708Y528828D01*
X254731Y528843D01*
X255504Y528970D01*
X256237Y529007D01*
X256914Y528975D01*
D02*
G37*
G36*
X237153Y555994D02*
X225377Y548541D01*
X224115Y550535D01*
X235892Y557988D01*
X237153Y555994D01*
D02*
G37*
G36*
X219257Y581729D02*
X219611Y581689D01*
X219932Y581597D01*
X220253Y581505D01*
X220543Y581359D01*
X220779Y581246D01*
X220953Y581126D01*
X221059Y581062D01*
X221112Y581030D01*
X221461Y580790D01*
X221778Y580498D01*
X222056Y580214D01*
X222296Y579939D01*
X222482Y579696D01*
X222625Y579523D01*
X222714Y579382D01*
X222729Y579358D01*
X222743Y579335D01*
X223002Y578875D01*
X223199Y578408D01*
X223343Y577973D01*
X223463Y577523D01*
X223530Y577106D01*
X223559Y576697D01*
X223549Y576297D01*
X223533Y575958D01*
X223494Y575605D01*
X223425Y575298D01*
X223365Y575030D01*
X223313Y574800D01*
X223256Y574632D01*
X223206Y574503D01*
X223165Y574411D01*
X223157Y574373D01*
X224846Y575442D01*
X225974Y573659D01*
X214198Y566206D01*
X212936Y568200D01*
X219340Y572253D01*
X219739Y572505D01*
X220108Y572805D01*
X220407Y573060D01*
X220682Y573299D01*
X220919Y573548D01*
X221133Y573782D01*
X221308Y574024D01*
X221436Y574237D01*
X221556Y574411D01*
X221637Y574594D01*
X221710Y574738D01*
X221759Y574868D01*
X221817Y575036D01*
X221834Y575113D01*
X221893Y575643D01*
X221843Y576137D01*
X221747Y576601D01*
X221656Y577004D01*
X221510Y577339D01*
X221385Y577588D01*
X221349Y577697D01*
X221304Y577767D01*
X221290Y577791D01*
X221275Y577814D01*
X221073Y578081D01*
X220872Y578348D01*
X220653Y578538D01*
X220464Y578681D01*
X220289Y578800D01*
X220153Y578911D01*
X220062Y578952D01*
X220023Y578961D01*
X219749Y579083D01*
X219466Y579166D01*
X219213Y579203D01*
X218998Y579232D01*
X218813Y579213D01*
X218651Y579209D01*
X218551Y579211D01*
X218527Y579197D01*
X218225Y579104D01*
X217899Y578996D01*
X217564Y578850D01*
X217244Y578680D01*
X216971Y578540D01*
X216760Y578407D01*
X216596Y578303D01*
X216572Y578288D01*
X216549Y578273D01*
X209417Y573760D01*
X208155Y575754D01*
X215381Y580327D01*
X215873Y580638D01*
X216287Y580867D01*
X216630Y581052D01*
X216912Y581230D01*
X217114Y581325D01*
X217270Y581391D01*
X217379Y581427D01*
X217402Y581441D01*
X217752Y581564D01*
X218107Y581625D01*
X218401Y581680D01*
X218695Y581734D01*
X218934Y581721D01*
X219096Y581725D01*
X219219Y581737D01*
X219257Y581729D01*
D02*
G37*
G36*
X241611Y558815D02*
X239335Y557375D01*
X238073Y559369D01*
X240349Y560809D01*
X241611Y558815D01*
D02*
G37*
G36*
X229048Y568803D02*
X227593Y567882D01*
X228061Y567817D01*
X228498Y567699D01*
X228910Y567566D01*
X229276Y567403D01*
X229633Y567202D01*
X229952Y567010D01*
X230248Y566803D01*
X230505Y566604D01*
X230739Y566390D01*
X230934Y566185D01*
X231114Y566004D01*
X231242Y565855D01*
X231354Y565729D01*
X231429Y565611D01*
X231473Y565541D01*
X231488Y565518D01*
X231821Y564940D01*
X232054Y564364D01*
X232210Y563806D01*
X232321Y563318D01*
X232388Y562901D01*
X232396Y562577D01*
X232409Y562453D01*
X232406Y562353D01*
X232398Y562315D01*
X232412Y562292D01*
X232360Y561700D01*
X232207Y561110D01*
X232048Y560583D01*
X231860Y560102D01*
X231650Y559706D01*
X231481Y559402D01*
X231417Y559296D01*
X231376Y559205D01*
X231344Y559151D01*
X231321Y559137D01*
X230915Y558584D01*
X230464Y558102D01*
X230023Y557658D01*
X229598Y557291D01*
X229205Y556977D01*
X229041Y556873D01*
X228892Y556745D01*
X228774Y556671D01*
X228681Y556612D01*
X228634Y556582D01*
X228610Y556567D01*
X228150Y556308D01*
X227689Y556050D01*
X226787Y555709D01*
X226353Y555565D01*
X225950Y555475D01*
X225548Y555384D01*
X225192Y555324D01*
X224836Y555263D01*
X224527Y555232D01*
X224265Y555230D01*
X224018Y555205D01*
X223841Y555225D01*
X223680Y555221D01*
X223618Y555215D01*
X223580Y555223D01*
X223111Y555288D01*
X222675Y555406D01*
X222248Y555563D01*
X221843Y555734D01*
X221471Y555959D01*
X221138Y556175D01*
X220827Y556405D01*
X220541Y556651D01*
X220292Y556888D01*
X220082Y557116D01*
X219886Y557321D01*
X219729Y557518D01*
X219625Y557682D01*
X219528Y557784D01*
X219468Y557878D01*
X219453Y557901D01*
X219254Y558268D01*
X219078Y558650D01*
X218941Y559023D01*
X218842Y559387D01*
X218758Y560090D01*
X218728Y560761D01*
X218750Y561038D01*
X218772Y561314D01*
X218809Y561568D01*
X218852Y561759D01*
X218886Y561912D01*
X218912Y562027D01*
X218930Y562104D01*
X218938Y562142D01*
X218586Y561920D01*
X218281Y561726D01*
X217991Y561510D01*
X217733Y561347D01*
X217498Y561198D01*
X217302Y561041D01*
X217115Y560922D01*
X216965Y560795D01*
X216745Y560623D01*
X216573Y560481D01*
X216494Y560398D01*
X216470Y560383D01*
X216192Y560043D01*
X215991Y559686D01*
X215837Y559358D01*
X215707Y559046D01*
X215646Y558778D01*
X215595Y558548D01*
X215584Y558409D01*
X215575Y558371D01*
X215580Y557947D01*
X215662Y557506D01*
X215791Y557095D01*
X215929Y556722D01*
X216090Y556364D01*
X216215Y556115D01*
X216274Y556021D01*
X216318Y555951D01*
X216348Y555904D01*
X216363Y555880D01*
X216669Y555449D01*
X217006Y555071D01*
X217323Y554779D01*
X217618Y554572D01*
X217861Y554397D01*
X218058Y554292D01*
X218188Y554242D01*
X218241Y554210D01*
X218524Y554127D01*
X218824Y554119D01*
X219110Y554136D01*
X219380Y554175D01*
X219621Y554262D01*
X219815Y554319D01*
X219924Y554355D01*
X219971Y554385D01*
X221461Y552601D01*
X221109Y552378D01*
X220774Y552232D01*
X220440Y552086D01*
X220114Y551978D01*
X219487Y551878D01*
X218940Y551860D01*
X218487Y551902D01*
X218157Y551956D01*
X217912Y552031D01*
X217874Y552039D01*
X217835Y552048D01*
X217180Y552356D01*
X216590Y552771D01*
X216069Y553230D01*
X215610Y553695D01*
X215400Y553924D01*
X215228Y554143D01*
X215086Y554316D01*
X214967Y554504D01*
X214855Y554630D01*
X214780Y554747D01*
X214736Y554817D01*
X214721Y554841D01*
X214343Y555489D01*
X214066Y556135D01*
X213833Y556710D01*
X213707Y557222D01*
X213601Y557648D01*
X213559Y557818D01*
X213556Y557980D01*
X213520Y558089D01*
X213522Y558189D01*
X213531Y558227D01*
X213516Y558251D01*
X213507Y558836D01*
X213574Y559405D01*
X213686Y559903D01*
X213804Y560339D01*
X213943Y560690D01*
X214080Y560941D01*
X214162Y561124D01*
X214170Y561162D01*
X214194Y561177D01*
X214369Y561419D01*
X214568Y561676D01*
X214805Y561925D01*
X215065Y562188D01*
X215662Y562698D01*
X216251Y563169D01*
X216542Y563385D01*
X216808Y563587D01*
X217066Y563750D01*
X217262Y563907D01*
X217450Y564026D01*
X217591Y564115D01*
X217685Y564174D01*
X217708Y564189D01*
X227889Y570633D01*
X229048Y568803D01*
D02*
G37*
G36*
X109257Y764733D02*
X109457Y764728D01*
X109648Y764685D01*
X109763Y764660D01*
X109878Y764634D01*
X109917Y764625D01*
X109955Y764616D01*
X110291Y764501D01*
X110618Y764346D01*
X111227Y764009D01*
X111741Y763611D01*
X112170Y763193D01*
X112546Y762806D01*
X112688Y762634D01*
X112792Y762469D01*
X112905Y762344D01*
X112964Y762250D01*
X113009Y762179D01*
X113023Y762156D01*
X113297Y761672D01*
X113532Y761196D01*
X113705Y760715D01*
X113841Y760242D01*
X113899Y759786D01*
X113981Y759345D01*
X113986Y758921D01*
X114000Y758536D01*
X113984Y758197D01*
X113945Y757844D01*
X113923Y757567D01*
X113872Y757337D01*
X113805Y757131D01*
X113771Y756978D01*
X113753Y756901D01*
X113745Y756863D01*
X113516Y756291D01*
X113186Y755721D01*
X112818Y755160D01*
X112413Y754607D01*
X111953Y754087D01*
X111480Y753589D01*
X110967Y753101D01*
X110487Y752666D01*
X109992Y752254D01*
X109529Y751895D01*
X109113Y751566D01*
X108753Y751305D01*
X108424Y751097D01*
X108204Y750925D01*
X108111Y750866D01*
X108040Y750821D01*
X108017Y750807D01*
X107993Y750792D01*
X107228Y750340D01*
X106494Y749942D01*
X105793Y749596D01*
X105109Y749328D01*
X104495Y749103D01*
X103928Y748909D01*
X103393Y748768D01*
X102891Y748680D01*
X102473Y748612D01*
X102079Y748560D01*
X101770Y748529D01*
X101470Y748536D01*
X101246Y748526D01*
X101108Y748537D01*
X101008Y748539D01*
X100970Y748548D01*
X100448Y748645D01*
X99959Y748795D01*
X99516Y748975D01*
X99097Y749170D01*
X98687Y749403D01*
X98338Y749643D01*
X98013Y749897D01*
X97712Y750166D01*
X97463Y750403D01*
X97215Y750640D01*
X97019Y750845D01*
X96862Y751041D01*
X96743Y751229D01*
X96646Y751331D01*
X96586Y751425D01*
X96572Y751448D01*
X96253Y752003D01*
X96035Y752555D01*
X95847Y753060D01*
X95736Y753548D01*
X95660Y753927D01*
X95629Y754236D01*
X95593Y754344D01*
X95595Y754445D01*
X95604Y754483D01*
X95589Y754506D01*
X95618Y755083D01*
X95709Y755667D01*
X95844Y756179D01*
X96010Y756645D01*
X96181Y757049D01*
X96326Y757339D01*
X96390Y757445D01*
X96431Y757536D01*
X96440Y757575D01*
X96463Y757589D01*
X96807Y758136D01*
X97220Y758627D01*
X97615Y759041D01*
X98016Y759393D01*
X98347Y759701D01*
X98487Y759790D01*
X98613Y759903D01*
X98731Y759977D01*
X98801Y760022D01*
X98848Y760051D01*
X98871Y760066D01*
X99308Y760310D01*
X99737Y760516D01*
X100180Y760697D01*
X100577Y760850D01*
X100979Y760940D01*
X101382Y761031D01*
X101738Y761092D01*
X102085Y761114D01*
X102409Y761122D01*
X102694Y761138D01*
X102932Y761125D01*
X103171Y761112D01*
X103333Y761115D01*
X103448Y761090D01*
X103524Y761072D01*
X103562Y761064D01*
X103984Y760969D01*
X104397Y760836D01*
X104777Y760650D01*
X105120Y760472D01*
X105462Y760295D01*
X105757Y760087D01*
X106263Y759652D01*
X106482Y759462D01*
X106677Y759257D01*
X106819Y759084D01*
X106962Y758911D01*
X107074Y758785D01*
X107134Y758691D01*
X107178Y758621D01*
X107193Y758597D01*
X107437Y758160D01*
X107619Y757717D01*
X107786Y757297D01*
X107900Y756909D01*
X107961Y756554D01*
X108024Y756298D01*
X108043Y756113D01*
X108034Y756074D01*
X108049Y756051D01*
X108052Y755527D01*
X108002Y755035D01*
X107937Y754567D01*
X107804Y754154D01*
X107703Y753795D01*
X107619Y753512D01*
X107538Y753329D01*
X107529Y753290D01*
X107506Y753276D01*
X107951Y753558D01*
X108359Y753848D01*
X108719Y754109D01*
X109065Y754394D01*
X109378Y754625D01*
X109654Y754865D01*
X109906Y755090D01*
X110119Y755324D01*
X110324Y755519D01*
X110482Y755685D01*
X110616Y755836D01*
X110742Y755948D01*
X110807Y756055D01*
X110862Y756123D01*
X110894Y756176D01*
X110918Y756191D01*
X111238Y756722D01*
X111512Y757224D01*
X111677Y757690D01*
X111810Y758103D01*
X111911Y758462D01*
X111972Y758730D01*
X111991Y758907D01*
X111985Y758969D01*
X111994Y759369D01*
X111933Y759725D01*
X111849Y760066D01*
X111741Y760392D01*
X111655Y760633D01*
X111559Y760835D01*
X111485Y760952D01*
X111455Y760999D01*
X111141Y761392D01*
X110795Y761731D01*
X110447Y761971D01*
X110113Y762187D01*
X109800Y762317D01*
X109555Y762392D01*
X109402Y762427D01*
X109326Y762444D01*
X109010Y762475D01*
X108649Y762476D01*
X108278Y762438D01*
X107937Y762354D01*
X107620Y762284D01*
X107364Y762221D01*
X107208Y762156D01*
X107170Y762164D01*
X107147Y762149D01*
X106049Y764247D01*
X106795Y764522D01*
X107515Y764682D01*
X108180Y764774D01*
X108765Y764783D01*
X109257Y764733D01*
D02*
G37*
G36*
X120714Y750004D02*
X120463Y749517D01*
X120251Y749022D01*
X120069Y748479D01*
X119919Y747990D01*
X119815Y747530D01*
X119714Y747170D01*
X119703Y747032D01*
X119678Y746917D01*
X119669Y746879D01*
X119660Y746841D01*
X119573Y746095D01*
X119510Y745365D01*
X119478Y744688D01*
X119517Y744056D01*
X119535Y743509D01*
X119545Y743285D01*
X119564Y743100D01*
X119568Y742938D01*
X119604Y742829D01*
X119586Y742753D01*
X119601Y742729D01*
X117677Y741512D01*
X117596Y741953D01*
X117537Y742408D01*
X117479Y742864D01*
X117435Y743297D01*
X117398Y743667D01*
X117366Y743976D01*
X117371Y744176D01*
X117380Y744214D01*
X117365Y744238D01*
X117356Y744823D01*
X117376Y745362D01*
X117403Y745839D01*
X117451Y746231D01*
X117467Y746569D01*
X117518Y746799D01*
X117538Y746976D01*
X117547Y747014D01*
X104855Y738982D01*
X103593Y740976D01*
X119897Y751294D01*
X120714Y750004D01*
D02*
G37*
G36*
X100713Y776936D02*
X100774Y776942D01*
X101290Y776907D01*
X101758Y776842D01*
X102194Y776724D01*
X102592Y776614D01*
X102905Y776484D01*
X103141Y776370D01*
X103285Y776297D01*
X103324Y776289D01*
X103339Y776265D01*
X103764Y776009D01*
X104133Y775684D01*
X104465Y775368D01*
X104758Y775061D01*
X104998Y774786D01*
X105185Y774542D01*
X105244Y774448D01*
X105288Y774378D01*
X105303Y774355D01*
X105318Y774331D01*
X105672Y773668D01*
X105949Y773022D01*
X106097Y772426D01*
X106200Y771899D01*
X106235Y771429D01*
X106254Y771244D01*
X106234Y771067D01*
X106247Y770943D01*
X106244Y770843D01*
X106212Y770790D01*
X106227Y770767D01*
X106119Y770107D01*
X105896Y769473D01*
X105643Y768886D01*
X105369Y768384D01*
X105089Y767944D01*
X104985Y767746D01*
X104850Y767595D01*
X104762Y767474D01*
X104698Y767368D01*
X104666Y767315D01*
X104643Y767300D01*
X104350Y766983D01*
X104058Y766667D01*
X103373Y766036D01*
X102673Y765429D01*
X101990Y764898D01*
X101653Y764652D01*
X101363Y764436D01*
X101081Y764258D01*
X100838Y764071D01*
X100650Y763952D01*
X100486Y763848D01*
X100392Y763789D01*
X100369Y763774D01*
X99533Y763278D01*
X98729Y762835D01*
X97981Y762460D01*
X97250Y762161D01*
X96566Y761892D01*
X95937Y761692D01*
X95355Y761521D01*
X94844Y761394D01*
X94380Y761298D01*
X93947Y761254D01*
X93591Y761193D01*
X93306Y761177D01*
X93044Y761175D01*
X92882Y761171D01*
X92782Y761174D01*
X92744Y761182D01*
X92299Y761262D01*
X91863Y761380D01*
X91435Y761537D01*
X91055Y761723D01*
X90697Y761924D01*
X90364Y762140D01*
X90077Y762386D01*
X89805Y762608D01*
X89556Y762845D01*
X89346Y763073D01*
X89151Y763278D01*
X89009Y763451D01*
X88881Y763600D01*
X88792Y763741D01*
X88748Y763811D01*
X88733Y763835D01*
X88379Y764498D01*
X88101Y765144D01*
X87954Y765740D01*
X87851Y766266D01*
X87792Y766722D01*
X87812Y766899D01*
X87808Y767061D01*
X87796Y767184D01*
X87798Y767284D01*
X87830Y767338D01*
X87815Y767361D01*
X87947Y768036D01*
X88146Y768655D01*
X88422Y769257D01*
X88696Y769759D01*
X88976Y770199D01*
X89081Y770396D01*
X89216Y770547D01*
X89303Y770668D01*
X89368Y770775D01*
X89399Y770828D01*
X89423Y770843D01*
X89701Y771183D01*
X89993Y771499D01*
X90655Y772115D01*
X91355Y772722D01*
X92061Y773268D01*
X92374Y773499D01*
X92664Y773715D01*
X92946Y773894D01*
X93189Y774080D01*
X93377Y774199D01*
X93541Y774303D01*
X93635Y774362D01*
X93658Y774377D01*
X94104Y774659D01*
X94541Y774903D01*
X94917Y775141D01*
X95307Y775355D01*
X95665Y775516D01*
X96008Y775700D01*
X96305Y775855D01*
X96592Y775971D01*
X96842Y776096D01*
X97083Y776183D01*
X97262Y776263D01*
X97417Y776329D01*
X97549Y776380D01*
X97635Y776401D01*
X97696Y776407D01*
X97720Y776422D01*
X98325Y776608D01*
X98898Y776740D01*
X99416Y776805D01*
X99857Y776887D01*
X100266Y776916D01*
X100536Y776956D01*
X100713Y776936D01*
D02*
G37*
G36*
X92590Y790030D02*
X92829Y790017D01*
X93067Y790003D01*
X93259Y789960D01*
X93412Y789926D01*
X93535Y789938D01*
X93589Y789906D01*
X93627Y789898D01*
X94025Y789788D01*
X94414Y789640D01*
X94771Y789439D01*
X95105Y789223D01*
X95726Y788762D01*
X96276Y788256D01*
X96486Y788027D01*
X96696Y787799D01*
X96868Y787579D01*
X97010Y787406D01*
X97138Y787257D01*
X97227Y787116D01*
X97271Y787046D01*
X97286Y787022D01*
X97530Y786585D01*
X97759Y786172D01*
X97926Y785752D01*
X98078Y785355D01*
X98193Y784968D01*
X98292Y784603D01*
X98353Y784248D01*
X98399Y783915D01*
X98430Y783606D01*
X98431Y783344D01*
X98441Y783121D01*
X98437Y782921D01*
X98440Y782759D01*
X98415Y782644D01*
X98421Y782582D01*
X98412Y782544D01*
X98326Y782161D01*
X98202Y781786D01*
X98054Y781397D01*
X97876Y781055D01*
X97491Y780417D01*
X97047Y779873D01*
X96833Y779639D01*
X96620Y779406D01*
X96439Y779225D01*
X96281Y779059D01*
X96131Y778932D01*
X96014Y778858D01*
X95958Y778790D01*
X95935Y778775D01*
X94432Y780682D01*
X94942Y781071D01*
X95352Y781461D01*
X95685Y781869D01*
X95910Y782242D01*
X96102Y782560D01*
X96201Y782820D01*
X96258Y782988D01*
X96276Y783065D01*
X96334Y783595D01*
X96308Y784104D01*
X96220Y784606D01*
X96091Y785018D01*
X95954Y785390D01*
X95799Y785687D01*
X95763Y785796D01*
X95718Y785866D01*
X95689Y785913D01*
X95674Y785936D01*
X95339Y786414D01*
X94963Y786801D01*
X94585Y787087D01*
X94236Y787326D01*
X93908Y787480D01*
X93687Y787570D01*
X93519Y787628D01*
X93442Y787645D01*
X92936Y787719D01*
X92474Y787722D01*
X92042Y787679D01*
X91654Y787565D01*
X91351Y787472D01*
X91102Y787347D01*
X90946Y787281D01*
X90923Y787266D01*
X90899Y787251D01*
X90506Y786937D01*
X90120Y786561D01*
X89825Y786145D01*
X89554Y785743D01*
X89368Y785362D01*
X89214Y785035D01*
X89150Y784929D01*
X89109Y784837D01*
X89115Y784775D01*
X89092Y784760D01*
X88952Y784409D01*
X88843Y784012D01*
X88724Y783575D01*
X88621Y783116D01*
X88429Y782173D01*
X88237Y781230D01*
X88172Y780762D01*
X88101Y780355D01*
X88053Y779964D01*
X87999Y779634D01*
X87962Y779380D01*
X87934Y779165D01*
X87923Y779027D01*
X87914Y778989D01*
X87793Y778091D01*
X87665Y777254D01*
X87525Y776541D01*
X87396Y775966D01*
X87284Y775469D01*
X87206Y775124D01*
X87140Y774917D01*
X87146Y774856D01*
X87123Y774841D01*
X86932Y774260D01*
X86720Y773764D01*
X86493Y773292D01*
X86283Y772897D01*
X86091Y772578D01*
X85939Y772350D01*
X85828Y772214D01*
X85819Y772176D01*
X85796Y772161D01*
X85597Y771904D01*
X85392Y771709D01*
X85187Y771513D01*
X84991Y771356D01*
X84818Y771214D01*
X84678Y771125D01*
X84584Y771066D01*
X84560Y771051D01*
X77746Y781818D01*
X79669Y783036D01*
X84732Y775036D01*
X84953Y775570D01*
X85028Y775815D01*
X85118Y776036D01*
X85184Y776242D01*
X85219Y776396D01*
X85245Y776511D01*
X85253Y776549D01*
X85296Y776740D01*
X85324Y776955D01*
X85422Y777477D01*
X85536Y778075D01*
X85635Y778696D01*
X85703Y779265D01*
X85740Y779518D01*
X85791Y779748D01*
X85811Y779924D01*
X85822Y780063D01*
X85839Y780139D01*
X85848Y780178D01*
X85939Y780761D01*
X86006Y781329D01*
X86103Y781851D01*
X86168Y782319D01*
X86248Y782764D01*
X86334Y783147D01*
X86397Y783515D01*
X86466Y783821D01*
X86535Y784128D01*
X86587Y784358D01*
X86630Y784549D01*
X86673Y784741D01*
X86739Y784947D01*
X86756Y785024D01*
X86947Y785605D01*
X87121Y786109D01*
X87324Y786566D01*
X87487Y786932D01*
X87656Y787236D01*
X87785Y787449D01*
X87872Y787570D01*
X87904Y787623D01*
X88167Y787986D01*
X88460Y788303D01*
X88729Y788605D01*
X88980Y788830D01*
X89223Y789016D01*
X89396Y789159D01*
X89514Y789233D01*
X89561Y789263D01*
X89927Y789462D01*
X90285Y789623D01*
X90644Y789784D01*
X90984Y789868D01*
X91696Y789990D01*
X92290Y790037D01*
X92590Y790030D01*
D02*
G37*
G36*
X84738Y802178D02*
X84800Y802184D01*
X85315Y802149D01*
X85783Y802084D01*
X86220Y801966D01*
X86617Y801856D01*
X86930Y801725D01*
X87166Y801612D01*
X87311Y801539D01*
X87349Y801531D01*
X87364Y801507D01*
X87789Y801251D01*
X88159Y800926D01*
X88490Y800610D01*
X88783Y800303D01*
X89023Y800027D01*
X89210Y799784D01*
X89269Y799690D01*
X89314Y799620D01*
X89329Y799596D01*
X89344Y799573D01*
X89698Y798910D01*
X89975Y798264D01*
X90122Y797668D01*
X90225Y797141D01*
X90260Y796671D01*
X90279Y796485D01*
X90260Y796309D01*
X90272Y796185D01*
X90270Y796085D01*
X90238Y796032D01*
X90252Y796009D01*
X90144Y795349D01*
X89921Y794715D01*
X89669Y794128D01*
X89395Y793626D01*
X89115Y793186D01*
X89010Y792988D01*
X88875Y792837D01*
X88788Y792716D01*
X88724Y792610D01*
X88692Y792557D01*
X88668Y792542D01*
X88376Y792225D01*
X88083Y791909D01*
X87398Y791278D01*
X86698Y790671D01*
X86015Y790140D01*
X85678Y789894D01*
X85388Y789678D01*
X85107Y789500D01*
X84864Y789313D01*
X84676Y789194D01*
X84512Y789090D01*
X84418Y789031D01*
X84394Y789016D01*
X83558Y788520D01*
X82755Y788077D01*
X82006Y787702D01*
X81275Y787403D01*
X80591Y787134D01*
X79962Y786934D01*
X79381Y786763D01*
X78869Y786636D01*
X78405Y786540D01*
X77973Y786496D01*
X77617Y786435D01*
X77332Y786419D01*
X77070Y786417D01*
X76908Y786413D01*
X76808Y786416D01*
X76769Y786424D01*
X76325Y786504D01*
X75888Y786622D01*
X75461Y786779D01*
X75080Y786965D01*
X74723Y787166D01*
X74389Y787382D01*
X74102Y787628D01*
X73830Y787850D01*
X73582Y788087D01*
X73372Y788315D01*
X73176Y788520D01*
X73034Y788693D01*
X72906Y788842D01*
X72817Y788983D01*
X72773Y789053D01*
X72758Y789077D01*
X72404Y789740D01*
X72127Y790386D01*
X71979Y790982D01*
X71876Y791508D01*
X71818Y791964D01*
X71837Y792141D01*
X71834Y792303D01*
X71821Y792426D01*
X71823Y792526D01*
X71856Y792580D01*
X71841Y792603D01*
X71972Y793278D01*
X72172Y793897D01*
X72448Y794499D01*
X72722Y795001D01*
X73002Y795441D01*
X73107Y795638D01*
X73241Y795789D01*
X73329Y795910D01*
X73393Y796017D01*
X73425Y796070D01*
X73448Y796085D01*
X73726Y796425D01*
X74019Y796741D01*
X74680Y797357D01*
X75380Y797964D01*
X76086Y798510D01*
X76400Y798741D01*
X76690Y798957D01*
X76971Y799136D01*
X77215Y799322D01*
X77402Y799441D01*
X77566Y799545D01*
X77660Y799604D01*
X77684Y799619D01*
X78130Y799901D01*
X78567Y800145D01*
X78942Y800383D01*
X79332Y800597D01*
X79690Y800758D01*
X80034Y800942D01*
X80330Y801097D01*
X80618Y801213D01*
X80867Y801338D01*
X81108Y801425D01*
X81287Y801505D01*
X81443Y801571D01*
X81575Y801622D01*
X81660Y801643D01*
X81722Y801649D01*
X81745Y801664D01*
X82350Y801850D01*
X82923Y801982D01*
X83441Y802047D01*
X83882Y802129D01*
X84291Y802158D01*
X84562Y802198D01*
X84738Y802178D01*
D02*
G37*
G36*
X80777Y813109D02*
X80527Y812622D01*
X80315Y812126D01*
X80133Y811584D01*
X79982Y811095D01*
X79879Y810635D01*
X79778Y810275D01*
X79767Y810137D01*
X79741Y810022D01*
X79733Y809984D01*
X79724Y809945D01*
X79637Y809200D01*
X79573Y808470D01*
X79542Y807793D01*
X79581Y807161D01*
X79598Y806613D01*
X79609Y806390D01*
X79627Y806205D01*
X79631Y806043D01*
X79667Y805934D01*
X79650Y805857D01*
X79665Y805834D01*
X77741Y804616D01*
X77659Y805058D01*
X77601Y805513D01*
X77542Y805969D01*
X77498Y806402D01*
X77461Y806772D01*
X77430Y807081D01*
X77435Y807281D01*
X77443Y807319D01*
X77428Y807343D01*
X77419Y807928D01*
X77440Y808467D01*
X77467Y808944D01*
X77514Y809335D01*
X77530Y809674D01*
X77582Y809904D01*
X77601Y810081D01*
X77610Y810119D01*
X64919Y802087D01*
X63657Y804081D01*
X79961Y814399D01*
X80777Y813109D01*
D02*
G37*
G36*
X124675Y739073D02*
X124736Y739079D01*
X125252Y739044D01*
X125720Y738979D01*
X126156Y738861D01*
X126554Y738751D01*
X126867Y738621D01*
X127103Y738507D01*
X127247Y738434D01*
X127286Y738426D01*
X127300Y738402D01*
X127726Y738146D01*
X128095Y737821D01*
X128427Y737505D01*
X128720Y737198D01*
X128960Y736923D01*
X129146Y736679D01*
X129206Y736585D01*
X129250Y736515D01*
X129265Y736492D01*
X129280Y736468D01*
X129634Y735805D01*
X129911Y735159D01*
X130059Y734563D01*
X130162Y734036D01*
X130197Y733566D01*
X130216Y733381D01*
X130196Y733204D01*
X130209Y733080D01*
X130206Y732980D01*
X130174Y732927D01*
X130189Y732904D01*
X130081Y732244D01*
X129858Y731610D01*
X129605Y731023D01*
X129331Y730521D01*
X129051Y730081D01*
X128946Y729883D01*
X128812Y729732D01*
X128724Y729611D01*
X128660Y729505D01*
X128628Y729452D01*
X128604Y729437D01*
X128312Y729120D01*
X128020Y728804D01*
X127334Y728173D01*
X126635Y727566D01*
X125952Y727035D01*
X125615Y726789D01*
X125325Y726573D01*
X125043Y726395D01*
X124800Y726208D01*
X124612Y726089D01*
X124448Y725985D01*
X124354Y725926D01*
X124331Y725911D01*
X123495Y725415D01*
X122691Y724972D01*
X121943Y724597D01*
X121212Y724298D01*
X120527Y724030D01*
X119899Y723829D01*
X119317Y723658D01*
X118806Y723531D01*
X118341Y723435D01*
X117909Y723391D01*
X117553Y723330D01*
X117268Y723314D01*
X117006Y723312D01*
X116844Y723308D01*
X116744Y723311D01*
X116706Y723319D01*
X116261Y723399D01*
X115825Y723518D01*
X115397Y723674D01*
X115016Y723860D01*
X114659Y724061D01*
X114326Y724277D01*
X114039Y724523D01*
X113767Y724745D01*
X113518Y724982D01*
X113308Y725210D01*
X113113Y725415D01*
X112970Y725588D01*
X112843Y725737D01*
X112754Y725878D01*
X112709Y725948D01*
X112695Y725972D01*
X112341Y726635D01*
X112063Y727281D01*
X111916Y727877D01*
X111813Y728404D01*
X111754Y728859D01*
X111774Y729036D01*
X111770Y729198D01*
X111757Y729321D01*
X111760Y729421D01*
X111792Y729475D01*
X111777Y729498D01*
X111909Y730173D01*
X112108Y730792D01*
X112384Y731394D01*
X112658Y731896D01*
X112938Y732336D01*
X113043Y732533D01*
X113178Y732684D01*
X113265Y732805D01*
X113329Y732912D01*
X113361Y732965D01*
X113385Y732980D01*
X113663Y733320D01*
X113955Y733636D01*
X114617Y734252D01*
X115316Y734859D01*
X116023Y735405D01*
X116336Y735636D01*
X116626Y735853D01*
X116908Y736031D01*
X117151Y736217D01*
X117339Y736336D01*
X117503Y736440D01*
X117597Y736499D01*
X117620Y736514D01*
X118066Y736796D01*
X118503Y737040D01*
X118878Y737278D01*
X119269Y737492D01*
X119627Y737653D01*
X119970Y737837D01*
X120266Y737992D01*
X120554Y738108D01*
X120804Y738233D01*
X121044Y738320D01*
X121223Y738400D01*
X121379Y738466D01*
X121511Y738517D01*
X121596Y738538D01*
X121658Y738544D01*
X121682Y738559D01*
X122287Y738745D01*
X122860Y738877D01*
X123378Y738942D01*
X123819Y739024D01*
X124227Y739053D01*
X124498Y739093D01*
X124675Y739073D01*
D02*
G37*
G36*
X132527Y726925D02*
X132765Y726912D01*
X133004Y726898D01*
X133195Y726855D01*
X133348Y726821D01*
X133472Y726833D01*
X133525Y726801D01*
X133563Y726793D01*
X133961Y726683D01*
X134351Y726535D01*
X134708Y726334D01*
X135042Y726118D01*
X135662Y725657D01*
X136212Y725151D01*
X136423Y724922D01*
X136633Y724694D01*
X136805Y724474D01*
X136947Y724302D01*
X137074Y724152D01*
X137163Y724011D01*
X137208Y723941D01*
X137223Y723918D01*
X137467Y723481D01*
X137696Y723067D01*
X137863Y722647D01*
X138015Y722251D01*
X138129Y721863D01*
X138228Y721498D01*
X138289Y721143D01*
X138335Y720810D01*
X138366Y720501D01*
X138368Y720240D01*
X138378Y720016D01*
X138373Y719816D01*
X138377Y719654D01*
X138351Y719539D01*
X138357Y719477D01*
X138349Y719439D01*
X138263Y719056D01*
X138138Y718681D01*
X137990Y718292D01*
X137813Y717950D01*
X137428Y717312D01*
X136983Y716768D01*
X136770Y716534D01*
X136557Y716301D01*
X136375Y716120D01*
X136217Y715955D01*
X136068Y715827D01*
X135950Y715753D01*
X135895Y715685D01*
X135871Y715670D01*
X134369Y717577D01*
X134879Y717966D01*
X135288Y718356D01*
X135622Y718764D01*
X135846Y719137D01*
X136038Y719455D01*
X136137Y719715D01*
X136195Y719883D01*
X136212Y719960D01*
X136271Y720490D01*
X136245Y720999D01*
X136156Y721501D01*
X136027Y721913D01*
X135890Y722286D01*
X135735Y722582D01*
X135699Y722691D01*
X135655Y722761D01*
X135625Y722808D01*
X135610Y722831D01*
X135275Y723309D01*
X134899Y723696D01*
X134521Y723982D01*
X134172Y724221D01*
X133845Y724375D01*
X133624Y724465D01*
X133455Y724523D01*
X133379Y724540D01*
X132872Y724614D01*
X132410Y724617D01*
X131978Y724574D01*
X131590Y724460D01*
X131287Y724367D01*
X131038Y724242D01*
X130883Y724176D01*
X130859Y724161D01*
X130836Y724146D01*
X130443Y723832D01*
X130057Y723456D01*
X129762Y723040D01*
X129490Y722638D01*
X129304Y722257D01*
X129150Y721930D01*
X129086Y721824D01*
X129045Y721732D01*
X129052Y721670D01*
X129028Y721656D01*
X128889Y721304D01*
X128779Y720907D01*
X128661Y720470D01*
X128558Y720011D01*
X128366Y719068D01*
X128174Y718125D01*
X128109Y717657D01*
X128038Y717250D01*
X127990Y716859D01*
X127936Y716529D01*
X127899Y716275D01*
X127871Y716060D01*
X127860Y715922D01*
X127851Y715884D01*
X127730Y714986D01*
X127602Y714149D01*
X127462Y713436D01*
X127332Y712862D01*
X127220Y712364D01*
X127143Y712019D01*
X127076Y711813D01*
X127083Y711751D01*
X127059Y711736D01*
X126868Y711155D01*
X126656Y710659D01*
X126429Y710187D01*
X126220Y709792D01*
X126027Y709473D01*
X125876Y709245D01*
X125764Y709109D01*
X125756Y709071D01*
X125732Y709056D01*
X125534Y708799D01*
X125329Y708604D01*
X125124Y708408D01*
X124928Y708251D01*
X124755Y708109D01*
X124614Y708020D01*
X124520Y707961D01*
X124497Y707946D01*
X117682Y718714D01*
X119606Y719931D01*
X124669Y711931D01*
X124889Y712465D01*
X124964Y712710D01*
X125054Y712931D01*
X125121Y713138D01*
X125155Y713291D01*
X125181Y713406D01*
X125190Y713444D01*
X125233Y713635D01*
X125261Y713850D01*
X125358Y714372D01*
X125472Y714970D01*
X125572Y715591D01*
X125639Y716160D01*
X125676Y716413D01*
X125728Y716643D01*
X125747Y716820D01*
X125758Y716958D01*
X125776Y717035D01*
X125784Y717073D01*
X125875Y717656D01*
X125943Y718224D01*
X126040Y718746D01*
X126105Y719214D01*
X126185Y719659D01*
X126271Y720042D01*
X126334Y720410D01*
X126402Y720717D01*
X126471Y721023D01*
X126523Y721253D01*
X126566Y721444D01*
X126609Y721636D01*
X126676Y721842D01*
X126693Y721919D01*
X126884Y722500D01*
X127058Y723004D01*
X127261Y723461D01*
X127424Y723827D01*
X127593Y724131D01*
X127721Y724344D01*
X127809Y724465D01*
X127841Y724518D01*
X128103Y724882D01*
X128396Y725198D01*
X128665Y725500D01*
X128917Y725725D01*
X129160Y725912D01*
X129333Y726054D01*
X129450Y726128D01*
X129497Y726158D01*
X129864Y726357D01*
X130222Y726518D01*
X130580Y726679D01*
X130921Y726763D01*
X131632Y726885D01*
X132227Y726932D01*
X132527Y726925D01*
D02*
G37*
G36*
X628717Y540767D02*
X615247Y545257D01*
X624227Y554238D01*
X628717Y540767D01*
D02*
G37*
G36*
X133898Y698126D02*
X131623Y696685D01*
X130910Y697812D01*
X130573Y697565D01*
X130298Y697325D01*
X130061Y697077D01*
X129880Y696896D01*
X129760Y696722D01*
X129649Y696586D01*
X129593Y696518D01*
X129585Y696480D01*
X129471Y696244D01*
X129396Y695999D01*
X129359Y695746D01*
X129331Y695531D01*
X129326Y695331D01*
X129330Y695169D01*
X129351Y695083D01*
X129343Y695045D01*
X128142Y695074D01*
X128098Y695506D01*
X128116Y695945D01*
X128155Y696298D01*
X128224Y696605D01*
X128308Y696888D01*
X128390Y697070D01*
X128439Y697200D01*
X128447Y697238D01*
X128663Y697572D01*
X128918Y697897D01*
X129225Y698190D01*
X129485Y698454D01*
X129775Y698670D01*
X129972Y698827D01*
X130065Y698887D01*
X130136Y698931D01*
X130159Y698946D01*
X130183Y698961D01*
X132458Y700401D01*
X133898Y698126D01*
D02*
G37*
%LPC*%
G36*
X206634Y598249D02*
X206287Y598227D01*
X205622Y598135D01*
X204932Y597928D01*
X204333Y597680D01*
X203796Y597439D01*
X203546Y597314D01*
X203358Y597195D01*
X203179Y597114D01*
X203062Y597040D01*
X202992Y596996D01*
X202968Y596981D01*
X202570Y596728D01*
X202200Y596429D01*
X201878Y596160D01*
X201579Y595905D01*
X201319Y595641D01*
X201097Y595369D01*
X200922Y595127D01*
X200732Y594908D01*
X200603Y594696D01*
X200475Y594483D01*
X200379Y594324D01*
X200321Y594156D01*
X200257Y594049D01*
X200216Y593958D01*
X200222Y593896D01*
X200199Y593881D01*
X200130Y593575D01*
X200061Y593268D01*
X200017Y592715D01*
X200067Y592221D01*
X200149Y591780D01*
X200272Y591430D01*
X200388Y591142D01*
X200424Y591034D01*
X200468Y590963D01*
X200483Y590940D01*
X200498Y590916D01*
X200715Y590626D01*
X200925Y590398D01*
X201173Y590161D01*
X201416Y589986D01*
X201956Y589703D01*
X202460Y589530D01*
X202911Y589388D01*
X203303Y589340D01*
X203441Y589329D01*
X203541Y589327D01*
X203618Y589310D01*
X203641Y589324D01*
X203888Y589349D01*
X204159Y589389D01*
X204717Y589545D01*
X205292Y589778D01*
X205830Y590019D01*
X206305Y590255D01*
X206516Y590388D01*
X206695Y590469D01*
X206836Y590558D01*
X206953Y590632D01*
X207024Y590676D01*
X207047Y590691D01*
X207446Y590944D01*
X207768Y591213D01*
X208090Y591483D01*
X208389Y591738D01*
X208626Y591986D01*
X208848Y592258D01*
X209038Y592477D01*
X209214Y592719D01*
X209342Y592932D01*
X209461Y593106D01*
X209543Y593289D01*
X209616Y593434D01*
X209680Y593540D01*
X209720Y593632D01*
X209714Y593693D01*
X209738Y593708D01*
X209830Y594030D01*
X209875Y594321D01*
X209921Y594613D01*
X209919Y594875D01*
X209893Y595383D01*
X209811Y595825D01*
X209688Y596174D01*
X209572Y596462D01*
X209536Y596571D01*
X209492Y596641D01*
X209477Y596664D01*
X209462Y596688D01*
X209313Y596922D01*
X209118Y597127D01*
X208719Y597499D01*
X208293Y597755D01*
X207898Y597965D01*
X207523Y598089D01*
X207217Y598158D01*
X207026Y598201D01*
X206972Y598233D01*
X206949Y598219D01*
X206634Y598249D01*
D02*
G37*
G36*
X166633Y654447D02*
X165897Y653948D01*
X165443Y653628D01*
X165059Y653352D01*
X164760Y653097D01*
X164523Y652849D01*
X164357Y652645D01*
X164222Y652494D01*
X164143Y652411D01*
X164135Y652373D01*
X163948Y651992D01*
X163786Y651626D01*
X163700Y651243D01*
X163646Y650913D01*
X163600Y650622D01*
X163587Y650383D01*
X163576Y650245D01*
X163582Y650183D01*
X163640Y649727D01*
X163746Y649301D01*
X163860Y648913D01*
X164021Y648555D01*
X164137Y648268D01*
X164262Y648018D01*
X164351Y647877D01*
X164366Y647854D01*
X164381Y647831D01*
X164672Y647423D01*
X164941Y647101D01*
X165228Y646855D01*
X165485Y646657D01*
X165698Y646528D01*
X165881Y646447D01*
X165987Y646383D01*
X166025Y646374D01*
X166355Y646320D01*
X166679Y646328D01*
X166964Y646344D01*
X167220Y646407D01*
X167437Y646479D01*
X167593Y646545D01*
X167710Y646619D01*
X167734Y646634D01*
X167907Y646776D01*
X168079Y646918D01*
X168190Y647054D01*
X168302Y647190D01*
X168389Y647312D01*
X168468Y647394D01*
X168485Y647471D01*
X168509Y647486D01*
X168642Y647899D01*
X168651Y648299D01*
X168662Y648437D01*
X168650Y648561D01*
X168652Y648661D01*
X168637Y648684D01*
X168583Y648978D01*
X168490Y649281D01*
X168382Y649607D01*
X168251Y649918D01*
X168134Y650206D01*
X168033Y650470D01*
X167967Y650626D01*
X167952Y650649D01*
X167938Y650673D01*
X167756Y651116D01*
X167565Y651521D01*
X167428Y651894D01*
X167290Y652267D01*
X167167Y652617D01*
X167075Y652919D01*
X166958Y653207D01*
X166895Y653463D01*
X166823Y653680D01*
X166766Y653874D01*
X166724Y654044D01*
X166696Y654191D01*
X166661Y654300D01*
X166639Y654385D01*
X166648Y654423D01*
X166633Y654447D01*
D02*
G37*
G36*
X144101Y696697D02*
X143630Y696662D01*
X143204Y696556D01*
X142754Y696436D01*
X142405Y696313D01*
X142093Y696182D01*
X142000Y696123D01*
X141914Y696102D01*
X141867Y696072D01*
X141844Y696057D01*
X146016Y689465D01*
X146511Y689877D01*
X146914Y690330D01*
X147233Y690761D01*
X147442Y691157D01*
X147620Y691499D01*
X147727Y691797D01*
X147785Y691965D01*
X147802Y692041D01*
X147870Y692610D01*
X147867Y693134D01*
X147779Y693636D01*
X147658Y694086D01*
X147536Y694436D01*
X147396Y694708D01*
X147360Y694817D01*
X147315Y694887D01*
X147286Y694934D01*
X147271Y694958D01*
X147069Y695225D01*
X146882Y695468D01*
X146430Y695871D01*
X145975Y696175D01*
X145541Y696393D01*
X145152Y696541D01*
X144831Y696633D01*
X144616Y696662D01*
X144563Y696694D01*
X144539Y696679D01*
X144101Y696697D01*
D02*
G37*
G36*
X244714Y537715D02*
X244243Y537680D01*
X243817Y537574D01*
X243367Y537454D01*
X243018Y537331D01*
X242707Y537200D01*
X242613Y537141D01*
X242528Y537120D01*
X242481Y537090D01*
X242457Y537075D01*
X246629Y530483D01*
X247124Y530895D01*
X247528Y531348D01*
X247846Y531779D01*
X248055Y532174D01*
X248233Y532517D01*
X248340Y532815D01*
X248398Y532983D01*
X248415Y533059D01*
X248483Y533628D01*
X248480Y534151D01*
X248392Y534654D01*
X248272Y535104D01*
X248149Y535453D01*
X248009Y535726D01*
X247973Y535835D01*
X247929Y535905D01*
X247899Y535952D01*
X247884Y535976D01*
X247682Y536242D01*
X247496Y536485D01*
X247043Y536889D01*
X246588Y537193D01*
X246154Y537411D01*
X245765Y537559D01*
X245444Y537651D01*
X245229Y537679D01*
X245176Y537711D01*
X245152Y537696D01*
X244714Y537715D01*
D02*
G37*
G36*
X256339Y526509D02*
X256316Y526494D01*
X255968Y526472D01*
X255574Y526419D01*
X254831Y526245D01*
X254085Y525970D01*
X253377Y525686D01*
X253081Y525531D01*
X252785Y525377D01*
X252535Y525252D01*
X252324Y525118D01*
X252122Y525023D01*
X252004Y524949D01*
X251910Y524889D01*
X251887Y524874D01*
X251245Y524435D01*
X250665Y524002D01*
X250170Y523590D01*
X249745Y523223D01*
X249587Y523057D01*
X249452Y522906D01*
X249318Y522756D01*
X249216Y522658D01*
X249137Y522575D01*
X249081Y522507D01*
X249049Y522454D01*
X249025Y522439D01*
X248684Y521993D01*
X248404Y521553D01*
X248185Y521119D01*
X247999Y520738D01*
X247868Y520426D01*
X247793Y520181D01*
X247759Y520028D01*
X247727Y519975D01*
X247688Y519621D01*
X247672Y519283D01*
X247680Y518959D01*
X247687Y518635D01*
X247727Y518365D01*
X247761Y518156D01*
X247811Y518024D01*
X247818Y517962D01*
X247946Y517551D01*
X248143Y517084D01*
X248364Y516632D01*
X248593Y516218D01*
X248792Y515852D01*
X248872Y515673D01*
X248961Y515532D01*
X249021Y515438D01*
X249080Y515344D01*
X249110Y515297D01*
X249125Y515274D01*
X251307Y511825D01*
X263694Y519664D01*
X261541Y523066D01*
X261318Y523418D01*
X261102Y523708D01*
X260909Y524013D01*
X260707Y524280D01*
X260340Y524704D01*
X260055Y525050D01*
X259792Y525310D01*
X259588Y525477D01*
X259490Y525579D01*
X259437Y525611D01*
X258959Y525900D01*
X258448Y526135D01*
X257921Y526294D01*
X257423Y526406D01*
X256993Y526463D01*
X256639Y526502D01*
X256516Y526489D01*
X256416Y526492D01*
X256339Y526509D01*
D02*
G37*
G36*
X226531Y566290D02*
X225843Y566183D01*
X225199Y566006D01*
X224585Y565782D01*
X224072Y565555D01*
X223846Y565445D01*
X223658Y565326D01*
X223503Y565261D01*
X223385Y565187D01*
X223315Y565142D01*
X223291Y565127D01*
X222893Y564875D01*
X222523Y564576D01*
X222201Y564306D01*
X221926Y564066D01*
X221666Y563803D01*
X221443Y563531D01*
X221253Y563312D01*
X221102Y563084D01*
X220950Y562857D01*
X220830Y562683D01*
X220749Y562500D01*
X220700Y562370D01*
X220635Y562264D01*
X220595Y562172D01*
X220601Y562110D01*
X220578Y562095D01*
X220509Y561789D01*
X220463Y561497D01*
X220443Y560959D01*
X220507Y560441D01*
X220613Y560015D01*
X220727Y559627D01*
X220867Y559354D01*
X220903Y559246D01*
X220947Y559175D01*
X220977Y559128D01*
X220992Y559105D01*
X221178Y558862D01*
X221350Y558642D01*
X221750Y558271D01*
X222166Y557976D01*
X222585Y557781D01*
X222951Y557618D01*
X223234Y557534D01*
X223426Y557491D01*
X223502Y557474D01*
X223817Y557444D01*
X224141Y557451D01*
X224829Y557558D01*
X225458Y557759D01*
X226095Y557998D01*
X226632Y558239D01*
X226882Y558364D01*
X227069Y558483D01*
X227248Y558563D01*
X227365Y558638D01*
X227436Y558682D01*
X227459Y558697D01*
X227858Y558949D01*
X228180Y559219D01*
X228479Y559474D01*
X228778Y559729D01*
X229015Y559977D01*
X229228Y560211D01*
X229427Y560468D01*
X229579Y560695D01*
X229722Y560885D01*
X229827Y561082D01*
X229923Y561242D01*
X229972Y561371D01*
X230036Y561478D01*
X230077Y561569D01*
X230071Y561631D01*
X230094Y561646D01*
X230163Y561952D01*
X230232Y562259D01*
X230252Y562797D01*
X230226Y563306D01*
X230106Y563756D01*
X230007Y564120D01*
X229867Y564393D01*
X229831Y564502D01*
X229786Y564572D01*
X229771Y564596D01*
X229757Y564619D01*
X229593Y564877D01*
X229398Y565082D01*
X228999Y565454D01*
X228559Y565734D01*
X228163Y565943D01*
X227774Y566091D01*
X227453Y566184D01*
X227261Y566227D01*
X227208Y566259D01*
X227184Y566244D01*
X226869Y566274D01*
X226531Y566290D01*
D02*
G37*
G36*
X102684Y758766D02*
X102113Y758734D01*
X101563Y758616D01*
X101082Y758443D01*
X100662Y758275D01*
X100483Y758195D01*
X100342Y758106D01*
X100210Y758055D01*
X100116Y757996D01*
X100069Y757966D01*
X100046Y757951D01*
X99442Y757503D01*
X98962Y757068D01*
X98582Y756630D01*
X98287Y756214D01*
X98101Y755833D01*
X97955Y755544D01*
X97874Y755361D01*
X97880Y755299D01*
X97857Y755284D01*
X97773Y755001D01*
X97751Y754725D01*
X97730Y754186D01*
X97804Y753707D01*
X97871Y753289D01*
X97993Y752940D01*
X98118Y752690D01*
X98154Y752581D01*
X98199Y752511D01*
X98214Y752488D01*
X98228Y752464D01*
X98460Y752151D01*
X98700Y751875D01*
X98972Y751653D01*
X99214Y751478D01*
X99418Y751311D01*
X99616Y751207D01*
X99722Y751142D01*
X99775Y751110D01*
X100164Y750963D01*
X100524Y750862D01*
X100916Y750814D01*
X101231Y750783D01*
X101531Y750776D01*
X101755Y750786D01*
X101916Y750790D01*
X101978Y750796D01*
X102419Y750878D01*
X102830Y751007D01*
X103218Y751121D01*
X103553Y751267D01*
X103826Y751407D01*
X104052Y751517D01*
X104169Y751591D01*
X104216Y751621D01*
X104749Y752024D01*
X105183Y752430D01*
X105524Y752876D01*
X105772Y753263D01*
X105973Y753620D01*
X106081Y753918D01*
X106138Y754086D01*
X106156Y754163D01*
X106247Y754746D01*
X106244Y755270D01*
X106179Y755787D01*
X106074Y756213D01*
X105936Y756586D01*
X105811Y756836D01*
X105775Y756945D01*
X105731Y757015D01*
X105701Y757062D01*
X105686Y757085D01*
X105327Y757548D01*
X104928Y757920D01*
X104550Y758206D01*
X104154Y758416D01*
X103803Y758555D01*
X103544Y758653D01*
X103352Y758697D01*
X103275Y758714D01*
X102684Y758766D01*
D02*
G37*
G36*
X100893Y774783D02*
X100869Y774768D01*
X100484Y774754D01*
X100066Y774687D01*
X99602Y774590D01*
X99144Y774432D01*
X98662Y774258D01*
X98172Y774047D01*
X97206Y773600D01*
X96731Y773365D01*
X96317Y773136D01*
X95927Y772922D01*
X95622Y772729D01*
X95325Y772574D01*
X95114Y772440D01*
X94997Y772366D01*
X94973Y772351D01*
X94950Y772336D01*
X94223Y771876D01*
X93596Y771413D01*
X93039Y770995D01*
X92506Y770592D01*
X92081Y770225D01*
X91695Y769849D01*
X91379Y769518D01*
X91071Y769224D01*
X90849Y768952D01*
X90674Y768710D01*
X90507Y768506D01*
X90402Y768308D01*
X90315Y768187D01*
X90274Y768096D01*
X90257Y768019D01*
X90233Y768004D01*
X90118Y767668D01*
X90049Y767362D01*
X89980Y767055D01*
X89958Y766779D01*
X89976Y766231D01*
X90034Y765776D01*
X90148Y765388D01*
X90250Y765124D01*
X90286Y765015D01*
X90330Y764944D01*
X90360Y764898D01*
X90375Y764874D01*
X90562Y764631D01*
X90733Y764411D01*
X91180Y764069D01*
X91643Y763804D01*
X92101Y763601D01*
X92498Y763491D01*
X92843Y763414D01*
X93082Y763400D01*
X93135Y763368D01*
X93158Y763383D01*
X93544Y763397D01*
X93961Y763464D01*
X94426Y763561D01*
X94884Y763719D01*
X95365Y763893D01*
X95856Y764105D01*
X96845Y764566D01*
X97297Y764787D01*
X97710Y765015D01*
X98101Y765229D01*
X98406Y765423D01*
X98702Y765577D01*
X98913Y765711D01*
X99030Y765785D01*
X99077Y765815D01*
X99790Y766298D01*
X100432Y766738D01*
X101012Y767170D01*
X101530Y767597D01*
X101979Y767979D01*
X102365Y768355D01*
X102704Y768701D01*
X102997Y769018D01*
X103242Y769305D01*
X103456Y769538D01*
X103608Y769766D01*
X103751Y769955D01*
X103823Y770100D01*
X103888Y770206D01*
X103905Y770283D01*
X103928Y770297D01*
X104036Y770595D01*
X104119Y770878D01*
X104141Y771155D01*
X104163Y771432D01*
X104137Y771941D01*
X104055Y772382D01*
X103932Y772731D01*
X103816Y773019D01*
X103780Y773128D01*
X103735Y773198D01*
X103706Y773245D01*
X103691Y773268D01*
X103504Y773512D01*
X103317Y773755D01*
X103098Y773945D01*
X102871Y774097D01*
X102408Y774362D01*
X101950Y774565D01*
X101529Y774660D01*
X101184Y774737D01*
X101046Y774749D01*
X100946Y774751D01*
X100893Y774783D01*
D02*
G37*
G36*
X84918Y800025D02*
X84895Y800010D01*
X84509Y799996D01*
X84092Y799929D01*
X83627Y799832D01*
X83169Y799674D01*
X82687Y799500D01*
X82197Y799289D01*
X81231Y798842D01*
X80756Y798607D01*
X80342Y798378D01*
X79952Y798164D01*
X79647Y797971D01*
X79351Y797816D01*
X79140Y797682D01*
X79022Y797608D01*
X78999Y797593D01*
X78976Y797578D01*
X78248Y797118D01*
X77621Y796656D01*
X77064Y796237D01*
X76531Y795834D01*
X76106Y795467D01*
X75720Y795091D01*
X75404Y794760D01*
X75097Y794466D01*
X74875Y794194D01*
X74699Y793952D01*
X74533Y793748D01*
X74428Y793550D01*
X74340Y793429D01*
X74300Y793338D01*
X74282Y793261D01*
X74259Y793246D01*
X74143Y792910D01*
X74074Y792604D01*
X74005Y792297D01*
X73983Y792021D01*
X74001Y791473D01*
X74060Y791018D01*
X74174Y790630D01*
X74275Y790366D01*
X74311Y790257D01*
X74356Y790186D01*
X74385Y790139D01*
X74400Y790116D01*
X74587Y789873D01*
X74759Y789653D01*
X75205Y789311D01*
X75669Y789046D01*
X76126Y788843D01*
X76524Y788733D01*
X76869Y788655D01*
X77107Y788642D01*
X77160Y788610D01*
X77184Y788625D01*
X77569Y788639D01*
X77987Y788706D01*
X78451Y788803D01*
X78909Y788961D01*
X79391Y789135D01*
X79881Y789346D01*
X80870Y789808D01*
X81322Y790028D01*
X81736Y790257D01*
X82126Y790471D01*
X82431Y790665D01*
X82727Y790819D01*
X82938Y790953D01*
X83056Y791027D01*
X83103Y791057D01*
X83815Y791540D01*
X84457Y791980D01*
X85037Y792412D01*
X85556Y792839D01*
X86004Y793221D01*
X86390Y793597D01*
X86730Y793943D01*
X87022Y794260D01*
X87268Y794547D01*
X87481Y794781D01*
X87633Y795008D01*
X87776Y795197D01*
X87849Y795342D01*
X87913Y795448D01*
X87930Y795525D01*
X87954Y795539D01*
X88061Y795837D01*
X88145Y796120D01*
X88167Y796397D01*
X88189Y796674D01*
X88162Y797183D01*
X88080Y797624D01*
X87958Y797973D01*
X87841Y798261D01*
X87805Y798370D01*
X87761Y798440D01*
X87731Y798487D01*
X87716Y798510D01*
X87529Y798754D01*
X87343Y798997D01*
X87124Y799187D01*
X86896Y799339D01*
X86433Y799604D01*
X85976Y799807D01*
X85554Y799902D01*
X85210Y799979D01*
X85071Y799990D01*
X84971Y799993D01*
X84918Y800025D01*
D02*
G37*
G36*
X124854Y736920D02*
X124831Y736905D01*
X124445Y736891D01*
X124028Y736824D01*
X123564Y736727D01*
X123105Y736569D01*
X122624Y736395D01*
X122134Y736184D01*
X121168Y735737D01*
X120692Y735502D01*
X120279Y735273D01*
X119889Y735059D01*
X119584Y734866D01*
X119287Y734711D01*
X119076Y734577D01*
X118959Y734503D01*
X118935Y734488D01*
X118912Y734473D01*
X118185Y734013D01*
X117557Y733551D01*
X117001Y733132D01*
X116467Y732729D01*
X116043Y732362D01*
X115656Y731986D01*
X115340Y731655D01*
X115033Y731362D01*
X114811Y731090D01*
X114636Y730847D01*
X114469Y730643D01*
X114364Y730446D01*
X114277Y730324D01*
X114236Y730233D01*
X114219Y730156D01*
X114195Y730142D01*
X114080Y729805D01*
X114011Y729499D01*
X113942Y729193D01*
X113920Y728916D01*
X113938Y728368D01*
X113996Y727913D01*
X114110Y727525D01*
X114212Y727261D01*
X114248Y727152D01*
X114292Y727082D01*
X114322Y727035D01*
X114337Y727011D01*
X114523Y726768D01*
X114695Y726548D01*
X115142Y726206D01*
X115605Y725941D01*
X116062Y725738D01*
X116460Y725628D01*
X116805Y725551D01*
X117044Y725537D01*
X117097Y725505D01*
X117120Y725520D01*
X117506Y725534D01*
X117923Y725601D01*
X118387Y725698D01*
X118846Y725856D01*
X119327Y726030D01*
X119818Y726242D01*
X120807Y726703D01*
X121259Y726924D01*
X121672Y727152D01*
X122063Y727366D01*
X122367Y727560D01*
X122664Y727714D01*
X122875Y727848D01*
X122992Y727922D01*
X123039Y727952D01*
X123752Y728436D01*
X124394Y728875D01*
X124974Y729308D01*
X125492Y729734D01*
X125940Y730116D01*
X126327Y730492D01*
X126666Y730838D01*
X126959Y731155D01*
X127204Y731442D01*
X127418Y731676D01*
X127570Y731903D01*
X127713Y732092D01*
X127785Y732237D01*
X127850Y732343D01*
X127867Y732420D01*
X127890Y732435D01*
X127997Y732732D01*
X128081Y733015D01*
X128103Y733292D01*
X128125Y733569D01*
X128099Y734078D01*
X128017Y734519D01*
X127894Y734868D01*
X127778Y735156D01*
X127742Y735265D01*
X127697Y735335D01*
X127668Y735382D01*
X127653Y735406D01*
X127466Y735649D01*
X127279Y735892D01*
X127060Y736082D01*
X126833Y736234D01*
X126369Y736499D01*
X125912Y736702D01*
X125491Y736797D01*
X125146Y736874D01*
X125008Y736886D01*
X124908Y736888D01*
X124854Y736920D01*
D02*
G37*
%LPD*%
D32*
X648304Y534142D02*
X701015Y586853D01*
X531739Y417576D02*
X536348Y422186D01*
X533981Y648459D02*
X586695Y701173D01*
X417419Y531897D02*
X422030Y536508D01*
X586695Y701173D02*
X701015Y586853D01*
X516523Y432792D02*
X531739Y417576D01*
X417419Y531897D02*
X432637Y516679D01*
X493381Y419882D02*
X489790Y423473D01*
X491585Y421678D01*
X480813Y410905D01*
X482608Y409109D01*
X479017Y412700D01*
X475426Y434246D02*
X479017D01*
X482608Y430655D01*
Y427064D01*
X475426Y419882D01*
X471835D01*
X468244Y423473D01*
Y427064D01*
X455676Y436042D02*
X462858Y428860D01*
Y443223D01*
X464653Y445019D01*
X468244D01*
X471835Y441428D01*
Y437837D01*
D47*
X505409Y332330D02*
G03*
X505409Y332330I-1000J0D01*
G01*
X502659Y344330D02*
Y353330D01*
X494659Y353330D02*
X502659Y353330D01*
X472659Y344330D02*
Y353330D01*
X480659Y353330D01*
X470676Y397278D02*
X475626Y402228D01*
X351882Y448685D02*
X360615Y439952D01*
X351882Y448685D02*
X360615Y457418D01*
X385576Y482378D02*
X394309Y491111D01*
X403041Y482378D01*
X437159Y363408D02*
X445892Y372141D01*
X428426Y372141D02*
X437159Y363408D01*
X470676Y414744D02*
X475626Y409794D01*
Y402228D02*
Y409794D01*
X316815Y470771D02*
X321764Y465821D01*
X316815Y470771D02*
X337321Y491277D01*
X347220Y481378D01*
X326715Y460872D02*
X347220Y481378D01*
X321764Y465821D02*
X326715Y460872D01*
X436732Y370906D02*
X441445Y375618D01*
X439089Y373262D01*
X432020Y380331D01*
X443801Y377974D02*
X441445Y389756D01*
X448514Y382687D02*
X436732Y385043D01*
X450870D02*
X443801Y392112D01*
X447336Y395646D01*
X449692Y395646D01*
X454404Y390934D01*
X454404Y388578D01*
X450870Y385043D01*
X497073Y367994D02*
Y359664D01*
X495407Y357998D01*
X492075D01*
X490409Y359664D01*
Y367994D01*
X482078Y357998D02*
Y367994D01*
X487076Y362996D01*
X480412D01*
X515102Y369907D02*
X516768Y368241D01*
Y364909D01*
X515102Y363242D01*
X508437D01*
X506771Y364909D01*
Y368241D01*
X508437Y369907D01*
X506771Y373239D02*
Y376572D01*
Y374905D01*
X516768D01*
X515102Y373239D01*
Y381570D02*
X516768Y383236D01*
Y386568D01*
X515102Y388234D01*
X513435D01*
X511769Y386568D01*
Y384902D01*
Y386568D01*
X510103Y388234D01*
X508437D01*
X506771Y386568D01*
Y383236D01*
X508437Y381570D01*
X524747Y322094D02*
X526413Y323760D01*
X529745D01*
X531411Y322094D01*
Y315430D01*
X529745Y313764D01*
X526413D01*
X524747Y315430D01*
X521414Y313764D02*
X518082D01*
X519748D01*
Y323760D01*
X521414Y322094D01*
X508086Y313764D02*
Y323760D01*
X513084Y318762D01*
X506419D01*
X495752Y283105D02*
X497418Y284771D01*
X500751D01*
X502417Y283105D01*
Y276441D01*
X500751Y274774D01*
X497418D01*
X495752Y276441D01*
X492420Y274774D02*
X489088D01*
X490754D01*
Y284771D01*
X492420Y283105D01*
X477425Y274774D02*
X484089D01*
X477425Y281439D01*
Y283105D01*
X479091Y284771D01*
X482423D01*
X484089Y283105D01*
X685823Y535542D02*
X683467Y537899D01*
X684645Y536721D01*
X677576Y529652D01*
X678754Y528474D01*
X676398Y530830D01*
X674042Y544968D02*
X676398Y544968D01*
X678754Y542611D01*
Y540255D01*
X674042Y535542D01*
X671685D01*
X669329Y537899D01*
X669329Y540255D01*
X665795Y541433D02*
X663439Y543789D01*
X664617Y542611D01*
X671685Y549680D01*
Y547324D01*
X589777Y386016D02*
X592134D01*
X594490Y383659D01*
Y381303D01*
X589777Y376591D01*
X587421D01*
X585065Y378947D01*
Y381303D01*
X581531Y382481D02*
X579174Y384837D01*
X580353Y383659D01*
X587421Y390728D01*
Y388372D01*
X314949Y466143D02*
X322017Y459074D01*
X318483Y455540D01*
X316127D01*
X311414Y460252D01*
Y462609D01*
X314949Y466143D01*
X309058Y457896D02*
X306702D01*
X304345Y455540D01*
X304345Y453184D01*
X305523Y452005D01*
X307880D01*
X309058Y453184D01*
X307880Y452005D01*
X307880Y449649D01*
X309058Y448471D01*
X311414D01*
X313770Y450827D01*
Y453184D01*
X307880Y444937D02*
X305523Y442580D01*
X306702Y443759D01*
X299633Y450827D01*
X301989D01*
X610968Y396226D02*
X618037Y403295D01*
X614502Y406829D01*
X612146D01*
X609790Y404473D01*
Y402117D01*
X613324Y398582D01*
X610968Y400938D02*
X606255D01*
X603899Y403295D02*
X601543Y405651D01*
X602721Y404473D01*
X609790Y411541D01*
Y409185D01*
X601219Y384731D02*
X608288Y391800D01*
X604753Y395335D01*
X602397D01*
X600041Y392978D01*
Y390622D01*
X603575Y387088D01*
X601219Y389444D02*
X596506D01*
X589437Y396513D02*
X594150Y391800D01*
Y401225D01*
X595328Y402403D01*
X597684Y402403D01*
X600041Y400047D01*
Y397691D01*
X446434Y639136D02*
X453503Y646205D01*
X449968Y649739D01*
X447612D01*
X445256Y647383D01*
Y645026D01*
X448790Y641492D01*
X446434Y643848D02*
X441721D01*
X445256Y652095D02*
Y654451D01*
X442900Y656808D01*
X440543Y656808D01*
X439365Y655630D01*
Y653273D01*
X440543Y652095D01*
X439365Y653273D01*
X437009Y653273D01*
X435831Y652095D01*
Y649739D01*
X438187Y647383D01*
X440543D01*
X436250Y629049D02*
X443319Y636118D01*
X439785Y639652D01*
X437429D01*
X435072Y637296D01*
Y634939D01*
X438607Y631405D01*
X436250Y633761D02*
X431538D01*
X425647Y639652D02*
X432716Y646721D01*
Y639652D01*
X428004Y644364D01*
X441166Y585205D02*
X448235Y592273D01*
X444701Y595808D01*
X442345D01*
X439988Y593452D01*
Y591095D01*
X443523Y587561D01*
X441166Y589917D02*
X436454D01*
Y604055D02*
X441166Y599342D01*
X437632Y595808D01*
X436454Y599342D01*
X435276Y600520D01*
X432920D01*
X430563Y598164D01*
Y595808D01*
X432920Y593452D01*
X435276D01*
X395451Y509954D02*
X388382Y517023D01*
X384848Y513488D01*
Y511132D01*
X387204Y508776D01*
X389560D01*
X393095Y512310D01*
X390738Y509954D02*
Y505242D01*
X376601D02*
X380135Y506420D01*
X384848D01*
X387204Y504063D01*
Y501707D01*
X384848Y499351D01*
X382491D01*
X381313Y500529D01*
X381313Y502885D01*
X384848Y506420D01*
X385166Y519280D02*
X378098Y526348D01*
X374563Y522814D01*
Y520458D01*
X376920Y518101D01*
X379276D01*
X382810Y521636D01*
X380454Y519280D02*
Y514567D01*
X371029Y519280D02*
X366316Y514567D01*
X367495Y513389D01*
X376920D01*
X378098Y512211D01*
X332732Y447083D02*
X325663Y454152D01*
X322129Y450617D01*
Y448261D01*
X324485Y445905D01*
X326841D01*
X330376Y449439D01*
X328019Y447083D02*
Y442370D01*
X319772Y445905D02*
X317416D01*
X315060Y443549D01*
X315060Y441192D01*
X316238Y440014D01*
X318594D01*
X318594Y437658D01*
X319772Y436480D01*
X322129D01*
X324485Y438836D01*
Y441192D01*
X323307Y442370D01*
X320951D01*
X320951Y444727D01*
X319772Y445905D01*
X320951Y442370D02*
X318594Y440014D01*
X423201Y321351D02*
X433198D01*
Y326349D01*
X431532Y328016D01*
X428200D01*
X426534Y326349D01*
Y321351D01*
Y324683D02*
X423201Y328016D01*
Y338012D02*
Y331348D01*
X429866Y338012D01*
X431532D01*
X433198Y336346D01*
Y333014D01*
X431532Y331348D01*
Y341345D02*
X433198Y343011D01*
Y346343D01*
X431532Y348009D01*
X429866D01*
X428200Y346343D01*
Y344677D01*
Y346343D01*
X426534Y348009D01*
X424868D01*
X423201Y346343D01*
Y343011D01*
X424868Y341345D01*
X437660Y321255D02*
X447657D01*
Y326253D01*
X445990Y327919D01*
X442658D01*
X440992Y326253D01*
Y321255D01*
Y324587D02*
X437660Y327919D01*
Y337916D02*
Y331251D01*
X444324Y337916D01*
X445990D01*
X447657Y336250D01*
Y332917D01*
X445990Y331251D01*
X437660Y346246D02*
X447657D01*
X442658Y341248D01*
Y347912D01*
X366022Y441616D02*
X358953Y448685D01*
X361309Y446329D01*
X370734Y446329D01*
X363666Y446329D01*
X363666Y453397D01*
X377803D02*
X373091Y448685D01*
X366022Y455754D01*
X370734Y460466D01*
X369556Y452219D02*
X371912Y454576D01*
X380159Y455754D02*
X378981Y456932D01*
Y461644D01*
X383694D01*
X384872Y460466D01*
X378981Y461644D02*
X375447Y465179D01*
X380164Y427474D02*
X373095Y434543D01*
X377808Y439255D01*
X391945D02*
X387233Y434543D01*
X380164Y441612D01*
X384876Y446324D01*
X383698Y438077D02*
X386054Y440434D01*
X394301Y441612D02*
X387233Y448680D01*
X390767Y452215D01*
X393123Y452215D01*
X397836Y447502D01*
X397836Y445146D01*
X394301Y441612D01*
X397840Y419223D02*
Y416866D01*
X395484Y414510D01*
X393128D01*
X388415Y419223D01*
Y421579D01*
X390772Y423935D01*
X393128D01*
X395484Y421579D01*
X393128Y419223D01*
X394306Y427469D02*
X401375Y420401D01*
X399019Y432182D01*
X406087Y425113D01*
X408444Y427469D02*
X401375Y434538D01*
X404909Y438073D01*
X407266Y438073D01*
X411978Y433360D01*
X411978Y431004D01*
X408444Y427469D01*
X408448Y399190D02*
X403736Y403902D01*
Y408615D01*
X408448D01*
X413161Y403902D01*
X419051Y412149D02*
X419051Y409793D01*
X416695Y407437D01*
X414339D01*
X409626Y412149D01*
Y414506D01*
X411982Y416862D01*
X414339D01*
X426120Y419218D02*
X426120Y416862D01*
X423764Y414506D01*
X421408D01*
X416695Y419218D01*
Y421574D01*
X419051Y423931D01*
X421408Y423931D01*
X415522Y392116D02*
X422590Y385048D01*
X426125Y388582D01*
Y390938D01*
X423769Y393295D01*
X421412D01*
X417878Y389760D01*
X420234Y392116D02*
Y396829D01*
X429659Y392116D02*
X427303Y403898D01*
X434372Y396829D02*
X422590Y399185D01*
X436728D02*
X429659Y406254D01*
X433194Y409788D01*
X435550Y409788D01*
X440262Y405076D01*
X440262Y402720D01*
X436728Y399185D01*
D50*
X457018Y306808D02*
X459518Y306808D01*
X458268Y305558D02*
X458268Y308058D01*
X330073Y462109D02*
X331841Y460341D01*
X330073D02*
X331841Y462109D01*
D51*
X505535Y328506D02*
X518035D01*
X505535Y360506D02*
X518035D01*
X505535Y349756D02*
X505535Y360506D01*
X518035Y349757D02*
X518035Y360506D01*
X505535Y339257D02*
X505535Y328506D01*
X518035Y339256D02*
X518035Y328506D01*
X503655Y312687D02*
Y325187D01*
X471655Y312687D02*
Y325187D01*
Y312687D02*
X482406Y312686D01*
X471655Y325187D02*
X482406D01*
X492906Y312687D02*
X503655Y312687D01*
X492906Y325187D02*
X503655Y325187D01*
X456018Y290058D02*
X458518Y287558D01*
X503518Y287559D01*
Y300809D01*
Y311058D01*
X458518Y311059D02*
X503518Y311058D01*
X456018Y308559D02*
X458518Y311059D01*
X456018Y290058D02*
Y308559D01*
X564667Y419590D02*
X572268Y411989D01*
X573506Y428429D02*
X581107Y420828D01*
X579693Y404564D02*
X587294Y396963D01*
X588532Y413403D02*
X596133Y405802D01*
X587294Y396963D02*
X596133Y405802D01*
X564667Y419590D02*
X573506Y428429D01*
X575283Y429917D02*
X582884Y422315D01*
X584122Y438756D02*
X591723Y431155D01*
X590309Y414891D02*
X597910Y407290D01*
X599148Y423730D02*
X606749Y416129D01*
X597910Y407290D02*
X606749Y416129D01*
X575283Y429917D02*
X584122Y438756D01*
X553530Y408572D02*
X562369Y417411D01*
X576157Y385945D02*
X584996Y394783D01*
X577395Y402384D02*
X584996Y394783D01*
X568556Y393546D02*
X576157Y385945D01*
X562369Y417411D02*
X569970Y409809D01*
X553530Y408572D02*
X561131Y400970D01*
X342024Y472215D02*
X349626Y479817D01*
X350863Y463376D02*
X358465Y470977D01*
X326998Y457189D02*
X334600Y464790D01*
X335837Y448350D02*
X343439Y455952D01*
X326998Y457189D02*
X335837Y448350D01*
X349626Y479817D02*
X358465Y470977D01*
X366252Y496663D02*
X373854Y504264D01*
X375091Y487823D02*
X382692Y495425D01*
X351226Y481636D02*
X358828Y489238D01*
X360065Y472798D02*
X367666Y480399D01*
X351226Y481636D02*
X360065Y472798D01*
X373854Y504264D02*
X382692Y495425D01*
X355460Y507411D02*
X363061Y515013D01*
X364298Y498573D02*
X371899Y506174D01*
X340434Y492386D02*
X348035Y499987D01*
X349272Y483546D02*
X356873Y491148D01*
X340434Y492386D02*
X349272Y483546D01*
X363061Y515013D02*
X371899Y506174D01*
X427361Y616307D02*
X434962Y608705D01*
X436200Y625146D02*
X443802Y617544D01*
X442387Y601281D02*
X449989Y593680D01*
X451226Y610120D02*
X458827Y602518D01*
X449989Y593680D02*
X458827Y602518D01*
X427361Y616307D02*
X436200Y625146D01*
X461337Y620166D02*
X468938Y612565D01*
X452498Y611327D02*
X460099Y603725D01*
X446310Y635192D02*
X453912Y627590D01*
X437472Y626353D02*
X445073Y618751D01*
X437472Y626353D02*
X446310Y635192D01*
X460099Y603725D02*
X468938Y612565D01*
X471447Y630370D02*
X479049Y622769D01*
X462609Y621532D02*
X470210Y613930D01*
X456422Y645396D02*
X464023Y637795D01*
X447583Y636558D02*
X455184Y628956D01*
X447583Y636558D02*
X456422Y645396D01*
X470210Y613930D02*
X479049Y622769D01*
X436372Y308328D02*
X436372Y319077D01*
X448872Y308328D02*
X448872Y319077D01*
X436372Y297827D02*
X436372Y287077D01*
X448872Y297828D02*
X448872Y287077D01*
X436372D02*
X448872D01*
X436372Y319077D02*
X448872D01*
X434258Y287027D02*
Y297777D01*
X421758Y297778D02*
X421758Y287027D01*
X434258Y308277D02*
X434258Y319027D01*
X421758Y308277D02*
X421758Y319027D01*
X434258D01*
X421758Y287027D02*
X434258D01*
D52*
X329366Y476958D02*
X332901Y473423D01*
X329366Y476958D02*
X332901D01*
Y473423D02*
Y476958D01*
D85*
X653870Y531610D02*
G03*
X653870Y531610I-1500J0D01*
G01*
X414868Y731177D02*
X409571Y722699D01*
X402683Y721109D01*
X401093Y727996D01*
X406391Y736474D01*
X387847Y730379D02*
X392086Y727730D01*
X395530Y728525D01*
X398179Y732764D01*
X397383Y736208D01*
X393145Y738857D01*
X389701Y738062D01*
X388377Y735943D01*
X396854Y730645D01*
X386786Y742830D02*
X381489Y734352D01*
X384138Y738591D01*
X383343Y742035D01*
X382547Y745479D01*
X380428Y746803D01*
X368772Y742299D02*
X362414Y746272D01*
X361619Y749715D01*
X365063Y750510D01*
X369302Y747862D01*
X372745Y748657D01*
X371950Y752101D01*
X365592Y756074D01*
X353936Y751569D02*
X349697Y754218D01*
X348902Y757662D01*
X351551Y761900D01*
X354995Y762696D01*
X359234Y760047D01*
X360029Y756603D01*
X357380Y752364D01*
X353936Y751569D01*
X343339Y758191D02*
X348637Y766669D01*
X342278Y770642D01*
X338834Y769847D01*
X334861Y763488D01*
X309428Y779381D02*
X317906Y774083D01*
X314726Y787859D01*
X316050Y789978D01*
X319494Y790773D01*
X323733Y788124D01*
X324528Y784681D01*
X305189Y782030D02*
X306514Y784149D01*
X304394Y785473D01*
X303070Y783354D01*
X305189Y782030D01*
X301214Y799249D02*
X300419Y802692D01*
X296180Y805341D01*
X292736Y804546D01*
X287439Y796068D01*
X288234Y792625D01*
X292473Y789976D01*
X295917Y790771D01*
X301214Y799249D01*
M02*
