G04 Layer_Color=16711935*
%FSLAX44Y44*%
%MOMM*%
G71*
G01*
G75*
%ADD53R,1.2032X1.0032*%
%ADD56R,1.0032X1.1032*%
%ADD57R,1.0032X1.2032*%
%ADD61P,1.4187X4X270.0*%
%ADD68R,1.0032X1.2032*%
G04:AMPARAMS|DCode=72|XSize=1.2032mm|YSize=1.0032mm|CornerRadius=0mm|HoleSize=0mm|Usage=FLASHONLY|Rotation=315.000|XOffset=0mm|YOffset=0mm|HoleType=Round|Shape=Rectangle|*
%AMROTATEDRECTD72*
4,1,4,-0.7801,0.0707,-0.0707,0.7801,0.7801,-0.0707,0.0707,-0.7801,-0.7801,0.0707,0.0*
%
%ADD72ROTATEDRECTD72*%

G04:AMPARAMS|DCode=73|XSize=1.2032mm|YSize=1.0032mm|CornerRadius=0mm|HoleSize=0mm|Usage=FLASHONLY|Rotation=45.000|XOffset=0mm|YOffset=0mm|HoleType=Round|Shape=Rectangle|*
%AMROTATEDRECTD73*
4,1,4,-0.0707,-0.7801,-0.7801,-0.0707,0.0707,0.7801,0.7801,0.0707,-0.0707,-0.7801,0.0*
%
%ADD73ROTATEDRECTD73*%

%ADD75P,2.4087X4X90.0*%
%ADD76C,1.7032*%
%ADD77P,2.4087X4X360.0*%
%ADD78C,0.8532*%
%ADD79C,1.2032*%
%ADD80R,1.6032X2.0032*%
G04:AMPARAMS|DCode=81|XSize=1.7032mm|YSize=1.2032mm|CornerRadius=0mm|HoleSize=0mm|Usage=FLASHONLY|Rotation=225.000|XOffset=0mm|YOffset=0mm|HoleType=Round|Shape=Rectangle|*
%AMROTATEDRECTD81*
4,1,4,0.1768,1.0276,1.0276,0.1768,-0.1768,-1.0276,-1.0276,-0.1768,0.1768,1.0276,0.0*
%
%ADD81ROTATEDRECTD81*%

G04:AMPARAMS|DCode=82|XSize=2.4532mm|YSize=1.2032mm|CornerRadius=0mm|HoleSize=0mm|Usage=FLASHONLY|Rotation=135.000|XOffset=0mm|YOffset=0mm|HoleType=Round|Shape=Rectangle|*
%AMROTATEDRECTD82*
4,1,4,1.2927,-0.4419,0.4419,-1.2927,-1.2927,0.4419,-0.4419,1.2927,1.2927,-0.4419,0.0*
%
%ADD82ROTATEDRECTD82*%

G04:AMPARAMS|DCode=83|XSize=1.2032mm|YSize=2.2032mm|CornerRadius=0mm|HoleSize=0mm|Usage=FLASHONLY|Rotation=135.000|XOffset=0mm|YOffset=0mm|HoleType=Round|Shape=Rectangle|*
%AMROTATEDRECTD83*
4,1,4,1.2044,0.3535,-0.3535,-1.2044,-1.2044,-0.3535,0.3535,1.2044,1.2044,0.3535,0.0*
%
%ADD83ROTATEDRECTD83*%

G04:AMPARAMS|DCode=84|XSize=1.2032mm|YSize=2.2032mm|CornerRadius=0mm|HoleSize=0mm|Usage=FLASHONLY|Rotation=135.000|XOffset=0mm|YOffset=0mm|HoleType=Round|Shape=Round|*
%AMOVALD84*
21,1,1.0000,1.2032,0.0000,0.0000,225.0*
1,1,1.2032,0.3535,0.3535*
1,1,1.2032,-0.3535,-0.3535*
%
%ADD84OVALD84*%

D53*
X496156Y318937D02*
D03*
X479156D02*
D03*
D56*
X497159Y335080D02*
D03*
X478159Y335080D02*
D03*
D57*
X487659Y357580D02*
D03*
D61*
X326715Y470771D02*
D03*
X337321Y481378D02*
D03*
D68*
X511785Y336006D02*
D03*
X511785Y353006D02*
D03*
X442622Y294577D02*
D03*
Y311577D02*
D03*
X428008Y311527D02*
D03*
X428008Y294527D02*
D03*
D72*
X586410Y406686D02*
D03*
X574389Y418707D02*
D03*
X597026Y417012D02*
D03*
X585005Y429033D02*
D03*
X563253Y407688D02*
D03*
X575273Y395667D02*
D03*
X449105Y603402D02*
D03*
X437084Y615423D02*
D03*
X447194Y625469D02*
D03*
X459215Y613448D02*
D03*
X457306Y635674D02*
D03*
X469327Y623653D02*
D03*
D73*
X336721Y458073D02*
D03*
X348742Y470093D02*
D03*
X360949Y482520D02*
D03*
X372970Y494541D02*
D03*
X350156Y493270D02*
D03*
X362177Y505290D02*
D03*
D75*
X132816Y808206D02*
D03*
X827196Y150921D02*
D03*
X407999Y650387D02*
D03*
X545570Y303312D02*
D03*
X412046Y610431D02*
D03*
D76*
X150776Y826167D02*
D03*
X400170Y374764D02*
D03*
X382210Y356803D02*
D03*
Y392724D02*
D03*
X364249Y374764D02*
D03*
Y410684D02*
D03*
X346288Y392724D02*
D03*
X346288Y428645D02*
D03*
X808972Y826167D02*
D03*
X809235Y132961D02*
D03*
X151632Y133549D02*
D03*
X354117Y596505D02*
D03*
X372077Y614465D02*
D03*
X390038Y632426D02*
D03*
X336156Y578545D02*
D03*
X318196Y560584D02*
D03*
X300236Y542624D02*
D03*
X563530Y321273D02*
D03*
X394085Y592470D02*
D03*
X376125Y574509D02*
D03*
X358164Y556549D02*
D03*
D77*
X328328Y410684D02*
D03*
X826933Y808206D02*
D03*
X133671Y151510D02*
D03*
D78*
X321820Y438757D02*
D03*
X579058Y501508D02*
D03*
X568648Y498620D02*
D03*
X554991Y398608D02*
D03*
X543696Y401300D02*
D03*
X476290Y359045D02*
D03*
X498003Y546699D02*
D03*
X411667Y304451D02*
D03*
X500098Y559726D02*
D03*
X494713Y571571D02*
D03*
X439375Y326304D02*
D03*
X540609Y494396D02*
D03*
X650480Y473910D02*
D03*
X634597Y473509D02*
D03*
X500423Y473759D02*
D03*
X481719Y440689D02*
D03*
X488616Y557670D02*
D03*
X517747Y595138D02*
D03*
X511350Y316527D02*
D03*
X442125Y285693D02*
D03*
X547345Y487584D02*
D03*
X555368Y501991D02*
D03*
X563926Y520450D02*
D03*
X671112Y459871D02*
D03*
X634687Y462969D02*
D03*
X629920Y454581D02*
D03*
X606837Y457133D02*
D03*
X598226Y451112D02*
D03*
X598331Y462282D02*
D03*
X325258Y531189D02*
D03*
X594257Y377189D02*
D03*
X627604Y565317D02*
D03*
X454322Y522021D02*
D03*
X462073Y514270D02*
D03*
X469555Y525517D02*
D03*
X524385Y521812D02*
D03*
X409215Y514279D02*
D03*
X386990Y494309D02*
D03*
X379864Y505531D02*
D03*
X415016Y481727D02*
D03*
X459257Y541189D02*
D03*
X422782Y564997D02*
D03*
X427599Y635048D02*
D03*
X435413Y588393D02*
D03*
X492587Y380640D02*
D03*
X663060Y448653D02*
D03*
X669988Y440593D02*
D03*
X650678Y549150D02*
D03*
X673969Y531655D02*
D03*
X667659Y515825D02*
D03*
X670345Y502084D02*
D03*
X539257Y391189D02*
D03*
X521257Y376189D02*
D03*
X479865Y386814D02*
D03*
X466200Y363513D02*
D03*
X398496Y541839D02*
D03*
X375520Y550428D02*
D03*
X380427Y541022D02*
D03*
X373782Y532842D02*
D03*
X445130Y646610D02*
D03*
X602256Y427853D02*
D03*
X410490Y408415D02*
D03*
X383000Y429918D02*
D03*
X398301Y441628D02*
D03*
X421025Y411393D02*
D03*
X431996Y348607D02*
D03*
X438899Y355781D02*
D03*
X325258Y487189D02*
D03*
X311258Y445494D02*
D03*
X436098Y659704D02*
D03*
X573257Y567189D02*
D03*
X579320Y575132D02*
D03*
X543622Y570305D02*
D03*
X592787Y579047D02*
D03*
X630257Y549189D02*
D03*
X482257Y631189D02*
D03*
X483257Y617189D02*
D03*
X332802Y515835D02*
D03*
X328655Y500980D02*
D03*
X517130Y304553D02*
D03*
D79*
X546730Y351101D02*
D03*
X848956Y909551D02*
D03*
X853315Y51791D02*
D03*
X105017Y50721D02*
D03*
X106234Y911229D02*
D03*
D80*
X467768Y299308D02*
D03*
X493769D02*
D03*
D81*
X439708Y510574D02*
D03*
X453850Y496432D02*
D03*
X467992Y482290D02*
D03*
X482134Y468147D02*
D03*
X496276Y454005D02*
D03*
X510418Y439863D02*
D03*
D82*
X539586Y431908D02*
D03*
X553729Y446050D02*
D03*
X567870Y460193D02*
D03*
X582013Y474334D02*
D03*
X596155Y488477D02*
D03*
X610297Y502619D02*
D03*
X624439Y516761D02*
D03*
X638582Y530903D02*
D03*
X530748Y638737D02*
D03*
X516605Y624595D02*
D03*
X502463Y610452D02*
D03*
X488321Y596311D02*
D03*
X474179Y582169D02*
D03*
X460037Y568026D02*
D03*
X445895Y553884D02*
D03*
X431753Y539742D02*
D03*
D83*
X390773Y473433D02*
D03*
X404915Y459292D02*
D03*
X419057Y445150D02*
D03*
X433199Y431007D02*
D03*
X447341Y416865D02*
D03*
D84*
X461483Y402723D02*
D03*
M02*
