G04 Layer_Color=255*
%FSLAX44Y44*%
%MOMM*%
G71*
G01*
G75*
%ADD10R,1.0000X0.8000*%
%ADD11R,0.9500X0.3000*%
%ADD12R,0.3000X0.9500*%
%ADD13R,0.8000X0.9000*%
%ADD14R,0.8000X1.0000*%
%ADD15R,2.1000X0.5000*%
%ADD16O,1.8000X0.3000*%
%ADD17O,0.3000X1.8000*%
%ADD18P,1.1314X4X270.0*%
G04:AMPARAMS|DCode=19|XSize=0.8mm|YSize=0.9mm|CornerRadius=0mm|HoleSize=0mm|Usage=FLASHONLY|Rotation=225.000|XOffset=0mm|YOffset=0mm|HoleType=Round|Shape=Rectangle|*
%AMROTATEDRECTD19*
4,1,4,-0.0354,0.6010,0.6010,-0.0354,0.0354,-0.6010,-0.6010,0.0354,-0.0354,0.6010,0.0*
%
%ADD19ROTATEDRECTD19*%

G04:AMPARAMS|DCode=20|XSize=0.8mm|YSize=1mm|CornerRadius=0mm|HoleSize=0mm|Usage=FLASHONLY|Rotation=225.000|XOffset=0mm|YOffset=0mm|HoleType=Round|Shape=Rectangle|*
%AMROTATEDRECTD20*
4,1,4,-0.0707,0.6364,0.6364,-0.0707,0.0707,-0.6364,-0.6364,0.0707,-0.0707,0.6364,0.0*
%
%ADD20ROTATEDRECTD20*%

G04:AMPARAMS|DCode=21|XSize=0.8mm|YSize=0.9mm|CornerRadius=0mm|HoleSize=0mm|Usage=FLASHONLY|Rotation=135.000|XOffset=0mm|YOffset=0mm|HoleType=Round|Shape=Rectangle|*
%AMROTATEDRECTD21*
4,1,4,0.6010,0.0354,-0.0354,-0.6010,-0.6010,-0.0354,0.0354,0.6010,0.6010,0.0354,0.0*
%
%ADD21ROTATEDRECTD21*%

G04:AMPARAMS|DCode=22|XSize=0.8mm|YSize=1mm|CornerRadius=0mm|HoleSize=0mm|Usage=FLASHONLY|Rotation=135.000|XOffset=0mm|YOffset=0mm|HoleType=Round|Shape=Rectangle|*
%AMROTATEDRECTD22*
4,1,4,0.6364,0.0707,-0.0707,-0.6364,-0.6364,-0.0707,0.0707,0.6364,0.6364,0.0707,0.0*
%
%ADD22ROTATEDRECTD22*%

%ADD23P,1.1314X4X360.0*%
%ADD24R,0.8000X0.8000*%
%ADD25R,0.8000X1.0000*%
%ADD26R,0.3000X1.0000*%
%ADD27R,1.0000X0.3000*%
G04:AMPARAMS|DCode=28|XSize=1.4mm|YSize=1.8mm|CornerRadius=0mm|HoleSize=0mm|Usage=FLASHONLY|Rotation=135.000|XOffset=0mm|YOffset=0mm|HoleType=Round|Shape=Rectangle|*
%AMROTATEDRECTD28*
4,1,4,1.1314,0.1414,-0.1414,-1.1314,-1.1314,-0.1414,0.1414,1.1314,1.1314,0.1414,0.0*
%
%ADD28ROTATEDRECTD28*%

G04:AMPARAMS|DCode=29|XSize=1mm|YSize=0.8mm|CornerRadius=0mm|HoleSize=0mm|Usage=FLASHONLY|Rotation=315.000|XOffset=0mm|YOffset=0mm|HoleType=Round|Shape=Rectangle|*
%AMROTATEDRECTD29*
4,1,4,-0.6364,0.0707,-0.0707,0.6364,0.6364,-0.0707,0.0707,-0.6364,-0.6364,0.0707,0.0*
%
%ADD29ROTATEDRECTD29*%

G04:AMPARAMS|DCode=30|XSize=1mm|YSize=0.8mm|CornerRadius=0mm|HoleSize=0mm|Usage=FLASHONLY|Rotation=45.000|XOffset=0mm|YOffset=0mm|HoleType=Round|Shape=Rectangle|*
%AMROTATEDRECTD30*
4,1,4,-0.0707,-0.6364,-0.6364,-0.0707,0.0707,0.6364,0.6364,0.0707,-0.0707,-0.6364,0.0*
%
%ADD30ROTATEDRECTD30*%

G04:AMPARAMS|DCode=31|XSize=1.4mm|YSize=2.8mm|CornerRadius=0mm|HoleSize=0mm|Usage=FLASHONLY|Rotation=135.000|XOffset=0mm|YOffset=0mm|HoleType=Round|Shape=Rectangle|*
%AMROTATEDRECTD31*
4,1,4,1.4849,0.4950,-0.4950,-1.4849,-1.4849,-0.4950,0.4950,1.4849,1.4849,0.4950,0.0*
%
%ADD31ROTATEDRECTD31*%

%ADD37P,2.1213X4X90.0*%
%ADD38C,1.5000*%
%ADD39P,2.1213X4X360.0*%
D10*
X524771Y638546D02*
D03*
X541771D02*
D03*
X467113Y628254D02*
D03*
X450114D02*
D03*
X467234Y613064D02*
D03*
X450234D02*
D03*
X338052Y471924D02*
D03*
X355052D02*
D03*
X469091Y659503D02*
D03*
X452091D02*
D03*
X509151D02*
D03*
X492152D02*
D03*
X458977Y555398D02*
D03*
X441977D02*
D03*
X450917Y300695D02*
D03*
X467917D02*
D03*
X671028Y487916D02*
D03*
X688027D02*
D03*
X292561Y490343D02*
D03*
X275562D02*
D03*
X671112Y472599D02*
D03*
X688112D02*
D03*
X292678Y475169D02*
D03*
X275678D02*
D03*
X490620Y300776D02*
D03*
X507620D02*
D03*
X618799Y495526D02*
D03*
X601799D02*
D03*
X618466Y510847D02*
D03*
X601467D02*
D03*
X471777Y589343D02*
D03*
X454777D02*
D03*
X471919Y574880D02*
D03*
X454919Y574880D02*
D03*
X354907Y457441D02*
D03*
X337907D02*
D03*
D11*
X495076Y607666D02*
D03*
Y602666D02*
D03*
Y597666D02*
D03*
Y592666D02*
D03*
Y587666D02*
D03*
Y582666D02*
D03*
X538576D02*
D03*
Y587666D02*
D03*
Y592666D02*
D03*
Y597666D02*
D03*
Y602666D02*
D03*
Y607666D02*
D03*
D12*
X504326Y573416D02*
D03*
X509326D02*
D03*
X514326D02*
D03*
X519326D02*
D03*
X524326D02*
D03*
X529325D02*
D03*
Y616916D02*
D03*
X524326D02*
D03*
X519326D02*
D03*
X514326D02*
D03*
X509326D02*
D03*
X504326D02*
D03*
D13*
X490192Y679918D02*
D03*
X509192D02*
D03*
X450372D02*
D03*
X469371D02*
D03*
X509631Y280451D02*
D03*
X490631D02*
D03*
X469861Y280452D02*
D03*
X450860D02*
D03*
X401674Y314951D02*
D03*
X420674D02*
D03*
D14*
X499692Y702417D02*
D03*
X459872D02*
D03*
X500131Y257951D02*
D03*
X460360Y257952D02*
D03*
X411174Y337451D02*
D03*
D15*
X382594Y485365D02*
D03*
Y473365D02*
D03*
Y461365D02*
D03*
D16*
X443521Y484292D02*
D03*
Y479292D02*
D03*
Y474292D02*
D03*
Y469292D02*
D03*
Y464292D02*
D03*
Y459292D02*
D03*
Y454292D02*
D03*
Y449292D02*
D03*
Y444292D02*
D03*
X443521Y439292D02*
D03*
X443521Y434292D02*
D03*
Y429292D02*
D03*
X524521Y429292D02*
D03*
Y434292D02*
D03*
Y439292D02*
D03*
Y444292D02*
D03*
Y449292D02*
D03*
Y454292D02*
D03*
Y459292D02*
D03*
Y464292D02*
D03*
Y469292D02*
D03*
Y474292D02*
D03*
Y479292D02*
D03*
Y484292D02*
D03*
D17*
X456521Y416292D02*
D03*
X461521D02*
D03*
X466521D02*
D03*
X471521D02*
D03*
X476521D02*
D03*
X481521D02*
D03*
X486521D02*
D03*
X491521D02*
D03*
X496521D02*
D03*
X501521D02*
D03*
X506521D02*
D03*
X511521D02*
D03*
Y497292D02*
D03*
X506521Y497292D02*
D03*
X501521Y497292D02*
D03*
X496521Y497292D02*
D03*
X491521D02*
D03*
X486521D02*
D03*
X481521D02*
D03*
X476521D02*
D03*
X471521D02*
D03*
X466521D02*
D03*
X461521D02*
D03*
X456521D02*
D03*
D18*
X74604Y900302D02*
D03*
X63997Y889696D02*
D03*
X888599Y62001D02*
D03*
X899205Y72608D02*
D03*
D19*
X166223Y859786D02*
D03*
X179659Y873221D02*
D03*
X794792Y99509D02*
D03*
X781357Y86074D02*
D03*
D20*
X157031Y882413D02*
D03*
X803984Y76881D02*
D03*
D21*
X779740Y872849D02*
D03*
X793175Y859414D02*
D03*
X178040Y85243D02*
D03*
X164605Y98678D02*
D03*
X615066Y399185D02*
D03*
X601631Y412620D02*
D03*
D22*
X802367Y882042D02*
D03*
X155412Y76050D02*
D03*
X592439Y389993D02*
D03*
D23*
X896777Y888934D02*
D03*
X886171Y899541D02*
D03*
X60630Y74267D02*
D03*
X71237Y63660D02*
D03*
D24*
X469113Y347395D02*
D03*
Y332395D02*
D03*
X489340Y332535D02*
D03*
Y347535D02*
D03*
D25*
X450913Y332726D02*
D03*
X450913Y349726D02*
D03*
X508193Y332726D02*
D03*
Y349725D02*
D03*
X540241Y547888D02*
D03*
Y530888D02*
D03*
X554476Y547895D02*
D03*
X554476Y530895D02*
D03*
X561726Y587532D02*
D03*
Y604532D02*
D03*
X577246Y587453D02*
D03*
Y604453D02*
D03*
X525440Y332655D02*
D03*
Y349655D02*
D03*
X524480Y530913D02*
D03*
Y547913D02*
D03*
X510155Y547928D02*
D03*
Y530928D02*
D03*
D26*
X592787Y565727D02*
D03*
X597787D02*
D03*
X602787D02*
D03*
Y531907D02*
D03*
X597787D02*
D03*
X592787D02*
D03*
X587786Y565727D02*
D03*
Y531907D02*
D03*
D27*
X612197Y551317D02*
D03*
Y546316D02*
D03*
Y541317D02*
D03*
X578377D02*
D03*
Y546316D02*
D03*
Y551317D02*
D03*
X612197Y556316D02*
D03*
X578377D02*
D03*
D28*
X629117Y435392D02*
D03*
X647502Y417008D02*
D03*
D29*
X626381Y409668D02*
D03*
X614360Y421689D02*
D03*
D30*
X625663Y386690D02*
D03*
X613642Y374669D02*
D03*
D31*
X591112Y355557D02*
D03*
X572728Y373941D02*
D03*
D37*
X132816Y808206D02*
D03*
X827196Y150921D02*
D03*
X407999Y650387D02*
D03*
X545570Y303312D02*
D03*
X412046Y610431D02*
D03*
D38*
X150776Y826167D02*
D03*
X400170Y374764D02*
D03*
X382210Y356803D02*
D03*
Y392724D02*
D03*
X364249Y374764D02*
D03*
Y410684D02*
D03*
X346288Y392724D02*
D03*
X346288Y428645D02*
D03*
X808972Y826167D02*
D03*
X809235Y132961D02*
D03*
X151632Y133549D02*
D03*
X354117Y596505D02*
D03*
X372077Y614465D02*
D03*
X390038Y632426D02*
D03*
X336156Y578545D02*
D03*
X318196Y560584D02*
D03*
X300236Y542624D02*
D03*
X563530Y321273D02*
D03*
X394085Y592470D02*
D03*
X376125Y574509D02*
D03*
X358164Y556549D02*
D03*
D39*
X328328Y410684D02*
D03*
X826933Y808206D02*
D03*
X133671Y151510D02*
D03*
M02*
