G04 Layer_Color=65535*
%FSLAX44Y44*%
%MOMM*%
G71*
G01*
G75*
%ADD32C,0.2540*%
%ADD47C,0.2000*%
%ADD48C,0.2500*%
%ADD49C,0.6000*%
%ADD50C,0.0500*%
%ADD51C,0.1500*%
%ADD52C,0.1000*%
D32*
X491526Y621526D02*
G03*
X491526Y621526I-500J0D01*
G01*
X576257Y568907D02*
G03*
X576257Y568907I-500J0D01*
G01*
D47*
X483942Y677167D02*
G03*
X483942Y677167I-1000J0D01*
G01*
X444122D02*
G03*
X444122Y677167I-1000J0D01*
G01*
X517881Y283202D02*
G03*
X517881Y283202I-1000J0D01*
G01*
X478110D02*
G03*
X478110Y283202I-1000J0D01*
G01*
X164041Y852715D02*
G03*
X164041Y852715I-1000J0D01*
G01*
X773669Y876031D02*
G03*
X773669Y876031I-1000J0D01*
G01*
X186111Y82061D02*
G03*
X186111Y82061I-1000J0D01*
G01*
X798974Y106580D02*
G03*
X798974Y106580I-1000J0D01*
G01*
X623137Y396003D02*
G03*
X623137Y396003I-1000J0D01*
G01*
X395424Y312201D02*
G03*
X395424Y312201I-1000J0D01*
G01*
X150705Y844056D02*
X168666Y826096D01*
X132816Y790246D02*
X168666Y826096D01*
X114855Y808206D02*
X132816Y790246D01*
X114855Y808206D02*
X150705Y844056D01*
X496326Y612916D02*
Y614291D01*
X497701Y615666D02*
X499076D01*
X496326Y614291D02*
X497701Y615666D01*
X537326Y612916D02*
Y615666D01*
X534576D02*
X537326D01*
X496326Y574666D02*
Y577416D01*
Y574666D02*
X499076D01*
X537326D02*
Y577416D01*
X534576Y574666D02*
X537326D01*
X308882Y400432D02*
X318075Y391239D01*
X308882Y400432D02*
X318075Y400431D01*
Y391239D02*
Y400431D01*
X310367Y410684D02*
X382210Y338843D01*
X346288Y446606D02*
X418131Y374764D01*
X310367Y410684D02*
X346288Y446606D01*
X382210Y338843D02*
X418131Y374764D01*
X484692Y689168D02*
Y698167D01*
X492692D01*
X514692Y689168D02*
Y698167D01*
X506692D02*
X514692D01*
X444872Y689167D02*
Y698167D01*
X452872D01*
X474871Y689167D02*
Y698167D01*
X466871D02*
X474871D01*
X370402Y454365D02*
Y492365D01*
X394786Y454365D02*
Y492365D01*
X370402D02*
X394786D01*
X370402Y454365D02*
X394786D01*
X456521Y429292D02*
Y484292D01*
X511521Y429292D02*
Y484292D01*
X456521D02*
X511521D01*
X456521Y429292D02*
X511521Y429292D01*
X74604Y910201D02*
X79553Y905252D01*
X54097Y889696D02*
X74604Y910201D01*
X54097Y889696D02*
X63997Y879796D01*
X84503Y900302D01*
X79553Y905252D02*
X84503Y900302D01*
X515131Y262201D02*
Y271201D01*
X507131Y262201D02*
X515131D01*
X485131D02*
Y271201D01*
Y262201D02*
X493131D01*
X475360Y262202D02*
Y271201D01*
X467360Y262202D02*
X475360D01*
X445360D02*
Y271201D01*
Y262202D02*
X453360D01*
X149430Y868802D02*
X155794Y862438D01*
X149430Y868802D02*
X155086Y874459D01*
X170643Y890015D02*
X177007Y883651D01*
X164986Y884358D02*
X170643Y890015D01*
X782391Y883279D02*
X788755Y889643D01*
X794412Y883986D01*
X803604Y862066D02*
X809969Y868430D01*
X804312Y874087D02*
X809969Y868430D01*
X791083Y826096D02*
X809043Y844056D01*
X844894Y808206D01*
X826933Y790246D02*
X844894Y808206D01*
X791083Y826096D02*
X826933Y790246D01*
X881221Y904491D02*
X886171Y909440D01*
X906677Y888934D01*
X896777Y879035D02*
X906677Y888934D01*
X876271Y899541D02*
X896777Y879035D01*
X876271Y899541D02*
X881221Y904491D01*
X883649Y57052D02*
X888599Y52102D01*
X909105Y72608D01*
X899205Y82507D02*
X909105Y72608D01*
X878699Y62001D02*
X899205Y82507D01*
X878699Y62001D02*
X883649Y57052D01*
X791345Y133032D02*
X809306Y115071D01*
X791345Y133032D02*
X827196Y168882D01*
X845156Y150921D01*
X809306Y115071D02*
X845156Y150921D01*
X71237Y53761D02*
X76187Y58711D01*
X50731Y74267D02*
X71237Y53761D01*
X50731Y74267D02*
X60630Y84166D01*
X81136Y63660D01*
X76187Y58711D02*
X81136Y63660D01*
X151561Y115660D02*
X169521Y133620D01*
X115710Y151510D02*
X151561Y115660D01*
X115710Y151510D02*
X133671Y169471D01*
X169521Y133620D01*
X169024Y68449D02*
X175388Y74813D01*
X163367Y74106D02*
X169024Y68449D01*
X147811Y89662D02*
X154175Y96026D01*
X147811Y89662D02*
X153468Y84005D01*
X805222Y96858D02*
X811586Y90493D01*
X805929Y84837D02*
X811586Y90493D01*
X784008Y75644D02*
X790372Y69280D01*
X796030Y74937D01*
X418428Y629350D02*
X429035Y639957D01*
X418428Y629350D02*
X418428Y639957D01*
X429035D01*
X407999Y668347D02*
X425959Y650387D01*
X300236Y524663D02*
X425959Y650387D01*
X282275Y542624D02*
X407999Y668347D01*
X282275Y542624D02*
X300236Y524663D01*
X524604Y313742D02*
X535211Y324349D01*
X535211Y313742D01*
X524604D02*
X535211D01*
X527609Y303312D02*
X563530Y339233D01*
X527609Y303312D02*
X545570Y285351D01*
X581491Y321273D01*
X563530Y339233D02*
X581491Y321273D01*
X340204Y556549D02*
X358164Y538589D01*
X340204Y556549D02*
X412046Y628391D01*
X358164Y538589D02*
X430006Y610431D01*
X412046Y628391D02*
X430006Y610431D01*
X422476Y600001D02*
X433082Y600001D01*
X422476Y589394D02*
Y600001D01*
Y589394D02*
X433082Y600001D01*
X606050Y382391D02*
X612414Y388755D01*
X600394Y388048D02*
X606050Y382391D01*
X584837Y403605D02*
X591201Y409968D01*
X584837Y403605D02*
X590494Y397948D01*
X462113Y325395D02*
X469113D01*
X462113D02*
Y354395D01*
X476113D01*
Y325395D02*
Y354395D01*
X469113Y325395D02*
X476113D01*
X489340Y325535D02*
X496341D01*
Y354535D01*
X482340D02*
X496341D01*
X482340Y325535D02*
Y354535D01*
Y325535D02*
X489340D01*
X607877Y532207D02*
X610626D01*
Y534957D01*
X579787Y532207D02*
X582537D01*
X579787D02*
Y534957D01*
X607877Y564316D02*
X610626D01*
Y561567D02*
Y564316D01*
X579787Y562942D02*
X581161Y564316D01*
X582537D01*
X579787Y561567D02*
Y562942D01*
X396174Y324201D02*
Y333201D01*
X404175D01*
X426174Y324201D02*
Y333201D01*
X418174D02*
X426174D01*
X557966Y642155D02*
X556300Y643821D01*
X552967D01*
X551301Y642155D01*
Y635490D01*
X552967Y633824D01*
X556300D01*
X557966Y635490D01*
X567963Y633824D02*
X561298D01*
X567963Y640489D01*
Y642155D01*
X566297Y643821D01*
X562964D01*
X561298Y642155D01*
X634770Y514304D02*
X633104Y515970D01*
X629772D01*
X628106Y514304D01*
Y507640D01*
X629772Y505974D01*
X633104D01*
X634770Y507640D01*
X638103Y514304D02*
X639769Y515970D01*
X643101D01*
X644767Y514304D01*
Y512638D01*
X643101Y510972D01*
X641435D01*
X643101D01*
X644767Y509306D01*
Y507640D01*
X643101Y505974D01*
X639769D01*
X638103Y507640D01*
X557955Y620870D02*
X556288Y619204D01*
Y615872D01*
X557955Y614206D01*
X564619D01*
X566285Y615872D01*
Y619204D01*
X564619Y620870D01*
X566285Y629201D02*
X556288D01*
X561287Y624203D01*
Y630867D01*
X635143Y499457D02*
X633477Y501123D01*
X630145D01*
X628479Y499457D01*
Y492792D01*
X630145Y491126D01*
X633477D01*
X635143Y492792D01*
X645140Y501123D02*
X638475D01*
Y496125D01*
X641808Y497791D01*
X643474D01*
X645140Y496125D01*
Y492792D01*
X643474Y491126D01*
X640142D01*
X638475Y492792D01*
X536652Y510990D02*
X534986Y509324D01*
Y505992D01*
X536652Y504326D01*
X543316D01*
X544983Y505992D01*
Y509324D01*
X543316Y510990D01*
X534986Y520987D02*
X536652Y517655D01*
X539984Y514323D01*
X543316D01*
X544983Y515989D01*
Y519321D01*
X543316Y520987D01*
X541650D01*
X539984Y519321D01*
Y514323D01*
X551193Y510842D02*
X549527Y509176D01*
Y505844D01*
X551193Y504178D01*
X557858D01*
X559524Y505844D01*
Y509176D01*
X557858Y510842D01*
X549527Y514174D02*
Y520839D01*
X551193D01*
X557858Y514174D01*
X559524D01*
X573557Y620870D02*
X571890Y619204D01*
Y615872D01*
X573557Y614206D01*
X580221D01*
X581887Y615872D01*
Y619204D01*
X580221Y620870D01*
X573557Y624203D02*
X571890Y625869D01*
Y629201D01*
X573557Y630867D01*
X575223D01*
X576889Y629201D01*
X578555Y630867D01*
X580221D01*
X581887Y629201D01*
Y625869D01*
X580221Y624203D01*
X578555D01*
X576889Y625869D01*
X575223Y624203D01*
X573557D01*
X576889Y625869D02*
Y629201D01*
X612898Y450442D02*
X610541D01*
X608185Y448086D01*
Y445729D01*
X612898Y441017D01*
X615254D01*
X617610Y443373D01*
Y445729D01*
X619966Y448086D02*
X622323D01*
X624679Y450442D01*
Y452798D01*
X619966Y457511D01*
X617610Y457511D01*
X615254Y455154D01*
Y452798D01*
X616432Y451620D01*
X618788Y451620D01*
X622323Y455154D01*
X620869Y367626D02*
X618513D01*
X616157Y365269D01*
Y362913D01*
X620869Y358201D01*
X623226D01*
X625582Y360557D01*
Y362913D01*
X629116Y364091D02*
X631473Y366448D01*
X630294Y365269D01*
X623226Y372338D01*
Y369982D01*
X629116Y375873D02*
Y378229D01*
X631473Y380585D01*
X633829Y380585D01*
X638541Y375873D01*
X638541Y373516D01*
X636185Y371160D01*
X633829D01*
X629116Y375873D01*
X599902Y430256D02*
Y427900D01*
X602258Y425544D01*
X604615D01*
X609327Y430256D01*
Y432612D01*
X606971Y434968D01*
X604615D01*
X603437Y438503D02*
X601080Y440859D01*
X602258Y439681D01*
X595190Y432612D01*
X597546D01*
Y444394D02*
X595190Y446750D01*
X596368Y445572D01*
X589299Y438503D01*
X591655D01*
X551356Y384384D02*
X549000D01*
X546643Y382028D01*
Y379672D01*
X551356Y374959D01*
X553712D01*
X556068Y377315D01*
Y379672D01*
X559603Y380850D02*
X561959Y383206D01*
X560781Y382028D01*
X553712Y389096D01*
Y386740D01*
X563137Y398522D02*
X558425Y393809D01*
X561959Y390275D01*
X563137Y393809D01*
X564315Y394987D01*
X566671D01*
X569028Y392631D01*
X569028Y390275D01*
X566671Y387918D01*
X564315D01*
X134986Y899455D02*
Y889459D01*
X139984D01*
X141650Y891125D01*
Y897789D01*
X139984Y899455D01*
X134986D01*
X144983Y889459D02*
X148315D01*
X146649D01*
Y899455D01*
X144983Y897789D01*
X752412Y869084D02*
Y859087D01*
X757411D01*
X759077Y860753D01*
Y867418D01*
X757411Y869084D01*
X752412D01*
X769074Y859087D02*
X762409D01*
X769074Y865751D01*
Y867418D01*
X767408Y869084D01*
X764075D01*
X762409Y867418D01*
X757215Y105659D02*
Y95662D01*
X762213D01*
X763879Y97328D01*
Y103993D01*
X762213Y105659D01*
X757215D01*
X767212Y103993D02*
X768878Y105659D01*
X772210D01*
X773876Y103993D01*
Y102327D01*
X772210Y100661D01*
X770544D01*
X772210D01*
X773876Y98995D01*
Y97328D01*
X772210Y95662D01*
X768878D01*
X767212Y97328D01*
X188367Y105002D02*
Y95005D01*
X193366D01*
X195032Y96672D01*
Y103336D01*
X193366Y105002D01*
X188367D01*
X203363Y95005D02*
Y105002D01*
X198364Y100004D01*
X205029D01*
X483334Y357645D02*
X493330D01*
Y362644D01*
X491664Y364310D01*
X485000D01*
X483334Y362644D01*
Y357645D01*
X493330Y367642D02*
Y370975D01*
Y369308D01*
X483334D01*
X485000Y367642D01*
Y375973D02*
X483334Y377639D01*
Y380971D01*
X485000Y382637D01*
X491664D01*
X493330Y380971D01*
Y377639D01*
X491664Y375973D01*
X485000D01*
X463401Y357358D02*
X473397D01*
Y362357D01*
X471731Y364023D01*
X465067D01*
X463401Y362357D01*
Y357358D01*
X473397Y367355D02*
Y370687D01*
Y369021D01*
X463401D01*
X465067Y367355D01*
X473397Y375686D02*
Y379018D01*
Y377352D01*
X463401D01*
X465067Y375686D01*
X381174Y311346D02*
X391170D01*
Y316344D01*
X389504Y318010D01*
X382840D01*
X381174Y316344D01*
Y311346D01*
X391170Y321343D02*
Y324675D01*
Y323009D01*
X381174D01*
X382840Y321343D01*
X391170Y336338D02*
Y329673D01*
X384506Y336338D01*
X382840D01*
X381174Y334672D01*
Y331339D01*
X382840Y329673D01*
X38569Y880061D02*
Y870064D01*
X43568D01*
X45234Y871730D01*
Y878395D01*
X43568Y880061D01*
X38569D01*
X55231Y870064D02*
X48566D01*
X55231Y876728D01*
Y878395D01*
X53565Y880061D01*
X50232D01*
X48566Y878395D01*
X58563Y870064D02*
X61895D01*
X60229D01*
Y880061D01*
X58563Y878395D01*
X893529Y875776D02*
Y865779D01*
X898528D01*
X900194Y867445D01*
Y874109D01*
X898528Y875776D01*
X893529D01*
X910191Y865779D02*
X903526D01*
X910191Y872443D01*
Y874109D01*
X908524Y875776D01*
X905192D01*
X903526Y874109D01*
X920187Y865779D02*
X913523D01*
X920187Y872443D01*
Y874109D01*
X918521Y875776D01*
X915189D01*
X913523Y874109D01*
X897991Y96603D02*
Y86607D01*
X902989D01*
X904655Y88273D01*
Y94937D01*
X902989Y96603D01*
X897991D01*
X914652Y86607D02*
X907987D01*
X914652Y93271D01*
Y94937D01*
X912986Y96603D01*
X909653D01*
X907987Y94937D01*
X917984D02*
X919650Y96603D01*
X922982D01*
X924649Y94937D01*
Y93271D01*
X922982Y91605D01*
X921316D01*
X922982D01*
X924649Y89939D01*
Y88273D01*
X922982Y86607D01*
X919650D01*
X917984Y88273D01*
X38482Y95991D02*
Y85994D01*
X43480D01*
X45146Y87660D01*
Y94325D01*
X43480Y95991D01*
X38482D01*
X55143Y85994D02*
X48478D01*
X55143Y92659D01*
Y94325D01*
X53477Y95991D01*
X50145D01*
X48478Y94325D01*
X63474Y85994D02*
Y95991D01*
X58475Y90992D01*
X65140D01*
X298145Y421556D02*
X300501Y423912D01*
X299323Y422734D01*
X306392Y415665D01*
X305214Y414487D01*
X307570Y416843D01*
X309926Y430981D02*
X307570Y430981D01*
X305214Y428625D01*
Y426268D01*
X309926Y421556D01*
X312282D01*
X314639Y423912D01*
X314639Y426268D01*
X312282Y433337D02*
Y435694D01*
X314639Y438050D01*
X316995Y438050D01*
X318173Y436871D01*
Y434515D01*
X316995Y433337D01*
X318173Y434515D01*
X320529Y434515D01*
X321707Y433337D01*
X321707Y430981D01*
X319351Y428625D01*
X316995D01*
X111946Y798516D02*
X108613D01*
X110280D01*
Y790185D01*
X108613Y788519D01*
X106947D01*
X105281Y790185D01*
X115278Y788519D02*
X118610D01*
X116944D01*
Y798516D01*
X115278Y796850D01*
X847598Y800203D02*
X844265D01*
X845931D01*
Y791872D01*
X844265Y790206D01*
X842599D01*
X840933Y791872D01*
X857594Y790206D02*
X850930D01*
X857594Y796871D01*
Y798537D01*
X855928Y800203D01*
X852596D01*
X850930Y798537D01*
X849809Y168467D02*
X846476D01*
X848142D01*
Y160137D01*
X846476Y158471D01*
X844810D01*
X843144Y160137D01*
X853141Y166801D02*
X854807Y168467D01*
X858139D01*
X859805Y166801D01*
Y165135D01*
X858139Y163469D01*
X856473D01*
X858139D01*
X859805Y161803D01*
Y160137D01*
X858139Y158471D01*
X854807D01*
X853141Y160137D01*
X107336Y169507D02*
X104003D01*
X105670D01*
Y161176D01*
X104003Y159510D01*
X102337D01*
X100671Y161176D01*
X115666Y159510D02*
Y169507D01*
X110668Y164509D01*
X117332D01*
X533588Y275084D02*
X526519Y282153D01*
X530053Y285687D01*
X532410D01*
X534766Y283331D01*
Y280975D01*
X531231Y277440D01*
X540657Y282153D02*
X543013Y284509D01*
X541835Y283331D01*
X534766Y290400D01*
Y288044D01*
X343307Y525517D02*
X336238Y532585D01*
X339773Y536120D01*
X342129D01*
X344485Y533764D01*
Y531407D01*
X340951Y527873D01*
X355089Y537298D02*
X350376Y532585D01*
Y542010D01*
X349198Y543189D01*
X346842Y543189D01*
X344485Y540832D01*
Y538476D01*
X418331Y663151D02*
X411262Y670220D01*
X414797Y673754D01*
X417153D01*
X419509Y671398D01*
Y669042D01*
X415975Y665507D01*
X419509Y676110D02*
Y678467D01*
X421865Y680823D01*
X424222Y680823D01*
X425400Y679645D01*
Y677289D01*
X424222Y676110D01*
X425400Y677289D01*
X427756Y677288D01*
X428934Y676110D01*
Y673754D01*
X426578Y671398D01*
X424222D01*
X431218Y701067D02*
Y707732D01*
X429552Y709398D01*
X426220D01*
X424554Y707732D01*
Y701067D01*
X426220Y699401D01*
X429552D01*
X427886Y702734D02*
X431218Y699401D01*
X429552D02*
X431218Y701067D01*
X434550Y699401D02*
X437883D01*
X436217D01*
Y709398D01*
X434550Y707732D01*
X528249Y701067D02*
Y707732D01*
X526582Y709398D01*
X523250D01*
X521584Y707732D01*
Y701067D01*
X523250Y699401D01*
X526582D01*
X524916Y702734D02*
X528249Y699401D01*
X526582D02*
X528249Y701067D01*
X538245Y699401D02*
X531581D01*
X538245Y706066D01*
Y707732D01*
X536579Y709398D01*
X533247D01*
X531581Y707732D01*
X528249Y252301D02*
Y258966D01*
X526582Y260632D01*
X523250D01*
X521584Y258966D01*
Y252301D01*
X523250Y250635D01*
X526582D01*
X524916Y253967D02*
X528249Y250635D01*
X526582D02*
X528249Y252301D01*
X531581Y258966D02*
X533247Y260632D01*
X536579D01*
X538245Y258966D01*
Y257299D01*
X536579Y255633D01*
X534913D01*
X536579D01*
X538245Y253967D01*
Y252301D01*
X536579Y250635D01*
X533247D01*
X531581Y252301D01*
X428645Y251933D02*
Y258598D01*
X426979Y260264D01*
X423647D01*
X421981Y258598D01*
Y251933D01*
X423647Y250267D01*
X426979D01*
X425313Y253600D02*
X428645Y250267D01*
X426979D02*
X428645Y251933D01*
X436976Y250267D02*
Y260264D01*
X431978Y255266D01*
X438642D01*
X268353Y498714D02*
Y508711D01*
X273351D01*
X275018Y507045D01*
Y503713D01*
X273351Y502046D01*
X268353D01*
X271685D02*
X275018Y498714D01*
X278350Y500380D02*
X280016Y498714D01*
X283348D01*
X285014Y500380D01*
Y507045D01*
X283348Y508711D01*
X280016D01*
X278350Y507045D01*
Y505379D01*
X280016Y503713D01*
X285014D01*
X663766Y496247D02*
Y506243D01*
X668765D01*
X670431Y504577D01*
Y501245D01*
X668765Y499579D01*
X663766D01*
X667099D02*
X670431Y496247D01*
X673763D02*
X677095D01*
X675429D01*
Y506243D01*
X673763Y504577D01*
X682094D02*
X683760Y506243D01*
X687092D01*
X688758Y504577D01*
Y497913D01*
X687092Y496247D01*
X683760D01*
X682094Y497913D01*
Y504577D01*
X664148Y454111D02*
Y464108D01*
X669146D01*
X670813Y462442D01*
Y459109D01*
X669146Y457443D01*
X664148D01*
X667480D02*
X670813Y454111D01*
X674145D02*
X677477D01*
X675811D01*
Y464108D01*
X674145Y462442D01*
X682476Y454111D02*
X685808D01*
X684142D01*
Y464108D01*
X682476Y462442D01*
X268583Y456709D02*
Y466706D01*
X273581D01*
X275247Y465040D01*
Y461708D01*
X273581Y460041D01*
X268583D01*
X271915D02*
X275247Y456709D01*
X278580D02*
X281912D01*
X280246D01*
Y466706D01*
X278580Y465040D01*
X293575Y456709D02*
X286910D01*
X293575Y463374D01*
Y465040D01*
X291909Y466706D01*
X288576D01*
X286910Y465040D01*
X445023Y641084D02*
Y651081D01*
X450022D01*
X451688Y649415D01*
Y646083D01*
X450022Y644417D01*
X445023D01*
X448356D02*
X451688Y641084D01*
X455020D02*
X458352D01*
X456686D01*
Y651081D01*
X455020Y649415D01*
X463351D02*
X465017Y651081D01*
X468349D01*
X470015Y649415D01*
Y647749D01*
X468349Y646083D01*
X466683D01*
X468349D01*
X470015Y644417D01*
Y642750D01*
X468349Y641084D01*
X465017D01*
X463351Y642750D01*
X485187Y641239D02*
Y651236D01*
X490185D01*
X491851Y649569D01*
Y646237D01*
X490185Y644571D01*
X485187D01*
X488519D02*
X491851Y641239D01*
X495183D02*
X498516D01*
X496850D01*
Y651236D01*
X495183Y649569D01*
X508512Y641239D02*
Y651236D01*
X503514Y646237D01*
X510178D01*
X483801Y309420D02*
Y319417D01*
X488800D01*
X490466Y317751D01*
Y314419D01*
X488800Y312752D01*
X483801D01*
X487133D02*
X490466Y309420D01*
X493798D02*
X497130D01*
X495464D01*
Y319417D01*
X493798Y317751D01*
X508793Y319417D02*
X502129D01*
Y314419D01*
X505461Y316085D01*
X507127D01*
X508793Y314419D01*
Y311086D01*
X507127Y309420D01*
X503795D01*
X502129Y311086D01*
X443823Y309278D02*
Y319275D01*
X448822D01*
X450488Y317609D01*
Y314277D01*
X448822Y312610D01*
X443823D01*
X447156D02*
X450488Y309278D01*
X453820D02*
X457152D01*
X455486D01*
Y319275D01*
X453820Y317609D01*
X468815Y319275D02*
X465483Y317609D01*
X462151Y314277D01*
Y310944D01*
X463817Y309278D01*
X467149D01*
X468815Y310944D01*
Y312610D01*
X467149Y314277D01*
X462151D01*
X476440Y611061D02*
Y621058D01*
X481438D01*
X483104Y619392D01*
Y616059D01*
X481438Y614393D01*
X476440D01*
X479772D02*
X483104Y611061D01*
X486436D02*
X489769D01*
X488103D01*
Y621058D01*
X486436Y619392D01*
X494767Y621058D02*
X501432D01*
Y619392D01*
X494767Y612727D01*
Y611061D01*
X476545Y624290D02*
Y634287D01*
X481543D01*
X483209Y632621D01*
Y629289D01*
X481543Y627623D01*
X476545D01*
X479877D02*
X483209Y624290D01*
X486541D02*
X489874D01*
X488208D01*
Y634287D01*
X486541Y632621D01*
X494872D02*
X496538Y634287D01*
X499870D01*
X501537Y632621D01*
Y630955D01*
X499870Y629289D01*
X501537Y627623D01*
Y625956D01*
X499870Y624290D01*
X496538D01*
X494872Y625956D01*
Y627623D01*
X496538Y629289D01*
X494872Y630955D01*
Y632621D01*
X496538Y629289D02*
X499870D01*
X420527Y569190D02*
Y579187D01*
X425525D01*
X427191Y577520D01*
Y574188D01*
X425525Y572522D01*
X420527D01*
X423859D02*
X427191Y569190D01*
X430523D02*
X433856D01*
X432189D01*
Y579187D01*
X430523Y577520D01*
X438854Y570856D02*
X440520Y569190D01*
X443852D01*
X445518Y570856D01*
Y577520D01*
X443852Y579187D01*
X440520D01*
X438854Y577520D01*
Y575854D01*
X440520Y574188D01*
X445518D01*
X418563Y581436D02*
Y591433D01*
X423561D01*
X425227Y589767D01*
Y586434D01*
X423561Y584768D01*
X418563D01*
X421895D02*
X425227Y581436D01*
X435224D02*
X428559D01*
X435224Y588100D01*
Y589767D01*
X433558Y591433D01*
X430225D01*
X428559Y589767D01*
X438556D02*
X440222Y591433D01*
X443554D01*
X445221Y589767D01*
Y583102D01*
X443554Y581436D01*
X440222D01*
X438556Y583102D01*
Y589767D01*
X512531Y360051D02*
X502534D01*
Y365049D01*
X504201Y366715D01*
X507533D01*
X509199Y365049D01*
Y360051D01*
Y363383D02*
X512531Y366715D01*
Y376712D02*
Y370048D01*
X505867Y376712D01*
X504201D01*
X502534Y375046D01*
Y371714D01*
X504201Y370048D01*
X512531Y380045D02*
Y383377D01*
Y381711D01*
X502534D01*
X504201Y380045D01*
X455091Y360423D02*
X445095D01*
Y365421D01*
X446761Y367087D01*
X450093D01*
X451759Y365421D01*
Y360423D01*
Y363755D02*
X455091Y367087D01*
Y377084D02*
Y370420D01*
X448427Y377084D01*
X446761D01*
X445095Y375418D01*
Y372086D01*
X446761Y370420D01*
X455091Y387081D02*
Y380416D01*
X448427Y387081D01*
X446761D01*
X445095Y385415D01*
Y382082D01*
X446761Y380416D01*
X529699Y494384D02*
X519703D01*
Y499383D01*
X521369Y501049D01*
X524701D01*
X526367Y499383D01*
Y494384D01*
Y497717D02*
X529699Y501049D01*
Y511046D02*
Y504381D01*
X523035Y511046D01*
X521369D01*
X519703Y509380D01*
Y506047D01*
X521369Y504381D01*
X519703Y521043D02*
Y514378D01*
X524701D01*
X523035Y517710D01*
Y519376D01*
X524701Y521043D01*
X528033D01*
X529699Y519376D01*
Y516044D01*
X528033Y514378D01*
X501718Y524348D02*
X491722D01*
Y529346D01*
X493388Y531012D01*
X496720D01*
X498386Y529346D01*
Y524348D01*
Y527680D02*
X501718Y531012D01*
Y541009D02*
Y534345D01*
X495054Y541009D01*
X493388D01*
X491722Y539343D01*
Y536011D01*
X493388Y534345D01*
X491722Y551006D02*
X493388Y547674D01*
X496720Y544341D01*
X500052D01*
X501718Y546008D01*
Y549340D01*
X500052Y551006D01*
X498386D01*
X496720Y549340D01*
Y544341D01*
X529825Y359940D02*
X519828D01*
Y364939D01*
X521494Y366605D01*
X524827D01*
X526493Y364939D01*
Y359940D01*
Y363272D02*
X529825Y366605D01*
Y376601D02*
Y369937D01*
X523161Y376601D01*
X521494D01*
X519828Y374935D01*
Y371603D01*
X521494Y369937D01*
X519828Y379934D02*
Y386598D01*
X521494D01*
X528159Y379934D01*
X529825D01*
X405207Y550472D02*
Y560469D01*
X410206D01*
X411872Y558803D01*
Y555470D01*
X410206Y553804D01*
X405207D01*
X408539D02*
X411872Y550472D01*
X421869D02*
X415204D01*
X421869Y557136D01*
Y558803D01*
X420202Y560469D01*
X416870D01*
X415204Y558803D01*
X425201D02*
X426867Y560469D01*
X430199D01*
X431865Y558803D01*
Y557136D01*
X430199Y555470D01*
X431865Y553804D01*
Y552138D01*
X430199Y550472D01*
X426867D01*
X425201Y552138D01*
Y553804D01*
X426867Y555470D01*
X425201Y557136D01*
Y558803D01*
X426867Y555470D02*
X430199D01*
X330779Y480377D02*
Y490374D01*
X335778D01*
X337444Y488708D01*
Y485375D01*
X335778Y483709D01*
X330779D01*
X334112D02*
X337444Y480377D01*
X347441D02*
X340776D01*
X347441Y487041D01*
Y488708D01*
X345774Y490374D01*
X342442D01*
X340776Y488708D01*
X350773Y482043D02*
X352439Y480377D01*
X355771D01*
X357437Y482043D01*
Y488708D01*
X355771Y490374D01*
X352439D01*
X350773Y488708D01*
Y487041D01*
X352439Y485375D01*
X357437D01*
X538994Y627233D02*
Y618903D01*
X540660Y617237D01*
X543993D01*
X545659Y618903D01*
Y627233D01*
X548991Y617237D02*
X552323D01*
X550657D01*
Y627233D01*
X548991Y625567D01*
X608154Y578245D02*
Y569914D01*
X609821Y568248D01*
X613153D01*
X614819Y569914D01*
Y578245D01*
X624816Y568248D02*
X618151D01*
X624816Y574912D01*
Y576578D01*
X623150Y578245D01*
X619817D01*
X618151Y576578D01*
X576112Y412305D02*
X582003Y406414D01*
X584359D01*
X586715Y408771D01*
Y411127D01*
X580825Y417018D01*
X584359Y418196D02*
Y420552D01*
X586715Y422908D01*
X589072Y422908D01*
X590250Y421730D01*
Y419374D01*
X589072Y418196D01*
X590250Y419374D01*
X592606Y419374D01*
X593784Y418196D01*
Y415839D01*
X591428Y413483D01*
X589072D01*
X434021Y506789D02*
Y498458D01*
X435687Y496792D01*
X439019D01*
X440685Y498458D01*
Y506789D01*
X450682D02*
X444018D01*
Y501791D01*
X447350Y503457D01*
X449016D01*
X450682Y501791D01*
Y498458D01*
X449016Y496792D01*
X445684D01*
X444018Y498458D01*
X382961Y506149D02*
Y504483D01*
X386293Y501151D01*
X389626Y504483D01*
Y506149D01*
X386293Y501151D02*
Y496152D01*
X392958D02*
X396290D01*
X394624D01*
Y506149D01*
X392958Y504483D01*
X309845Y459407D02*
X308179Y461073D01*
X304847D01*
X303181Y459407D01*
Y452742D01*
X304847Y451076D01*
X308179D01*
X309845Y452742D01*
X313178Y451076D02*
X316510D01*
X314844D01*
Y461073D01*
X313178Y459407D01*
X328173Y461073D02*
X324840Y459407D01*
X321508Y456075D01*
Y452742D01*
X323174Y451076D01*
X326507D01*
X328173Y452742D01*
Y454408D01*
X326507Y456075D01*
X321508D01*
D48*
X444771Y491292D02*
G03*
X444771Y491292I-1250J0D01*
G01*
D49*
X469521Y474292D02*
G03*
X469521Y474292I-3000J0D01*
G01*
D50*
X120088Y805024D02*
X121856Y806792D01*
X120088D02*
X121856Y805024D01*
X83265Y896944D02*
X85033Y895176D01*
X83265Y895176D02*
X85033Y896943D01*
X828347Y797246D02*
X830115Y795478D01*
X828347D02*
X830115Y797246D01*
X889529Y909970D02*
X891297Y908203D01*
X889529Y908203D02*
X891297Y909970D01*
X878169Y67128D02*
X879937Y65360D01*
X878169D02*
X879937Y67128D01*
X838156Y152336D02*
X839924Y154103D01*
X838156D02*
X839924Y152336D01*
X66111Y54998D02*
X67879Y53230D01*
X66111D02*
X67879Y54998D01*
X130489Y164238D02*
X132257Y162470D01*
X130489Y162470D02*
X132257Y164238D01*
X459363Y327395D02*
Y329895D01*
X458113Y328645D02*
X460614D01*
X478340Y328785D02*
X480840D01*
X479590Y327535D02*
Y330035D01*
X616213Y437690D02*
X617980Y435922D01*
X616212Y435923D02*
X617980Y437690D01*
X556995Y371997D02*
X558762Y373765D01*
X556995D02*
X558762Y371997D01*
D51*
X517271Y632296D02*
Y644796D01*
X549271Y632296D02*
Y644796D01*
X538521Y632296D02*
X549271D01*
X538521Y644796D02*
X549271D01*
X517271Y632296D02*
X528021Y632296D01*
X517271Y644796D02*
X528021D01*
X442614Y634504D02*
X453363D01*
X442614Y622004D02*
X453363D01*
X463864Y634504D02*
X474614D01*
X463864Y622004D02*
X474614D01*
Y634504D01*
X442614Y622004D02*
Y634504D01*
X442734Y619314D02*
X453484D01*
X442734Y606814D02*
X453484D01*
X463984Y619314D02*
X474734D01*
X463984Y606814D02*
X474734D01*
Y619314D01*
X442734Y606814D02*
Y619314D01*
X351802Y465674D02*
X362552D01*
X351802Y478173D02*
X362552D01*
X330552Y465674D02*
X341302D01*
X330552Y478173D02*
X341302D01*
X330552Y465674D02*
Y478173D01*
X362552Y465674D02*
Y478173D01*
X444591Y665753D02*
X455341D01*
X444591Y653253D02*
X455341D01*
X465841Y665753D02*
X476591D01*
X465841Y653253D02*
X476591D01*
Y665753D01*
X444591Y653253D02*
Y665753D01*
X484651D02*
X495401D01*
X484651Y653253D02*
X495401D01*
X505902Y665753D02*
X516651D01*
X505902Y653253D02*
X516651D01*
Y665753D01*
X484651Y653253D02*
Y665753D01*
X434476Y561648D02*
X445227D01*
X434476Y549148D02*
X445227Y549148D01*
X455727Y561648D02*
X466476D01*
X455727Y549148D02*
X466476D01*
Y561648D01*
X434476Y549148D02*
Y561648D01*
X464667Y294445D02*
X475417D01*
X464667Y306945D02*
X475417D01*
X443417Y294445D02*
X454167D01*
X443417Y306945D02*
X454167D01*
X443417Y294445D02*
Y306945D01*
X475417Y294445D02*
Y306945D01*
X684777Y481666D02*
X695527D01*
X684777Y494166D02*
X695527D01*
X663527Y481666D02*
X674277D01*
X663528Y494166D02*
X674277D01*
X663527Y481666D02*
X663528Y494166D01*
X695527Y481666D02*
Y494166D01*
X268062Y496592D02*
X278812D01*
X268062Y484093D02*
X278811Y484092D01*
X289312Y496593D02*
X300062Y496592D01*
X289312Y484092D02*
X300062Y484093D01*
X300062Y496592D01*
X268062D02*
X268062Y484093D01*
X684862Y466349D02*
X695612D01*
X684862Y478849D02*
X695613D01*
X663613Y466349D02*
X674363Y466349D01*
X663612Y478849D02*
X674363D01*
X663612D02*
X663613Y466349D01*
X695612D02*
X695613Y478849D01*
X268178Y481418D02*
X278928D01*
X268178Y468919D02*
X278928Y468919D01*
X289428Y481418D02*
X300178Y481419D01*
X289428Y468919D02*
X300178D01*
Y481419D01*
X268178Y468919D02*
Y481418D01*
X504370Y294526D02*
X515119D01*
X504370Y307026D02*
X515119D01*
X483119Y294526D02*
X493870D01*
X483119Y307026D02*
X493870D01*
X483119Y294526D02*
Y307026D01*
X515119Y294526D02*
Y307026D01*
X457163Y346476D02*
Y357226D01*
X444663Y346476D02*
Y357226D01*
X457163Y325226D02*
Y335976D01*
X444663Y325226D02*
Y335976D01*
Y325226D02*
X457163D01*
X444663Y357226D02*
X457163D01*
X514443Y346476D02*
Y357225D01*
X501943Y346476D02*
Y357225D01*
X514443Y325225D02*
Y335975D01*
X501943Y325225D02*
Y335975D01*
Y325225D02*
X514443D01*
X501943Y357225D02*
X514443D01*
X533991Y555388D02*
X546491Y555388D01*
X533991Y523388D02*
X546491D01*
X533991D02*
Y534138D01*
X546491Y523388D02*
X546491Y534138D01*
X533991Y544637D02*
Y555388D01*
X546491Y544637D02*
Y555388D01*
X548225Y555395D02*
X560726D01*
X548225Y523395D02*
X560726D01*
X548225Y534144D02*
X548225Y523395D01*
X560726D02*
Y534144D01*
X548225Y544645D02*
Y555395D01*
X560726Y544645D02*
Y555395D01*
X555476Y580032D02*
X567976D01*
X555476Y612032D02*
X567976D01*
Y601282D02*
Y612032D01*
X555476Y601282D02*
Y612032D01*
X567976Y580032D02*
Y590782D01*
X555476Y580032D02*
Y590782D01*
X570996Y579953D02*
X583497D01*
X570996Y611953D02*
X583497D01*
Y601203D02*
Y611953D01*
X570996Y601203D02*
Y611953D01*
X583497Y579953D02*
Y590703D01*
X570996Y579953D02*
Y590703D01*
X626299Y489276D02*
Y501776D01*
X594300Y489276D02*
Y501776D01*
X605049Y501776D01*
X594300Y489276D02*
X605049D01*
X615549Y501776D02*
X626299D01*
X615549Y489276D02*
X626299D01*
X625966Y504597D02*
Y517097D01*
X593966Y504597D02*
Y517096D01*
X604717Y517097D01*
X593966Y504597D02*
X604717D01*
X615217Y517097D02*
X625966D01*
X615217Y504597D02*
X625966D01*
X627349Y450241D02*
X630885D01*
X662705Y418422D01*
X653335Y409053D02*
X662705Y418422D01*
X646087Y401805D02*
X653335Y409053D01*
X614268Y433625D02*
X646087Y401805D01*
X614268Y433625D02*
Y437160D01*
X627349Y450241D01*
X627265Y399946D02*
X636103Y408784D01*
X604637Y422573D02*
X613476Y431412D01*
X621077Y423810D01*
X604637Y422573D02*
X612238Y414971D01*
X628502Y416385D02*
X636103Y408784D01*
X619663Y407547D02*
X627265Y399946D01*
X626547Y396413D02*
X635385Y387574D01*
X603919Y373786D02*
X612758Y364947D01*
X603919Y373786D02*
X611520Y381387D01*
X612758Y364947D02*
X620359Y372548D01*
X618945Y388812D02*
X626547Y396413D01*
X627784Y379973D02*
X635385Y387574D01*
X597477Y349193D02*
X608967Y360683D01*
X577677Y391973D02*
X608967Y360683D01*
X573788Y391973D02*
X577677D01*
X554696Y372881D02*
X573788Y391973D01*
X554696Y368992D02*
Y372881D01*
Y368992D02*
X585986Y337702D01*
X597477Y349193D01*
X447277Y595593D02*
X458027D01*
X447277Y583093D02*
X458027D01*
X468527Y595593D02*
X479277D01*
X468527Y583093D02*
X479277D01*
Y595593D01*
X447277Y583093D02*
Y595593D01*
X447419Y581130D02*
X458169D01*
X447419Y568629D02*
X458169Y568629D01*
X468669Y581130D02*
X479418Y581130D01*
X468669Y568629D02*
X479418D01*
Y581130D01*
X447419Y568629D02*
Y581130D01*
X531691Y357155D02*
X531691Y346405D01*
X519190D02*
Y357155D01*
X531691Y325155D02*
Y335905D01*
X519190Y325155D02*
Y335905D01*
Y325155D02*
X531691D01*
X519190Y357155D02*
X531691D01*
X530730Y544663D02*
Y555412D01*
X518230Y544663D02*
Y555412D01*
X530730Y523413D02*
Y534163D01*
X518230Y523413D02*
Y534163D01*
Y523413D02*
X530730D01*
X518230Y555412D02*
X530730D01*
X503905Y523428D02*
Y534178D01*
X516405Y523428D02*
Y534178D01*
X503905Y544678D02*
Y555428D01*
X516405Y544678D02*
Y555428D01*
X503905D02*
X516405D01*
X503905Y523428D02*
X516405Y523428D01*
X362407Y451191D02*
Y463690D01*
X330407Y451191D02*
Y463690D01*
X341157D01*
X330407Y451191D02*
X341157D01*
X351657Y463690D02*
X362407D01*
X351657Y451191D02*
X362407D01*
D52*
X68416Y897650D02*
X71952Y894115D01*
X68416Y894115D02*
Y897650D01*
Y894115D02*
X71952Y894115D01*
X892358Y896889D02*
X892358Y893354D01*
X888822D02*
X892358D01*
X888822D02*
X892358Y896889D01*
X891251Y68189D02*
X894786Y64653D01*
Y68189D01*
X891251D02*
X894786D01*
X65050Y66312D02*
Y69848D01*
X68585D01*
X68586D01*
X65050Y66312D02*
X68586Y69848D01*
X466613Y338645D02*
X469113Y341145D01*
X471613Y338645D01*
X466613D02*
X471613D01*
X486841Y338785D02*
X491840D01*
X489340Y341285D02*
X491840Y338785D01*
X486841D02*
X489340Y341285D01*
M02*
