M48
;Layer_Color=9474304
;FILE_FORMAT=4:4
METRIC,LZ
;TYPE=PLATED
T1F00S00C0.3500
T2F00S00C0.5000
T3F00S00C0.9000
%
T01
X00442125Y00285693
X0051713Y00304553
X0051135Y00316527
X00521257Y00376189
X00539257Y00391189
X00543696Y004013
X00554991Y00398608
X00594257Y00377189
X00602256Y00427853
X00598226Y00451112
X00598331Y00462282
X00606837Y00457133
X0062992Y00454581
X00634687Y00462969
X00634597Y00473509
X0065048Y0047391
X00671112Y00459871
X0066306Y00448653
X00669988Y00440593
X00670345Y00502084
X00667659Y00515825
X00673969Y00531655
X00650678Y0054915
X00630257Y00549189
X00627604Y00565317
X00592787Y00579047
X0057932Y00575132
X00573257Y00567189
X00543622Y00570305
X00494713Y00571571
X00500098Y00559726
X00488616Y0055767
X00498003Y00546699
X00459257Y00541189
X00454322Y00522021
X00462073Y0051427
X00469555Y00525517
X00524385Y00521812
X00563926Y0052045
X00568648Y0049862
X00579058Y00501508
X00555368Y00501991
X00540609Y00494396
X00547345Y00487584
X00500423Y00473759
X00481719Y00440689
X00479865Y00386814
X00492587Y0038064
X0047629Y00359045
X004662Y00363513
X00483257Y00617189
X00482257Y00631189
X0044513Y0064661
X00517747Y00595138
X00435413Y00588393
X00422782Y00564997
X00398496Y00541839
X00380427Y00541022
X0037552Y00550428
X00373782Y00532842
X00379864Y00505531
X0038699Y00494309
X00415016Y00481727
X00409215Y00514279
X00332802Y00515835
X00328655Y0050098
X00325258Y00487189
Y00531189
X0032182Y00438757
X00311258Y00445494
X00383Y00429918
X00398301Y00441628
X0041049Y00408415
X00421025Y00411393
X00438899Y00355781
X00431996Y00348607
X00439375Y00326304
X00411667Y00304451
X00427599Y00635048
X00436098Y00659704
T02
X00105017Y00050721
X00853315Y00051791
X0054673Y00351101
X00106234Y00911229
X00848956Y00909551
T03
X00151632Y00133549
X00133671Y0015151
X00809235Y00132961
X00827196Y00150921
X0056353Y00321273
X0054557Y00303312
X0038221Y00356803
X0040017Y00374764
X0038221Y00392724
X00364249Y00410684
Y00374764
X00346288Y00392724
X00328328Y00410684
X00346288Y00428645
X00358164Y00556549
X00376125Y00574509
X00394085Y0059247
X00412046Y00610431
X00372077Y00614465
X00354117Y00596505
X00336156Y00578545
X00318196Y00560584
X00300236Y00542624
X00390038Y00632426
X00407999Y00650387
X00132816Y00808206
X00150776Y00826167
X00808972
X00826933Y00808206
M30
