G04 Layer_Physical_Order=1*
G04 Layer_Color=255*
%FSLAX44Y44*%
%MOMM*%
G71*
G01*
G75*
%ADD10R,1.0000X0.8000*%
%ADD11R,0.9500X0.3000*%
%ADD12R,0.3000X0.9500*%
%ADD13R,0.8000X0.9000*%
%ADD14R,0.8000X1.0000*%
%ADD15R,2.1000X0.5000*%
%ADD16O,1.8000X0.3000*%
%ADD17O,0.3000X1.8000*%
%ADD18P,1.1314X4X270.0*%
G04:AMPARAMS|DCode=19|XSize=0.8mm|YSize=0.9mm|CornerRadius=0mm|HoleSize=0mm|Usage=FLASHONLY|Rotation=225.000|XOffset=0mm|YOffset=0mm|HoleType=Round|Shape=Rectangle|*
%AMROTATEDRECTD19*
4,1,4,-0.0354,0.6010,0.6010,-0.0354,0.0354,-0.6010,-0.6010,0.0354,-0.0354,0.6010,0.0*
%
%ADD19ROTATEDRECTD19*%

G04:AMPARAMS|DCode=20|XSize=0.8mm|YSize=1mm|CornerRadius=0mm|HoleSize=0mm|Usage=FLASHONLY|Rotation=225.000|XOffset=0mm|YOffset=0mm|HoleType=Round|Shape=Rectangle|*
%AMROTATEDRECTD20*
4,1,4,-0.0707,0.6364,0.6364,-0.0707,0.0707,-0.6364,-0.6364,0.0707,-0.0707,0.6364,0.0*
%
%ADD20ROTATEDRECTD20*%

G04:AMPARAMS|DCode=21|XSize=0.8mm|YSize=0.9mm|CornerRadius=0mm|HoleSize=0mm|Usage=FLASHONLY|Rotation=135.000|XOffset=0mm|YOffset=0mm|HoleType=Round|Shape=Rectangle|*
%AMROTATEDRECTD21*
4,1,4,0.6010,0.0354,-0.0354,-0.6010,-0.6010,-0.0354,0.0354,0.6010,0.6010,0.0354,0.0*
%
%ADD21ROTATEDRECTD21*%

G04:AMPARAMS|DCode=22|XSize=0.8mm|YSize=1mm|CornerRadius=0mm|HoleSize=0mm|Usage=FLASHONLY|Rotation=135.000|XOffset=0mm|YOffset=0mm|HoleType=Round|Shape=Rectangle|*
%AMROTATEDRECTD22*
4,1,4,0.6364,0.0707,-0.0707,-0.6364,-0.6364,-0.0707,0.0707,0.6364,0.6364,0.0707,0.0*
%
%ADD22ROTATEDRECTD22*%

%ADD23P,1.1314X4X360.0*%
%ADD24R,0.8000X0.8000*%
%ADD25R,0.8000X1.0000*%
%ADD26R,0.3000X1.0000*%
%ADD27R,1.0000X0.3000*%
G04:AMPARAMS|DCode=28|XSize=1.4mm|YSize=1.8mm|CornerRadius=0mm|HoleSize=0mm|Usage=FLASHONLY|Rotation=135.000|XOffset=0mm|YOffset=0mm|HoleType=Round|Shape=Rectangle|*
%AMROTATEDRECTD28*
4,1,4,1.1314,0.1414,-0.1414,-1.1314,-1.1314,-0.1414,0.1414,1.1314,1.1314,0.1414,0.0*
%
%ADD28ROTATEDRECTD28*%

G04:AMPARAMS|DCode=29|XSize=1mm|YSize=0.8mm|CornerRadius=0mm|HoleSize=0mm|Usage=FLASHONLY|Rotation=315.000|XOffset=0mm|YOffset=0mm|HoleType=Round|Shape=Rectangle|*
%AMROTATEDRECTD29*
4,1,4,-0.6364,0.0707,-0.0707,0.6364,0.6364,-0.0707,0.0707,-0.6364,-0.6364,0.0707,0.0*
%
%ADD29ROTATEDRECTD29*%

G04:AMPARAMS|DCode=30|XSize=1mm|YSize=0.8mm|CornerRadius=0mm|HoleSize=0mm|Usage=FLASHONLY|Rotation=45.000|XOffset=0mm|YOffset=0mm|HoleType=Round|Shape=Rectangle|*
%AMROTATEDRECTD30*
4,1,4,-0.0707,-0.6364,-0.6364,-0.0707,0.0707,0.6364,0.6364,0.0707,-0.0707,-0.6364,0.0*
%
%ADD30ROTATEDRECTD30*%

G04:AMPARAMS|DCode=31|XSize=1.4mm|YSize=2.8mm|CornerRadius=0mm|HoleSize=0mm|Usage=FLASHONLY|Rotation=135.000|XOffset=0mm|YOffset=0mm|HoleType=Round|Shape=Rectangle|*
%AMROTATEDRECTD31*
4,1,4,1.4849,0.4950,-0.4950,-1.4849,-1.4849,-0.4950,0.4950,1.4849,1.4849,0.4950,0.0*
%
%ADD31ROTATEDRECTD31*%

%ADD32C,0.2540*%
%ADD33C,0.4000*%
%ADD34C,1.0000*%
%ADD35C,0.8000*%
%ADD36C,1.5000*%
%ADD37P,2.1213X4X90.0*%
%ADD38C,1.5000*%
%ADD39P,2.1213X4X360.0*%
%ADD40C,0.6500*%
%ADD41C,1.0000*%
G36*
X540696Y693646D02*
X540425Y690212D01*
X540750Y686090D01*
X541715Y682069D01*
X543298Y678249D01*
X545458Y674723D01*
X547918Y671843D01*
X548114Y671550D01*
X671550Y548114D01*
X671844Y547918D01*
X674724Y545457D01*
X678250Y543297D01*
X682070Y541715D01*
X686091Y540749D01*
X690213Y540425D01*
X694335Y540749D01*
X695061Y540924D01*
X696059Y540137D01*
X696059Y511767D01*
X686793Y496916D01*
X678318D01*
X678056Y497260D01*
X677660Y498186D01*
X678383Y499930D01*
X678666Y502084D01*
X678383Y504238D01*
X677551Y506245D01*
X676229Y507968D01*
X674506Y509291D01*
X674197Y510793D01*
X674865Y511664D01*
X675696Y513671D01*
X675980Y515825D01*
X675696Y517979D01*
X674865Y519985D01*
X673543Y521709D01*
X673525Y521980D01*
X675016Y523471D01*
X676123Y523617D01*
X678129Y524448D01*
X679853Y525770D01*
X681175Y527494D01*
X682006Y529501D01*
X682290Y531655D01*
X682006Y533808D01*
X681175Y535815D01*
X679853Y537538D01*
X678129Y538861D01*
X676123Y539692D01*
X673969Y539976D01*
X671815Y539692D01*
X669808Y538861D01*
X668085Y537538D01*
X666762Y535815D01*
X665931Y533808D01*
X665728Y532265D01*
X654030Y520567D01*
X652644Y518493D01*
X652158Y516046D01*
Y453163D01*
X652644Y450716D01*
X654030Y448642D01*
X654848Y447824D01*
X655022Y446499D01*
X655854Y444492D01*
X657176Y442769D01*
X658900Y441447D01*
X660906Y440615D01*
X661678Y440514D01*
X661951Y438440D01*
X662782Y436433D01*
X664105Y434709D01*
X665828Y433387D01*
X667835Y432556D01*
X669988Y432272D01*
X672142Y432556D01*
X674149Y433387D01*
X675872Y434709D01*
X677195Y436433D01*
X678026Y438440D01*
X678310Y440593D01*
X678026Y442747D01*
X677195Y444754D01*
X676381Y445814D01*
Y451125D01*
X675969Y453199D01*
X676996Y453988D01*
X678319Y455711D01*
X679150Y457718D01*
X679434Y459871D01*
X679150Y462025D01*
X678936Y462543D01*
X679641Y463599D01*
X687383D01*
X696059Y449841D01*
Y419866D01*
X695061Y419080D01*
X694335Y419254D01*
X690213Y419579D01*
X686091Y419254D01*
X682070Y418289D01*
X678250Y416707D01*
X674724Y414546D01*
X671844Y412086D01*
X671550Y411890D01*
X563110Y303450D01*
X545570Y320990D01*
X527892Y303312D01*
X545570Y285635D01*
X545033Y284587D01*
X543298Y281754D01*
X541715Y277934D01*
X540750Y273913D01*
X540425Y269791D01*
X540681Y266548D01*
X539632Y265278D01*
X523502D01*
X522805Y265813D01*
X520616Y266720D01*
X518266Y267029D01*
X509131D01*
Y267951D01*
X491131D01*
Y265278D01*
X469361Y265278D01*
Y267952D01*
X451361D01*
Y267029D01*
X448712D01*
X448581Y267012D01*
X448451Y267029D01*
X446547Y266779D01*
X445860Y266870D01*
X443510Y266560D01*
X441321Y265653D01*
X440832Y265278D01*
X420373D01*
X419324Y266548D01*
X419579Y269791D01*
X419255Y273913D01*
X418289Y277934D01*
X416707Y281754D01*
X414547Y285280D01*
X412086Y288160D01*
X411890Y288454D01*
X396067Y304278D01*
X396553Y305451D01*
X402514D01*
X403352Y304496D01*
X403346Y304451D01*
X403629Y302297D01*
X404461Y300290D01*
X405783Y298567D01*
X407506Y297244D01*
X409513Y296413D01*
X411667Y296129D01*
X413821Y296413D01*
X415828Y297244D01*
X417551Y298567D01*
X418873Y300290D01*
X419705Y302297D01*
X419962Y304254D01*
X421159Y305451D01*
X429674D01*
Y316398D01*
X430848Y316884D01*
X435489Y312243D01*
X437563Y310857D01*
X440009Y310370D01*
X456927D01*
X457917Y309695D01*
Y291695D01*
X458736D01*
X458837Y290924D01*
X458839Y290920D01*
X458839Y290916D01*
X459290Y289827D01*
X459742Y288734D01*
X459744Y288730D01*
X459746Y288726D01*
X460462Y287794D01*
X460783Y287375D01*
Y280452D01*
X460861Y279862D01*
Y270952D01*
X478861D01*
Y279862D01*
X478938Y280452D01*
Y291013D01*
X478938Y291014D01*
X478938Y291014D01*
X478792Y292125D01*
X478629Y293363D01*
X478629Y293363D01*
X478629Y293363D01*
X478206Y294383D01*
X477917Y295081D01*
Y309695D01*
X474310D01*
Y311414D01*
X473823Y313861D01*
X472437Y315935D01*
X467089Y321284D01*
X465829Y322125D01*
X466214Y323395D01*
X478113D01*
Y326441D01*
X478353Y326489D01*
X479220Y327069D01*
X480340Y326470D01*
Y323535D01*
X498340D01*
Y326894D01*
X500018Y328015D01*
X502633Y330631D01*
X504019Y332705D01*
X504482Y335033D01*
X534381D01*
X536828Y335520D01*
X538902Y336906D01*
X541267Y339271D01*
X542653Y341345D01*
X543307Y341695D01*
X544119Y341358D01*
X546730Y341015D01*
X549340Y341358D01*
X551773Y342366D01*
X553862Y343969D01*
X555465Y346058D01*
X555572Y346318D01*
X564527Y355272D01*
X567778Y352021D01*
X594102Y378345D01*
X595263Y377184D01*
X596725Y376062D01*
X598428Y375357D01*
X599645Y375196D01*
X600207Y373962D01*
Y373962D01*
X612935Y361234D01*
X627077Y375377D01*
X614349Y388104D01*
X612270Y386026D01*
X611127Y387169D01*
X609665Y388291D01*
X607962Y388996D01*
X606199Y389228D01*
X605911Y389621D01*
X605584Y390410D01*
X605874Y390700D01*
X593146Y403428D01*
X581629Y391911D01*
X577677Y395862D01*
X550807Y368992D01*
X554542Y365257D01*
X549897Y360613D01*
X549340Y360844D01*
X546730Y361187D01*
X544409Y360882D01*
X543139Y361633D01*
Y367991D01*
X551673Y376525D01*
X553069Y377103D01*
X554531Y378225D01*
X581866Y405560D01*
X595257D01*
X601278Y399539D01*
X612530Y410791D01*
X615067Y408254D01*
X625761Y418949D01*
X627702Y417007D01*
X647502Y436806D01*
X644009Y440299D01*
X646717Y443007D01*
X647839Y444469D01*
X648544Y446172D01*
X648785Y448000D01*
Y484207D01*
Y561724D01*
X648544Y563551D01*
X647839Y565254D01*
X646717Y566716D01*
X560833Y652600D01*
X559371Y653722D01*
X557668Y654427D01*
X555840Y654668D01*
X504926D01*
X503422Y654470D01*
X502152Y655235D01*
Y668503D01*
X501229D01*
Y672393D01*
X501229Y672393D01*
X501229Y672393D01*
Y672394D01*
X501087Y673475D01*
X500920Y674743D01*
X500920Y674743D01*
X500920Y674744D01*
X500480Y675807D01*
X500014Y676932D01*
X500013Y676933D01*
X500013Y676933D01*
X499270Y677902D01*
Y679918D01*
X499192Y680507D01*
Y689417D01*
X481192D01*
Y680507D01*
X481115Y679918D01*
Y674354D01*
X481192Y673765D01*
Y670417D01*
X481383D01*
X482272Y669227D01*
X482152Y668503D01*
X482152D01*
Y653003D01*
X462091D01*
Y668503D01*
X461065D01*
X460860Y670061D01*
X459953Y672250D01*
X459449Y672906D01*
Y679918D01*
X459372Y680507D01*
Y689417D01*
X441372D01*
Y680507D01*
X441294Y679918D01*
Y669431D01*
X441545Y667523D01*
X440418Y666787D01*
X440259Y666910D01*
X438252Y667741D01*
X436098Y668025D01*
X433944Y667741D01*
X431937Y666910D01*
X430214Y665587D01*
X428892Y663864D01*
X428248Y662311D01*
X426887Y661876D01*
X417793Y670970D01*
X416330Y672092D01*
X414628Y672798D01*
X414396Y672828D01*
X413941Y674014D01*
X414547Y674723D01*
X416707Y678249D01*
X418289Y682069D01*
X419255Y686090D01*
X419579Y690212D01*
X419309Y693646D01*
X420275Y694916D01*
X439027D01*
X439497Y694556D01*
X441686Y693649D01*
X444035Y693340D01*
X450872D01*
Y692417D01*
X468872D01*
Y694916D01*
X490692D01*
Y692417D01*
X508692D01*
Y693340D01*
X513486D01*
X514525Y693476D01*
X515835Y693649D01*
X515835Y693649D01*
X515835Y693649D01*
X516988Y694127D01*
X518024Y694556D01*
X518024Y694556D01*
X518024Y694556D01*
X518494Y694916D01*
X539729D01*
X540696Y693646D01*
D02*
G37*
G36*
X387818Y604613D02*
X387479Y603157D01*
X385170Y601385D01*
X383166Y598774D01*
X381907Y595733D01*
X381477Y592470D01*
X381907Y589207D01*
X383036Y586480D01*
X383036Y586478D01*
X382118Y585560D01*
X382115Y585558D01*
X379388Y586688D01*
X376125Y587117D01*
X372862Y586688D01*
X369821Y585428D01*
X367210Y583424D01*
X365206Y580813D01*
X363946Y577772D01*
X363517Y574509D01*
X363946Y571246D01*
X365206Y568205D01*
X367210Y565594D01*
X369821Y563591D01*
X372862Y562331D01*
X376125Y561902D01*
X379277Y562317D01*
X383834Y557759D01*
X383208Y556589D01*
X382045Y556820D01*
X380740D01*
X379680Y557634D01*
X377673Y558465D01*
X375520Y558749D01*
X373366Y558465D01*
X371359Y557634D01*
X369636Y556311D01*
X369521Y556162D01*
X368502Y556483D01*
X368280Y556631D01*
X367946Y559170D01*
X366934Y561613D01*
X366105Y562694D01*
X359062Y555651D01*
X358164Y556549D01*
X357266Y555651D01*
X350224Y562694D01*
X349394Y561613D01*
X348383Y559170D01*
X348104Y557054D01*
X346827Y556536D01*
X342549Y560814D01*
Y567694D01*
X345071Y569630D01*
X347075Y572241D01*
X348335Y575282D01*
X348764Y578545D01*
X348335Y581808D01*
X347205Y584535D01*
X347207Y584538D01*
X348125Y585456D01*
X348127Y585457D01*
X350854Y584327D01*
X354117Y583897D01*
X357380Y584327D01*
X360421Y585586D01*
X363032Y587590D01*
X365036Y590201D01*
X366295Y593242D01*
X366725Y596505D01*
X366295Y599768D01*
X365166Y602495D01*
X365166Y602495D01*
X366087Y603416D01*
X366088Y603417D01*
X368814Y602287D01*
X372077Y601858D01*
X375341Y602287D01*
X378381Y603547D01*
X380993Y605550D01*
X382928Y608073D01*
X384359D01*
X387818Y604613D01*
D02*
G37*
G36*
X598347Y595116D02*
X597821Y593846D01*
X586246D01*
Y597453D01*
X570726D01*
Y597532D01*
X552726D01*
Y593230D01*
X550964Y592052D01*
X549499Y590587D01*
X548590Y590964D01*
X548326Y591210D01*
Y596166D01*
Y609166D01*
X535825D01*
Y626666D01*
X530719D01*
Y629546D01*
X534771D01*
Y640547D01*
X552916D01*
X598347Y595116D01*
D02*
G37*
G36*
X528826Y596166D02*
Y591166D01*
Y586166D01*
Y583166D01*
X504826D01*
Y589166D01*
Y591166D01*
Y596166D01*
Y601166D01*
Y607166D01*
X528826D01*
Y596166D01*
D02*
G37*
G36*
X629580Y563883D02*
X629094Y562709D01*
X622197D01*
Y562817D01*
X609287D01*
Y575727D01*
X609179D01*
Y582487D01*
X610449Y583013D01*
X629580Y563883D01*
D02*
G37*
G36*
X419800Y598711D02*
X418891Y597351D01*
X418405Y594904D01*
Y573860D01*
X418891Y571414D01*
X420277Y569340D01*
X431094Y558523D01*
X433168Y557137D01*
X435614Y556650D01*
X442864D01*
X443663Y555496D01*
X443307Y554743D01*
X425941D01*
X412000Y568683D01*
Y591568D01*
X412046Y592753D01*
Y592753D01*
X412046Y592753D01*
X418814Y599521D01*
X419800Y598711D01*
D02*
G37*
G36*
X602197Y549817D02*
Y541907D01*
X588377D01*
Y544817D01*
Y549817D01*
Y555727D01*
X602197D01*
Y549817D01*
D02*
G37*
G36*
X306520Y556108D02*
X307277Y554281D01*
X309281Y551669D01*
X311892Y549666D01*
X314933Y548406D01*
X318196Y547977D01*
X321348Y548392D01*
X368729Y501010D01*
X370803Y499625D01*
X373250Y499138D01*
X374643D01*
X375703Y498325D01*
X377710Y497493D01*
X378410Y497401D01*
X378952Y496463D01*
X378668Y494309D01*
X378733Y493820D01*
X377896Y492865D01*
X367094D01*
Y477865D01*
X393163D01*
Y472828D01*
X393650Y470381D01*
X393915Y469985D01*
X393316Y468865D01*
X367094D01*
Y464130D01*
X365949Y463455D01*
X365052Y463886D01*
Y480924D01*
X344180D01*
X343959Y482038D01*
X342573Y484112D01*
X335789Y490896D01*
X333715Y492282D01*
X332916Y492440D01*
X332786Y493761D01*
X332815Y493773D01*
X334539Y495096D01*
X335861Y496819D01*
X336692Y498826D01*
X336976Y500980D01*
X336692Y503133D01*
X335861Y505140D01*
X334819Y506498D01*
X334883Y507107D01*
X335059Y507636D01*
X335249Y507919D01*
X336963Y508629D01*
X338686Y509951D01*
X340009Y511674D01*
X340840Y513681D01*
X341123Y515835D01*
X340840Y517989D01*
X340009Y519995D01*
X338686Y521719D01*
X336963Y523041D01*
X334956Y523872D01*
X332802Y524156D01*
X330648Y523872D01*
X328642Y523041D01*
X326918Y521719D01*
X325596Y519995D01*
X324765Y517989D01*
X324590Y516664D01*
X318690Y510764D01*
X304662Y496735D01*
X302561D01*
Y499343D01*
X290201D01*
Y537294D01*
X291466Y537560D01*
X292295Y536479D01*
X299338Y543522D01*
X306380Y550564D01*
X305299Y551394D01*
X303043Y552328D01*
X302497Y553578D01*
X305274Y556356D01*
X306520Y556108D01*
D02*
G37*
G36*
X406956Y534637D02*
X409030Y533252D01*
X411476Y532765D01*
X413923Y533252D01*
X414026Y533321D01*
X417556D01*
X418042Y532147D01*
X408386Y522491D01*
X407061Y522316D01*
X405054Y521485D01*
X403331Y520163D01*
X403276Y520159D01*
X395185Y528250D01*
Y543680D01*
X394954Y544843D01*
X396124Y545469D01*
X406956Y534637D01*
D02*
G37*
G36*
X535720Y535938D02*
X537212Y534445D01*
X539286Y533060D01*
X541733Y532573D01*
X561557D01*
X562384Y532738D01*
X562441Y532456D01*
X563826Y530382D01*
X564331Y529878D01*
X563674Y528738D01*
X561772Y528488D01*
X559765Y527657D01*
X558041Y526334D01*
X556719Y524611D01*
X555888Y522604D01*
X555604Y520450D01*
X555888Y518296D01*
X556719Y516289D01*
X557533Y515229D01*
Y503474D01*
X558019Y501028D01*
X559405Y498954D01*
X560361Y497998D01*
X560324Y497176D01*
X559061Y496814D01*
X559037Y496814D01*
X544018Y511833D01*
X541945Y513218D01*
X539498Y513705D01*
X534543D01*
X531160Y517088D01*
X531592Y517652D01*
X532423Y519659D01*
X532588Y520913D01*
X533480D01*
Y537004D01*
X534750Y537389D01*
X535720Y535938D01*
D02*
G37*
G36*
X591467Y512761D02*
Y501847D01*
X603453D01*
Y500790D01*
X603940Y498343D01*
X605326Y496269D01*
X608799Y492796D01*
Y487120D01*
X589321D01*
X576840Y499601D01*
X576685Y500774D01*
X575854Y502780D01*
X574532Y504504D01*
X572808Y505826D01*
X570801Y506657D01*
X570318Y506721D01*
Y513298D01*
X589135D01*
X590485Y513567D01*
X591467Y512761D01*
D02*
G37*
G36*
X562764Y492736D02*
X564487Y491413D01*
X566494Y490582D01*
X567971Y490388D01*
X582152Y476207D01*
X584226Y474821D01*
X586673Y474334D01*
X634664D01*
Y471288D01*
X632533Y471007D01*
X630526Y470176D01*
X629267Y469210D01*
X626383D01*
X623936Y468723D01*
X621862Y467338D01*
X615469Y460945D01*
X614202Y461091D01*
X614034Y461305D01*
X612721Y463017D01*
X610997Y464339D01*
X608991Y465170D01*
X606837Y465454D01*
X605993Y465343D01*
X605537Y466443D01*
X604215Y468166D01*
X602492Y469488D01*
X600485Y470320D01*
X598331Y470603D01*
X596177Y470320D01*
X594171Y469488D01*
X592447Y468166D01*
X591125Y466443D01*
X590811Y465685D01*
X538573D01*
X538030Y466792D01*
X538573Y467899D01*
X552097D01*
X554544Y468386D01*
X556618Y469771D01*
X559042Y472196D01*
X560428Y474270D01*
X560914Y476716D01*
Y492289D01*
X560707Y493330D01*
X561895Y493868D01*
X562764Y492736D01*
D02*
G37*
G36*
X279288Y464017D02*
X282950Y460355D01*
X285024Y458969D01*
X287470Y458483D01*
X344754D01*
X344907Y458357D01*
Y451686D01*
X316740D01*
X315418Y452700D01*
X313411Y453531D01*
X311258Y453815D01*
X309104Y453531D01*
X307097Y452700D01*
X305374Y451377D01*
X304051Y449654D01*
X303220Y447647D01*
X302936Y445494D01*
X303220Y443340D01*
X304051Y441333D01*
X305374Y439610D01*
X307097Y438287D01*
X309104Y437456D01*
X311258Y437172D01*
X312407Y437324D01*
X313783Y436603D01*
X314614Y434596D01*
X315936Y432873D01*
X317659Y431551D01*
X319666Y430719D01*
X321820Y430436D01*
X323974Y430719D01*
X325981Y431551D01*
X327609Y432800D01*
X333270D01*
X334060Y431530D01*
X333680Y428645D01*
X334110Y425382D01*
X335370Y422341D01*
X337373Y419730D01*
X339984Y417727D01*
X342513Y416679D01*
X342924Y415294D01*
X340420Y412791D01*
X336325Y416886D01*
X329226Y409786D01*
X322127Y402687D01*
X326222Y398592D01*
X324089Y396459D01*
X322967Y394996D01*
X322261Y393294D01*
X322021Y391466D01*
Y380120D01*
X320751Y379594D01*
X288454Y411890D01*
X288161Y412086D01*
X285281Y414546D01*
X281755Y416707D01*
X277935Y418289D01*
X273914Y419254D01*
X269792Y419579D01*
X265670Y419254D01*
X261649Y418289D01*
X261140Y418078D01*
X260084Y418784D01*
Y438130D01*
X277062Y465062D01*
X278576Y465082D01*
X279288Y464017D01*
D02*
G37*
G36*
X463243Y484114D02*
X464824Y483459D01*
X466521Y483236D01*
X468218Y483459D01*
X469021Y483792D01*
X469824Y483459D01*
X471521Y483236D01*
X473218Y483459D01*
X474021Y483792D01*
X474824Y483459D01*
X476521Y483236D01*
X478218Y483459D01*
X479021Y483792D01*
X479824Y483459D01*
X481521Y483236D01*
X483217Y483459D01*
X484021Y483792D01*
X484824Y483459D01*
X486521Y483236D01*
X488218Y483459D01*
X489021Y483792D01*
X489824Y483459D01*
X491521Y483236D01*
X493218Y483459D01*
X494021Y483792D01*
X494824Y483459D01*
X496521Y483236D01*
X498218Y483459D01*
X499021Y483792D01*
X499824Y483460D01*
X501521Y483236D01*
X503217Y483460D01*
X504021Y483792D01*
X504824Y483459D01*
X506521Y483236D01*
X508218Y483459D01*
X509021Y483792D01*
X509824Y483460D01*
X510588Y483359D01*
X510688Y482595D01*
X511343Y481014D01*
X511964Y480205D01*
X512265Y479292D01*
X511964Y478379D01*
X511343Y477570D01*
X510688Y475989D01*
X510465Y474292D01*
X510688Y472595D01*
X511021Y471792D01*
X510688Y470989D01*
X510465Y469292D01*
X510688Y467595D01*
X511021Y466792D01*
X510688Y465989D01*
X510465Y464292D01*
X510688Y462595D01*
X511021Y461792D01*
X510688Y460989D01*
X510465Y459292D01*
X510688Y457595D01*
X511021Y456792D01*
X510688Y455989D01*
X510465Y454292D01*
X510688Y452595D01*
X511021Y451792D01*
X510688Y450989D01*
X510465Y449292D01*
X510688Y447595D01*
X511021Y446792D01*
X510688Y445989D01*
X510465Y444292D01*
X510688Y442595D01*
X511021Y441792D01*
X510688Y440989D01*
X510465Y439292D01*
X510688Y437595D01*
X511021Y436792D01*
X510688Y435989D01*
X510465Y434292D01*
X510688Y432595D01*
X511021Y431792D01*
X510688Y430989D01*
X510588Y430225D01*
X510468Y430210D01*
X510018Y430150D01*
D01*
X509824Y430125D01*
X508242Y429470D01*
X506885Y428428D01*
X506156D01*
X504799Y429470D01*
X503217Y430125D01*
X501521Y430348D01*
X499824Y430125D01*
X499021Y429792D01*
X498218Y430125D01*
X498024Y430150D01*
D01*
X496521Y430348D01*
X494824Y430125D01*
X494021Y429792D01*
X493217Y430125D01*
X493024Y430150D01*
D01*
X491521Y430348D01*
X489824Y430125D01*
X489021Y429792D01*
X488218Y430125D01*
X488024Y430150D01*
D01*
X486521Y430348D01*
X484824Y430125D01*
X484021Y429792D01*
X483217Y430125D01*
X483024Y430150D01*
D01*
X481521Y430348D01*
X479824Y430125D01*
X479021Y429792D01*
X478218Y430125D01*
X478024Y430150D01*
X476521Y430348D01*
X475017Y430150D01*
D01*
X474824Y430125D01*
X474021Y429792D01*
X473218Y430125D01*
X473024Y430150D01*
X471521Y430348D01*
X470017Y430150D01*
D01*
X469824Y430125D01*
X469021Y429792D01*
X468218Y430125D01*
X466521Y430348D01*
X465017Y430150D01*
D01*
X464824Y430125D01*
X464021Y429792D01*
X463218Y430125D01*
X461521Y430348D01*
X459824Y430125D01*
X459021Y429792D01*
X458218Y430125D01*
X457454Y430225D01*
X457353Y430989D01*
X457021Y431792D01*
X457353Y432595D01*
X457577Y434292D01*
X457353Y435989D01*
X457021Y436792D01*
X457353Y437595D01*
X457577Y439292D01*
X457353Y440989D01*
X457021Y441792D01*
X457353Y442595D01*
X457577Y444292D01*
X457353Y445989D01*
X456698Y447570D01*
X455657Y448928D01*
Y449656D01*
X456698Y451014D01*
X457353Y452595D01*
X457577Y454292D01*
X457353Y455989D01*
X457021Y456792D01*
X457353Y457595D01*
X457577Y459292D01*
X457353Y460989D01*
X457021Y461792D01*
X457353Y462595D01*
X457577Y464292D01*
X457353Y465989D01*
X457021Y466792D01*
X457353Y467595D01*
X457577Y469292D01*
X457353Y470989D01*
X457021Y471792D01*
X457353Y472595D01*
X457577Y474292D01*
X457353Y475989D01*
X457021Y476792D01*
X457353Y477595D01*
X457577Y479292D01*
X457353Y480989D01*
X457021Y481792D01*
X457353Y482595D01*
X457454Y483359D01*
X458218Y483459D01*
X459799Y484114D01*
X461157Y485156D01*
X461885D01*
X463243Y484114D01*
D02*
G37*
G36*
X402174Y327451D02*
X414281D01*
Y324451D01*
X411674D01*
Y324451D01*
X410674D01*
Y324451D01*
X392674D01*
Y309329D01*
X391501Y308843D01*
X374035Y326309D01*
X374561Y327579D01*
X402174D01*
Y327451D01*
D02*
G37*
G36*
X459913Y339726D02*
X460113Y338539D01*
Y323395D01*
X458942Y323156D01*
X448193D01*
X447449Y324426D01*
X447696Y326304D01*
X447413Y328458D01*
X446581Y330465D01*
X445291Y332146D01*
Y339726D01*
X459913D01*
D02*
G37*
%LPC*%
G36*
X563530Y331399D02*
X560909Y331054D01*
X558467Y330042D01*
X557386Y329213D01*
X563530Y323069D01*
X569675Y329213D01*
X568594Y330042D01*
X566151Y331054D01*
X563530Y331399D01*
D02*
G37*
G36*
X555590Y327417D02*
X554761Y326336D01*
X553749Y323894D01*
X553404Y321273D01*
X553749Y318652D01*
X554761Y316209D01*
X555590Y315128D01*
X561734Y321273D01*
X555590Y327417D01*
D02*
G37*
G36*
X571471Y327417D02*
X565326Y321273D01*
X571471Y315128D01*
X572300Y316209D01*
X573312Y318652D01*
X573657Y321273D01*
X573312Y323894D01*
X572300Y326336D01*
X571471Y327417D01*
D02*
G37*
G36*
X563530Y319477D02*
X557386Y313332D01*
X558467Y312503D01*
X560909Y311491D01*
X563530Y311146D01*
X566151Y311491D01*
X568594Y312503D01*
X569675Y313332D01*
X563530Y319477D01*
D02*
G37*
G36*
X517130Y312874D02*
X514976Y312591D01*
X512969Y311759D01*
X511246Y310437D01*
X510738Y309776D01*
X508209D01*
X507620Y309853D01*
X507030Y309776D01*
X497620D01*
Y291776D01*
X498702D01*
X498851Y290642D01*
X499758Y288452D01*
X500554Y287416D01*
Y280451D01*
X500631Y279861D01*
Y270951D01*
X518631D01*
Y279861D01*
X518709Y280451D01*
Y290979D01*
X518709Y290979D01*
X518400Y293329D01*
X518279Y293619D01*
X518055Y294870D01*
X520129Y296255D01*
X521170Y297297D01*
X521290Y297347D01*
X523014Y298669D01*
X524336Y300392D01*
X525167Y302399D01*
X525451Y304553D01*
X525167Y306707D01*
X524336Y308714D01*
X523014Y310437D01*
X521290Y311759D01*
X519283Y312591D01*
X517130Y312874D01*
D02*
G37*
G36*
X358164Y566676D02*
X355544Y566331D01*
X353101Y565319D01*
X352020Y564490D01*
X358164Y558345D01*
X364309Y564490D01*
X363228Y565319D01*
X360785Y566331D01*
X358164Y566676D01*
D02*
G37*
G36*
X308176Y548768D02*
X302032Y542624D01*
X308176Y536479D01*
X309006Y537560D01*
X310017Y540003D01*
X310362Y542624D01*
X310017Y545245D01*
X309006Y547687D01*
X308176Y548768D01*
D02*
G37*
G36*
X300236Y540827D02*
X294091Y534683D01*
X295172Y533854D01*
X297615Y532842D01*
X300236Y532497D01*
X302857Y532842D01*
X305299Y533854D01*
X306380Y534683D01*
X300236Y540827D01*
D02*
G37*
G36*
X328328Y424883D02*
X322127Y418682D01*
X328328Y412481D01*
X334529Y418682D01*
X328328Y424883D01*
D02*
G37*
G36*
X320331Y416886D02*
X314129Y410684D01*
X320331Y404483D01*
X326532Y410684D01*
X320331Y416886D01*
D02*
G37*
%LPD*%
D10*
X524771Y638546D02*
D03*
X541771D02*
D03*
X467113Y628254D02*
D03*
X450114D02*
D03*
X467234Y613064D02*
D03*
X450234D02*
D03*
X338052Y471924D02*
D03*
X355052D02*
D03*
X469091Y659503D02*
D03*
X452091D02*
D03*
X509151D02*
D03*
X492152D02*
D03*
X458977Y555398D02*
D03*
X441977D02*
D03*
X450917Y300695D02*
D03*
X467917D02*
D03*
X671028Y487916D02*
D03*
X688027D02*
D03*
X292561Y490343D02*
D03*
X275562D02*
D03*
X671112Y472599D02*
D03*
X688112D02*
D03*
X292678Y475169D02*
D03*
X275678D02*
D03*
X490620Y300776D02*
D03*
X507620D02*
D03*
X618799Y495526D02*
D03*
X601799D02*
D03*
X618466Y510847D02*
D03*
X601467D02*
D03*
X471777Y589343D02*
D03*
X454777D02*
D03*
X471919Y574880D02*
D03*
X454919Y574880D02*
D03*
X354907Y457441D02*
D03*
X337907D02*
D03*
D11*
X495076Y607666D02*
D03*
Y602666D02*
D03*
Y597666D02*
D03*
Y592666D02*
D03*
Y587666D02*
D03*
Y582666D02*
D03*
X538576D02*
D03*
Y587666D02*
D03*
Y592666D02*
D03*
Y597666D02*
D03*
Y602666D02*
D03*
Y607666D02*
D03*
D12*
X504326Y573416D02*
D03*
X509326D02*
D03*
X514326D02*
D03*
X519326D02*
D03*
X524326D02*
D03*
X529325D02*
D03*
Y616916D02*
D03*
X524326D02*
D03*
X519326D02*
D03*
X514326D02*
D03*
X509326D02*
D03*
X504326D02*
D03*
D13*
X490192Y679918D02*
D03*
X509192D02*
D03*
X450372D02*
D03*
X469371D02*
D03*
X509631Y280451D02*
D03*
X490631D02*
D03*
X469861Y280452D02*
D03*
X450860D02*
D03*
X401674Y314951D02*
D03*
X420674D02*
D03*
D14*
X499692Y702417D02*
D03*
X459872D02*
D03*
X500131Y257951D02*
D03*
X460360Y257952D02*
D03*
X411174Y337451D02*
D03*
D15*
X382594Y485365D02*
D03*
Y473365D02*
D03*
Y461365D02*
D03*
D16*
X443521Y484292D02*
D03*
Y479292D02*
D03*
Y474292D02*
D03*
Y469292D02*
D03*
Y464292D02*
D03*
Y459292D02*
D03*
Y454292D02*
D03*
Y449292D02*
D03*
Y444292D02*
D03*
X443521Y439292D02*
D03*
X443521Y434292D02*
D03*
Y429292D02*
D03*
X524521Y429292D02*
D03*
Y434292D02*
D03*
Y439292D02*
D03*
Y444292D02*
D03*
Y449292D02*
D03*
Y454292D02*
D03*
Y459292D02*
D03*
Y464292D02*
D03*
Y469292D02*
D03*
Y474292D02*
D03*
Y479292D02*
D03*
Y484292D02*
D03*
D17*
X456521Y416292D02*
D03*
X461521D02*
D03*
X466521D02*
D03*
X471521D02*
D03*
X476521D02*
D03*
X481521D02*
D03*
X486521D02*
D03*
X491521D02*
D03*
X496521D02*
D03*
X501521D02*
D03*
X506521D02*
D03*
X511521D02*
D03*
Y497292D02*
D03*
X506521Y497292D02*
D03*
X501521Y497292D02*
D03*
X496521Y497292D02*
D03*
X491521D02*
D03*
X486521D02*
D03*
X481521D02*
D03*
X476521D02*
D03*
X471521D02*
D03*
X466521D02*
D03*
X461521D02*
D03*
X456521D02*
D03*
D18*
X74604Y900302D02*
D03*
X63997Y889696D02*
D03*
X888599Y62001D02*
D03*
X899205Y72608D02*
D03*
D19*
X166223Y859786D02*
D03*
X179659Y873221D02*
D03*
X794792Y99509D02*
D03*
X781357Y86074D02*
D03*
D20*
X157031Y882413D02*
D03*
X803984Y76881D02*
D03*
D21*
X779740Y872849D02*
D03*
X793175Y859414D02*
D03*
X178040Y85243D02*
D03*
X164605Y98678D02*
D03*
X615066Y399185D02*
D03*
X601631Y412620D02*
D03*
D22*
X802367Y882042D02*
D03*
X155412Y76050D02*
D03*
X592439Y389993D02*
D03*
D23*
X896777Y888934D02*
D03*
X886171Y899541D02*
D03*
X60630Y74267D02*
D03*
X71237Y63660D02*
D03*
D24*
X469113Y347395D02*
D03*
Y332395D02*
D03*
X489340Y332535D02*
D03*
Y347535D02*
D03*
D25*
X450913Y332726D02*
D03*
X450913Y349726D02*
D03*
X508193Y332726D02*
D03*
Y349725D02*
D03*
X540241Y547888D02*
D03*
Y530888D02*
D03*
X554476Y547895D02*
D03*
X554476Y530895D02*
D03*
X561726Y587532D02*
D03*
Y604532D02*
D03*
X577246Y587453D02*
D03*
Y604453D02*
D03*
X525440Y332655D02*
D03*
Y349655D02*
D03*
X524480Y530913D02*
D03*
Y547913D02*
D03*
X510155Y547928D02*
D03*
Y530928D02*
D03*
D26*
X592787Y565727D02*
D03*
X597787D02*
D03*
X602787D02*
D03*
Y531907D02*
D03*
X597787D02*
D03*
X592787D02*
D03*
X587786Y565727D02*
D03*
Y531907D02*
D03*
D27*
X612197Y551317D02*
D03*
Y546316D02*
D03*
Y541317D02*
D03*
X578377D02*
D03*
Y546316D02*
D03*
Y551317D02*
D03*
X612197Y556316D02*
D03*
X578377D02*
D03*
D28*
X629117Y435392D02*
D03*
X647502Y417008D02*
D03*
D29*
X626381Y409668D02*
D03*
X614360Y421689D02*
D03*
D30*
X625663Y386690D02*
D03*
X613642Y374669D02*
D03*
D31*
X591112Y355557D02*
D03*
X572728Y373941D02*
D03*
D32*
X322256Y439193D02*
X385337D01*
X321820Y438757D02*
X322256Y439193D01*
X311458Y445293D02*
X385775D01*
X585040Y495526D02*
X601799D01*
X579058Y501508D02*
X585040Y495526D01*
X554991Y398608D02*
Y398912D01*
X546304Y407598D02*
X554991Y398912D01*
X534942Y407598D02*
X546304D01*
X525513Y398170D02*
X534942Y407598D01*
X526508Y392583D02*
X535225Y401300D01*
X543696D01*
X476290Y359045D02*
X477713Y357622D01*
Y334202D02*
Y357622D01*
X498003Y542392D02*
X501036Y539359D01*
X498003Y542392D02*
Y546699D01*
X504326Y563954D02*
Y568907D01*
X500098Y559726D02*
X504326Y563954D01*
X480313Y574880D02*
X495467Y559726D01*
X500098D01*
X488616Y557670D02*
X492858Y553428D01*
X502707D01*
X509310Y554198D02*
X510155Y553353D01*
X503477Y554198D02*
X509310D01*
X502707Y553428D02*
X503477Y554198D01*
X485919Y580365D02*
X494713Y571571D01*
X471919Y574880D02*
X480313D01*
X440009Y316763D02*
X462568D01*
X431996Y324777D02*
Y348607D01*
X438899Y326781D02*
Y355781D01*
Y326781D02*
X439375Y326304D01*
X431996Y324777D02*
X440009Y316763D01*
X466220Y451000D02*
X488979Y473759D01*
X500423D01*
X505956Y479292D01*
X524521D01*
X540609Y491333D02*
Y494396D01*
X533568Y484292D02*
X540609Y491333D01*
X572310Y557142D02*
Y567189D01*
Y557142D02*
X573136Y556316D01*
X566919Y554837D02*
Y572867D01*
Y554837D02*
X570439Y551317D01*
X566919Y572867D02*
X577246Y583194D01*
X481704Y624529D02*
X502883D01*
X481111Y623936D02*
X481704Y624529D01*
X478716Y623936D02*
X481111D01*
X475048Y620268D02*
X478716Y623936D01*
X479322Y628254D02*
X482257Y631189D01*
X467113Y628254D02*
X479322D01*
X504326Y616916D02*
Y623087D01*
X502883Y624529D02*
X504326Y623087D01*
X509326Y616916D02*
Y626503D01*
X504640Y631189D02*
X509326Y626503D01*
X482257Y631189D02*
X504640D01*
X467917Y300695D02*
Y311414D01*
X462568Y316763D02*
X467917Y311414D01*
X404872Y439292D02*
X443521D01*
X400909Y435330D02*
X404872Y439292D01*
X387883Y449292D02*
X443521D01*
X387564Y449611D02*
X387883Y449292D01*
X374082Y449611D02*
X387564D01*
X373741Y449952D02*
X374082Y449611D01*
X385775Y445293D02*
X392003Y439066D01*
X523672Y561924D02*
X549364D01*
X554476Y547895D02*
Y556812D01*
X549364Y561924D02*
X554476Y556812D01*
X519326Y566270D02*
X523672Y561924D01*
X519326Y566270D02*
Y573416D01*
X539653Y566336D02*
X543622Y570305D01*
X538910Y566336D02*
X539653D01*
X538816Y566242D02*
X538910Y566336D01*
X530311Y566242D02*
X538816D01*
X529325Y567228D02*
X530311Y566242D01*
X537736Y557025D02*
X540241Y554520D01*
X516611Y557025D02*
X537736D01*
X509326Y564310D02*
X516611Y557025D01*
X615110Y495526D02*
X618799D01*
X450580Y550691D02*
Y554179D01*
X451799Y555398D01*
X458977D01*
X448239Y548350D02*
X450580Y550691D01*
X583850Y473509D02*
X634597D01*
X555368Y501991D02*
X583850Y473509D01*
X534724Y530888D02*
X540241D01*
X533304Y532308D02*
X534724Y530888D01*
X533304Y532308D02*
Y536764D01*
X515084Y547928D02*
X517194Y545818D01*
Y541889D02*
Y545818D01*
Y541889D02*
X519218Y539865D01*
X530203D02*
X533304Y536764D01*
X519218Y539865D02*
X530203D01*
X510155Y547928D02*
X515084D01*
X506521Y416292D02*
Y437756D01*
X503588Y440689D02*
X506521Y437756D01*
X481719Y440689D02*
X503588D01*
X510155Y547928D02*
Y553353D01*
X504326Y568907D02*
Y573416D01*
X519345Y593658D02*
Y600517D01*
X514326Y588639D02*
X519345Y593658D01*
X485919Y580365D02*
Y582666D01*
X479242Y589343D02*
X485919Y582666D01*
X495076D01*
X509326Y564310D02*
Y573416D01*
X486521Y497292D02*
Y550858D01*
X470018Y567361D02*
X486521Y550858D01*
X468230Y563043D02*
X481521Y549752D01*
Y497292D02*
Y549752D01*
X435614Y563043D02*
X468230D01*
X458977Y555398D02*
X469768D01*
X476521Y548645D01*
Y497292D02*
Y548645D01*
X439119Y567361D02*
X470018D01*
X509276Y398170D02*
X525513D01*
X506521Y400925D02*
X509276Y398170D01*
X522975Y402488D02*
X533107Y412620D01*
X513704Y402488D02*
X522975D01*
X511521Y404672D02*
X513704Y402488D01*
X511521Y404672D02*
Y416292D01*
X501521Y398163D02*
X507100Y392583D01*
X526259Y388265D02*
X526270Y388254D01*
X516255Y388265D02*
X526259D01*
X507100Y392583D02*
X526508D01*
X502439Y388254D02*
X516244D01*
X526270D02*
X536322D01*
X516244D02*
X516255Y388265D01*
X536322Y388254D02*
X539257Y391189D01*
X496521Y394172D02*
X502439Y388254D01*
X506521Y400925D02*
Y416292D01*
X533107Y412620D02*
X578727D01*
X442125Y282245D02*
Y285693D01*
Y282245D02*
X443918Y280452D01*
X450860D01*
X547231Y487697D02*
X547345Y487584D01*
X554521Y476716D02*
Y492289D01*
X538826Y479292D02*
X547231Y487697D01*
X524521Y479292D02*
X538826D01*
X552097Y474292D02*
X554521Y476716D01*
X524521Y474292D02*
X552097D01*
X539498Y507312D02*
X554521Y492289D01*
X524521Y484292D02*
X533568D01*
X531895Y507312D02*
X539498D01*
X524385Y514822D02*
X531895Y507312D01*
X412046Y610431D02*
X429869Y628254D01*
X450114D01*
X563926Y503474D02*
X586673Y480727D01*
X564684Y519691D02*
X583558D01*
X563926Y520450D02*
X564684Y519691D01*
X563926Y503474D02*
Y520450D01*
X658550Y453163D02*
Y516046D01*
X662868Y458245D02*
Y511034D01*
X638244Y480727D02*
X641724Y484207D01*
X586673Y480727D02*
X638244D01*
X671112Y459871D02*
Y472599D01*
X662868Y458245D02*
X669988Y451125D01*
X658550Y453163D02*
X663060Y448653D01*
X629920Y454581D02*
Y456412D01*
X624253Y454581D02*
X629920D01*
X606837Y449378D02*
Y457133D01*
X595046Y454292D02*
X598226Y451112D01*
X524521Y444292D02*
X601751D01*
X554476Y504064D02*
Y530895D01*
X380427Y526510D02*
X408446Y498490D01*
X594257Y377149D02*
X596808D01*
X615261Y358284D02*
Y358696D01*
X596808Y377149D02*
X615261Y358696D01*
X594257Y377149D02*
Y377189D01*
X627604Y565317D02*
Y565967D01*
X589118Y604453D02*
X627604Y565967D01*
X577246Y604453D02*
X589118D01*
X583558Y519691D02*
X589135D01*
X577246Y587453D02*
X598467D01*
X568347Y534902D02*
Y544367D01*
X455775Y509241D02*
X456521Y508495D01*
X455063Y509953D02*
X455775Y509241D01*
Y521190D01*
X454322Y522021D02*
X454944D01*
X455775Y521190D01*
X471521Y497292D02*
Y513729D01*
X427648Y532712D02*
X452538D01*
X462073Y515827D02*
X466521Y511379D01*
X452538Y532712D02*
X471521Y513729D01*
X462073Y514270D02*
Y515827D01*
X409215Y514279D02*
X427648Y532712D01*
X524385Y514822D02*
Y521812D01*
X394085Y568858D02*
X418911Y544032D01*
X453193D01*
X394085Y568858D02*
Y592470D01*
X469555Y525517D02*
Y546095D01*
X453193Y544032D02*
X456649Y547487D01*
X468163D02*
X469555Y546095D01*
X456649Y547487D02*
X468163D01*
X524480Y521907D02*
Y530913D01*
X388793Y525602D02*
X428537Y485857D01*
X388793Y525602D02*
Y543680D01*
X408446Y478950D02*
Y498490D01*
X403874Y476559D02*
Y496592D01*
X373782Y526684D02*
X403874Y496592D01*
X386990Y494309D02*
Y507332D01*
X336156Y558166D02*
X386990Y507332D01*
X336156Y558166D02*
Y578545D01*
X373782Y526684D02*
Y532842D01*
X318196Y560584D02*
X373250Y505531D01*
X379864D01*
X466521Y497292D02*
Y511379D01*
X456521Y497292D02*
Y508495D01*
X365930Y477584D02*
Y499419D01*
X318606Y546742D02*
X365930Y499419D01*
X304354Y546742D02*
X318606D01*
X428537Y485857D02*
X430102Y484292D01*
X428537Y485857D02*
Y491539D01*
X446951Y509953D01*
X455063D01*
X415016Y481727D02*
X415927Y482637D01*
X413104Y474292D02*
X443521D01*
X408446Y478950D02*
X413104Y474292D01*
X411476Y539158D02*
X412032Y539714D01*
X376125Y574509D02*
X411476Y539158D01*
X423293Y548350D02*
X448239D01*
X405607Y566035D02*
X423293Y548350D01*
X412032Y539714D02*
X457782D01*
X459257Y541189D01*
X563313Y540722D02*
Y576671D01*
X561411Y578573D02*
X563313Y576671D01*
X561411Y578573D02*
Y587217D01*
X561557Y538966D02*
X563313Y540722D01*
X541733Y538966D02*
X561557D01*
X540241Y540458D02*
Y547888D01*
Y540458D02*
X541733Y538966D01*
X561411Y587217D02*
X561726Y587532D01*
X372077Y614465D02*
X387007D01*
X422782Y564997D02*
X432381Y555398D01*
X405607Y566035D02*
Y595865D01*
X438233Y600119D02*
X467600D01*
X429115Y591001D02*
X438233Y600119D01*
X424797Y594904D02*
X434330Y604437D01*
X424797Y573860D02*
Y594904D01*
X434330Y604437D02*
X464431D01*
X435413Y585795D02*
Y588393D01*
X424797Y573860D02*
X435614Y563043D01*
X429115Y577365D02*
X439119Y567361D01*
X429115Y577365D02*
Y591001D01*
X492152Y652101D02*
Y659503D01*
X486661Y646610D02*
X492152Y652101D01*
X445130Y646610D02*
X486661D01*
X491521Y381707D02*
Y416292D01*
Y381707D02*
X492587Y380640D01*
X486521Y384318D02*
Y416292D01*
X478441Y376239D02*
X486521Y384318D01*
X669988Y440593D02*
Y451125D01*
X633816Y556316D02*
X636676Y553456D01*
Y521727D02*
Y553456D01*
X612197Y556316D02*
X633816D01*
X658550Y516046D02*
X674064Y531559D01*
X662868Y511034D02*
X667659Y515825D01*
X673969Y531655D02*
X674064Y531559D01*
X501521Y398163D02*
Y416292D01*
X671028Y487916D02*
Y501401D01*
X670345Y502084D02*
X671028Y501401D01*
X496521Y394172D02*
Y416292D01*
X521257Y376189D02*
X525440Y372006D01*
X451050Y402542D02*
X456521Y408013D01*
X416362Y402542D02*
X451050D01*
X410490Y408415D02*
X416362Y402542D01*
X382241Y374764D02*
X400051Y392574D01*
X364249Y374764D02*
X382241D01*
X351484Y380178D02*
X369612Y398306D01*
X351484Y370994D02*
Y380178D01*
Y370994D02*
X378473Y344005D01*
X369612Y398306D02*
X376628D01*
X390003Y410684D02*
X403236Y397451D01*
X364249Y410684D02*
X390003D01*
X453829Y397451D02*
X461521Y405142D01*
X403236Y397451D02*
X453829D01*
X400051Y392574D02*
X458271D01*
X466521Y400824D01*
Y416292D01*
X471521Y398307D02*
Y416292D01*
X460872Y387659D02*
X471521Y398307D01*
X428752Y387659D02*
X460872D01*
X476521Y395148D02*
Y416292D01*
X464714Y383340D02*
X476521Y395148D01*
X430541Y383340D02*
X464714D01*
X479865Y386814D02*
X481521Y388470D01*
Y416292D01*
X429546Y376239D02*
X478441D01*
X392994Y339687D02*
X429546Y376239D01*
X420674Y346464D02*
X437723Y363513D01*
X466200D01*
X420674Y314951D02*
Y346464D01*
X391206Y344005D02*
X430541Y383340D01*
X391943Y350850D02*
X428752Y387659D01*
X360816Y559201D02*
X381134D01*
X398496Y541839D01*
X358164Y556549D02*
X360816Y559201D01*
X432381Y555398D02*
X441977D01*
X382045Y550428D02*
X388793Y543680D01*
X375520Y550428D02*
X382045D01*
X380427Y526510D02*
Y541022D01*
X541771Y638546D02*
X554232D01*
X561726Y631051D01*
Y604532D02*
Y631051D01*
X524326Y616916D02*
Y638101D01*
X538576Y607666D02*
X550200D01*
X553334Y604532D01*
X561726D01*
X561805Y604453D01*
X577246D01*
X519345Y600517D02*
X526494Y607666D01*
X538576D01*
X514326Y573416D02*
Y588639D01*
X540241Y530888D02*
X540247Y530895D01*
X554476D01*
X524521Y439292D02*
X602858D01*
X524521Y434292D02*
X603964D01*
X602858Y439292D02*
X626383Y462817D01*
X603964Y434292D02*
X624253Y454581D01*
X600816Y429292D02*
X602256Y427853D01*
X524521Y454292D02*
X595046D01*
X365930Y477584D02*
X368988Y474526D01*
X300236Y542624D02*
X304354Y546742D01*
X536746Y370639D02*
X549325Y383217D01*
X536746Y343791D02*
Y370639D01*
X534381Y341426D02*
X536746Y343791D01*
X430102Y484292D02*
X443521D01*
X368988Y474526D02*
X381432D01*
X382594Y473365D01*
X398301Y441628D02*
X400965Y444292D01*
X443521D01*
X393519Y431012D02*
X402698D01*
X385337Y439193D02*
X393519Y431012D01*
X395692Y435330D02*
X400909D01*
X392003Y439019D02*
X395692Y435330D01*
X392003Y439019D02*
Y439066D01*
X405978Y434292D02*
X443521D01*
X402698Y431012D02*
X405978Y434292D01*
X366396Y454292D02*
X443521D01*
X425460Y429292D02*
X443521D01*
X421025Y424856D02*
X425460Y429292D01*
X421025Y411393D02*
Y424856D01*
X339298Y449952D02*
X373741D01*
X525440Y349655D02*
Y372006D01*
X475906Y332395D02*
X477713Y334202D01*
X469113Y332395D02*
X475906D01*
X499968Y341426D02*
X534381D01*
X498113Y339571D02*
X499968Y341426D01*
X498113Y335151D02*
Y339571D01*
X495497Y332535D02*
X498113Y335151D01*
X489340Y332535D02*
X495497D01*
X489340Y347535D02*
X506003D01*
X490620Y306653D02*
Y312521D01*
Y300776D02*
Y306653D01*
X480634Y322507D02*
X490620Y312521D01*
X452685Y322507D02*
X480634D01*
X450913Y324279D02*
X452685Y322507D01*
X450913Y324279D02*
Y332726D01*
X525440Y316983D02*
X525459Y316964D01*
X525440Y316983D02*
Y332655D01*
X508193Y317568D02*
Y332726D01*
X426882Y479292D02*
X443521D01*
X423537Y482637D02*
X426882Y479292D01*
X415927Y482637D02*
X423537D01*
X324739Y486375D02*
X331268D01*
X338052Y471924D02*
Y479591D01*
X331268Y486375D02*
X338052Y479591D01*
X324739Y486375D02*
Y486670D01*
X325258Y487189D01*
X337907Y451343D02*
Y457441D01*
Y451343D02*
X339298Y449952D01*
X311258Y445494D02*
X311458Y445293D01*
X302782Y436230D02*
Y453013D01*
Y436230D02*
X328328Y410684D01*
X302782Y453013D02*
X307210Y457441D01*
X435413Y585795D02*
X446329Y574880D01*
X454919D01*
X454777Y575022D02*
X454919Y574880D01*
X454777Y575022D02*
Y589343D01*
X471777D02*
X479242D01*
X467600Y600119D02*
X483257Y615776D01*
Y617189D01*
X467234Y615105D02*
X468255Y614084D01*
X467234Y607240D02*
Y613064D01*
X464431Y604437D02*
X467234Y607240D01*
X572310Y567189D02*
X573257D01*
X573136Y556316D02*
X578377D01*
X579320Y575132D02*
X586121D01*
X587786Y573466D01*
Y565727D02*
Y573466D01*
X577246Y583194D02*
Y587453D01*
X387007Y614465D02*
X405607Y595865D01*
X461521Y455700D02*
X466220Y451000D01*
X461521Y455700D02*
Y497292D01*
X464512Y449292D02*
X466220Y451000D01*
X443521Y449292D02*
X464512D01*
X399556Y472828D02*
Y481747D01*
X395938Y485365D02*
X399556Y481747D01*
X382594Y485365D02*
X395938D01*
X408092Y464292D02*
X443521D01*
X399556Y472828D02*
X408092Y464292D01*
X411141Y469292D02*
X443521D01*
X403874Y476559D02*
X411141Y469292D01*
X529325Y567228D02*
Y573416D01*
X540241Y547888D02*
Y554520D01*
X524480Y547913D02*
X524506Y547888D01*
X540241D01*
X592787Y565727D02*
Y579047D01*
X602787Y565727D02*
Y583134D01*
X598467Y587453D02*
X602787Y583134D01*
X628129Y551317D02*
X630257Y549189D01*
X612197Y551317D02*
X628129D01*
X625796Y510847D02*
X636676Y521727D01*
X603392Y541317D02*
X612197D01*
X597461Y547247D02*
X603392Y541317D01*
X597461Y547247D02*
X601531Y551317D01*
X612197D01*
X624445Y527896D02*
Y544551D01*
X619157Y522608D02*
X624445Y527896D01*
X609846Y518958D02*
X613496Y522608D01*
X619157D01*
X609846Y500790D02*
Y518958D01*
X618466Y510847D02*
X625796D01*
X612197Y546316D02*
X622680D01*
X624445Y544551D01*
X609846Y500790D02*
X615110Y495526D01*
X601467Y510847D02*
X602787Y512167D01*
Y531907D01*
X568347Y534902D02*
X583558Y519691D01*
X589135D02*
X592787Y523343D01*
Y531907D01*
X568347Y544367D02*
Y553409D01*
Y544367D02*
X571397Y541317D01*
X578377D01*
X570439Y551317D02*
X578377D01*
X577167Y587532D02*
X577246Y587453D01*
X561726Y587532D02*
X577167D01*
X538576Y582666D02*
X550619D01*
X555485Y587532D01*
X561726D01*
X467234Y615105D02*
Y617146D01*
X510155Y530928D02*
X511521Y529562D01*
Y497292D02*
Y529562D01*
X510155Y530928D02*
Y536722D01*
X507518Y539359D02*
X510155Y536722D01*
X501036Y539359D02*
X507518D01*
X626383Y462817D02*
X634687D01*
X628063Y435392D02*
X629117D01*
X467234Y617146D02*
X470356Y620268D01*
X475048D01*
X450114Y628254D02*
X450234Y628133D01*
Y613064D02*
Y628133D01*
X382594Y461365D02*
X399440D01*
X401513Y459292D01*
X443521D01*
X363247Y457441D02*
X366396Y454292D01*
X354907Y457441D02*
X363247D01*
X346363Y470325D02*
X347817Y471779D01*
X346363Y466485D02*
Y470325D01*
X344754Y464876D02*
X346363Y466485D01*
X287470Y464876D02*
X344754D01*
X347817Y471779D02*
X354907D01*
X336383Y596505D02*
X354117D01*
X283808Y543931D02*
X336383Y596505D01*
X283808Y468537D02*
Y543931D01*
Y468537D02*
X287470Y464876D01*
X354907Y471779D02*
X355052Y471924D01*
X354907Y457441D02*
Y471779D01*
X307210Y457441D02*
X337907D01*
X307310Y490343D02*
X323211Y506244D01*
X292561Y490343D02*
X307310D01*
X323211Y506244D02*
X332802Y515835D01*
X601751Y444292D02*
X606837Y449378D01*
X524521Y459292D02*
X597360D01*
X524521Y429292D02*
X600816D01*
X302844Y475169D02*
X328655Y500980D01*
X292678Y475169D02*
X302844D01*
X456521Y408013D02*
Y416292D01*
X376628Y398306D02*
X382210Y392724D01*
X517130Y302297D02*
Y304553D01*
X515608Y300776D02*
X517130Y302297D01*
X507620Y300776D02*
X515608D01*
X388163Y350850D02*
X391943D01*
X378473Y344005D02*
X391206D01*
X375918Y339687D02*
X392994D01*
X345718Y369887D02*
X375918Y339687D01*
X345718Y369887D02*
Y392724D01*
X436098Y659704D02*
X451891D01*
X452091Y659503D01*
X164545Y839936D02*
X175029Y850419D01*
X461521Y405142D02*
Y416292D01*
X382210Y356803D02*
X388163Y350850D01*
X349383Y393396D02*
X349921Y393934D01*
X631412Y433557D02*
X634172Y436317D01*
X876160Y909551D02*
X886171Y899541D01*
X848956Y909551D02*
X876160D01*
X878389Y51791D02*
X888599Y62001D01*
X853315Y51791D02*
X878389D01*
X71237Y63660D02*
X84176Y50721D01*
X105017D01*
X74604Y900302D02*
X85530Y911229D01*
X106234D01*
X896777Y888934D02*
X907261Y878450D01*
Y838192D02*
Y878450D01*
X49008Y874707D02*
X63997Y889696D01*
X49008Y843453D02*
Y874707D01*
Y843453D02*
X275261Y490192D01*
X899205Y72608D02*
X910534Y83937D01*
Y121720D01*
X49035Y85862D02*
X60630Y74267D01*
X49035Y85862D02*
Y115326D01*
X275261Y474192D01*
X688937Y473119D02*
X910534Y121720D01*
X688112Y474192D02*
X688260D01*
X688937Y473119D01*
X688260Y487192D02*
X688521Y487608D01*
X907261Y838192D01*
X781357Y94206D02*
Y105083D01*
X809235Y132961D01*
X793175Y841964D02*
Y859414D01*
X688521Y487608D02*
X907261Y838192D01*
X688260Y487192D02*
X688521Y487608D01*
X688260Y474192D02*
X688937Y473119D01*
X688260Y487192D02*
X907261Y838192D01*
X688260Y474192D02*
X910534Y121720D01*
D33*
X549539Y383217D02*
X578727Y412406D01*
Y412620D01*
X549325Y383217D02*
X549539D01*
X447645Y297423D02*
X450917Y300695D01*
X317236Y381515D02*
X401329Y297423D01*
X411667Y305944D02*
X420674Y314951D01*
X401329Y297423D02*
X447645D01*
X411667Y304451D02*
Y305944D01*
X524168Y383217D02*
X524180Y383206D01*
X518346Y383217D02*
X524168D01*
X524180Y383206D02*
X549313D01*
X549325Y383217D01*
X518335Y383206D02*
X518346Y383217D01*
X504983Y383206D02*
X518335D01*
X499615Y377838D02*
X504983Y383206D01*
X641724Y448000D02*
Y484207D01*
X300236Y542624D02*
X312630Y530229D01*
X323058D01*
X324018Y531189D01*
X325258D01*
X625663Y386690D02*
X634338Y378015D01*
X641724Y484207D02*
Y561724D01*
X555840Y647607D02*
X641724Y561724D01*
X407999Y650387D02*
X423337Y635048D01*
X427599D01*
X496562Y639244D02*
X504926Y647607D01*
X439534Y639244D02*
X496562D01*
X412800Y665978D02*
X439534Y639244D01*
X432631Y371124D02*
X493010D01*
X499615Y377729D01*
Y377838D01*
X629117Y435392D02*
X641724Y448000D01*
X413145Y351638D02*
X432631Y371124D01*
X413145Y340740D02*
Y351638D01*
X402329Y314951D02*
X420674D01*
X578727Y412620D02*
X601631D01*
X376777Y423695D02*
X383000Y429918D01*
X361310Y423695D02*
X376777D01*
X329081Y391466D02*
X361310Y423695D01*
X329081Y379385D02*
Y391466D01*
Y379385D02*
X373827Y334639D01*
X317236Y399593D02*
X328328Y410684D01*
X317236Y381515D02*
Y399593D01*
X373827Y334639D02*
X407045D01*
X413145Y340740D01*
X450913Y349726D02*
X453243Y347395D01*
X469113D01*
X550370Y351101D02*
X571187Y371918D01*
X546730Y351101D02*
X550370D01*
X405093Y665978D02*
X412800D01*
X384557Y645441D02*
X405093Y665978D01*
X384557Y637908D02*
Y645441D01*
Y637908D02*
X390038Y632426D01*
X412034Y610431D01*
X412046D01*
X504926Y647607D02*
X555840D01*
X610700Y421689D02*
X614360D01*
X601631Y412620D02*
X610700Y421689D01*
X599938Y346347D02*
X603324D01*
X615066Y399185D02*
X625663Y388589D01*
X640162Y409668D02*
X647502Y417008D01*
X626381Y409668D02*
X640162D01*
X625549D02*
X626381D01*
X615066Y399185D02*
X625549Y409668D01*
X625663Y386690D02*
Y388589D01*
X614360Y421689D02*
X628063Y435392D01*
X606135Y382176D02*
X613642Y374669D01*
X600255Y382176D02*
X606135D01*
X592439Y389993D02*
X600255Y382176D01*
X577186Y373941D02*
X592693Y389449D01*
X572728Y373941D02*
X577186D01*
D34*
X650502Y444364D02*
Y565359D01*
X500930Y316964D02*
X525459D01*
X650382Y565479D02*
Y566598D01*
Y565479D02*
X650502Y565359D01*
X650382Y444244D02*
X650502Y444364D01*
X537063Y679918D02*
X650382Y566598D01*
X615261Y358284D02*
X634992Y378015D01*
X603324Y346347D02*
X615261Y358284D01*
X591112Y355172D02*
X599938Y346347D01*
X590167Y333190D02*
X603324Y346347D01*
X591112Y355172D02*
Y355557D01*
X634338Y378015D02*
X634992D01*
X670901Y413924D01*
X650382Y444244D02*
X670901Y423725D01*
X650382Y444244D02*
Y444244D01*
X490620Y280451D02*
Y300776D01*
X525459Y316964D02*
X532635D01*
X490620Y306653D02*
X500930Y316964D01*
X532635D02*
X544077Y328406D01*
X556397D01*
X563530Y321273D01*
X670901Y413924D02*
Y423725D01*
X590167Y332848D02*
Y333190D01*
X578592Y321273D02*
X590167Y332848D01*
X563530Y321273D02*
X578592D01*
X509192Y679918D02*
X537063D01*
D35*
X507620Y292991D02*
Y300776D01*
Y292991D02*
X509631Y290979D01*
X473461Y691172D02*
X504536D01*
X469371Y687083D02*
X473461Y691172D01*
X469371Y679918D02*
Y687083D01*
X509192Y679918D02*
Y686516D01*
X504536Y691172D02*
X509192Y686516D01*
X490631Y275437D02*
Y280451D01*
X484510Y269315D02*
X490631Y275437D01*
X455518Y269315D02*
X484510D01*
X450860Y273973D02*
Y280452D01*
Y273973D02*
X455518Y269315D01*
X450372Y669431D02*
Y679918D01*
Y669431D02*
X452091Y667711D01*
Y659503D02*
Y667711D01*
X829876Y909551D02*
X848956D01*
X802367Y882042D02*
X829876Y909551D01*
X829075Y51791D02*
X853315D01*
X803984Y76881D02*
X829075Y51791D01*
X105017Y50721D02*
X130083D01*
X155412Y76050D01*
X128216Y911229D02*
X157031Y882413D01*
X106234Y911229D02*
X128216D01*
X448712Y257952D02*
X460360D01*
X438260Y250192D02*
X440690D01*
X448450Y257952D01*
X439600Y251531D02*
X445860Y257792D01*
X500131Y257951D02*
X518266D01*
X527826Y248392D01*
X499692Y702417D02*
X513486D01*
X520261Y709192D01*
X444035Y702417D02*
X459872D01*
X435261Y711192D02*
X444035Y702417D01*
X509192Y659544D02*
Y679918D01*
X509151Y659503D02*
X509192Y659544D01*
X469371Y659783D02*
Y679918D01*
X469091Y659503D02*
X469371Y659783D01*
X469861Y280452D02*
Y291013D01*
X467607Y293266D02*
X469861Y291013D01*
X467607Y293266D02*
X467917Y293575D01*
Y300695D01*
X509631Y280451D02*
Y290979D01*
X490192Y674354D02*
Y679918D01*
Y674354D02*
X492152Y672394D01*
Y659503D02*
Y672394D01*
D36*
X165250Y839936D02*
Y849827D01*
X184711Y869289D01*
X165250Y849827D02*
X184711Y869289D01*
X794734Y840406D02*
X808972Y826167D01*
X794734Y840406D02*
Y849849D01*
X150776Y826167D02*
X164545Y839936D01*
X165250D01*
X184711Y869289D02*
X435261Y711192D01*
X151632Y133549D02*
X168353Y116828D01*
Y104231D02*
Y116828D01*
X796224Y119950D02*
X809235Y132961D01*
X520261Y709192D02*
X775415Y869037D01*
X775671Y868781D02*
X789107Y855346D01*
X182691Y89893D02*
X183876Y88708D01*
X168353Y104231D02*
X182691Y89893D01*
X183876Y88708D02*
X438260Y250192D01*
X527826Y248392D02*
X777804Y91349D01*
Y92758D02*
X796224Y111178D01*
Y119950D01*
X775415Y869037D02*
X775671Y868781D01*
X789439Y855144D02*
X794734Y849849D01*
X165250Y839936D02*
Y849827D01*
X184711Y869289D01*
X789439Y855144D02*
X794734Y849849D01*
X775415Y869037D02*
X775671Y868781D01*
X796224Y111178D02*
Y119950D01*
X777804Y92758D02*
X796224Y111178D01*
X527826Y248392D02*
X777804Y91349D01*
X183876Y88708D02*
X438260Y250192D01*
X168353Y104231D02*
X182691Y89893D01*
X183876Y88708D01*
X775415Y869037D02*
X789107Y855346D01*
X777804Y92758D02*
X796224Y111178D01*
X168353Y104231D02*
X183876Y88708D01*
D37*
X132816Y808206D02*
D03*
X827196Y150921D02*
D03*
X407999Y650387D02*
D03*
X545570Y303312D02*
D03*
X412046Y610431D02*
D03*
D38*
X150776Y826167D02*
D03*
X400170Y374764D02*
D03*
X382210Y356803D02*
D03*
Y392724D02*
D03*
X364249Y374764D02*
D03*
Y410684D02*
D03*
X346288Y392724D02*
D03*
X346288Y428645D02*
D03*
X808972Y826167D02*
D03*
X809235Y132961D02*
D03*
X151632Y133549D02*
D03*
X354117Y596505D02*
D03*
X372077Y614465D02*
D03*
X390038Y632426D02*
D03*
X336156Y578545D02*
D03*
X318196Y560584D02*
D03*
X300236Y542624D02*
D03*
X563530Y321273D02*
D03*
X394085Y592470D02*
D03*
X376125Y574509D02*
D03*
X358164Y556549D02*
D03*
D39*
X328328Y410684D02*
D03*
X826933Y808206D02*
D03*
X133671Y151510D02*
D03*
D40*
X321820Y438757D02*
D03*
X579058Y501508D02*
D03*
X568648Y498620D02*
D03*
X554991Y398608D02*
D03*
X543696Y401300D02*
D03*
X476290Y359045D02*
D03*
X498003Y546699D02*
D03*
X411667Y304451D02*
D03*
X500098Y559726D02*
D03*
X494713Y571571D02*
D03*
X439375Y326304D02*
D03*
X540609Y494396D02*
D03*
X650480Y473910D02*
D03*
X634597Y473509D02*
D03*
X500423Y473759D02*
D03*
X481719Y440689D02*
D03*
X488616Y557670D02*
D03*
X517747Y595138D02*
D03*
X511350Y316527D02*
D03*
X442125Y285693D02*
D03*
X547345Y487584D02*
D03*
X555368Y501991D02*
D03*
X563926Y520450D02*
D03*
X671112Y459871D02*
D03*
X634687Y462969D02*
D03*
X629920Y454581D02*
D03*
X606837Y457133D02*
D03*
X598226Y451112D02*
D03*
X598331Y462282D02*
D03*
X325258Y531189D02*
D03*
X594257Y377189D02*
D03*
X627604Y565317D02*
D03*
X454322Y522021D02*
D03*
X462073Y514270D02*
D03*
X469555Y525517D02*
D03*
X524385Y521812D02*
D03*
X409215Y514279D02*
D03*
X386990Y494309D02*
D03*
X379864Y505531D02*
D03*
X415016Y481727D02*
D03*
X459257Y541189D02*
D03*
X422782Y564997D02*
D03*
X427599Y635048D02*
D03*
X435413Y588393D02*
D03*
X492587Y380640D02*
D03*
X663060Y448653D02*
D03*
X669988Y440593D02*
D03*
X650678Y549150D02*
D03*
X673969Y531655D02*
D03*
X667659Y515825D02*
D03*
X670345Y502084D02*
D03*
X539257Y391189D02*
D03*
X521257Y376189D02*
D03*
X479865Y386814D02*
D03*
X466200Y363513D02*
D03*
X398496Y541839D02*
D03*
X375520Y550428D02*
D03*
X380427Y541022D02*
D03*
X373782Y532842D02*
D03*
X445130Y646610D02*
D03*
X602256Y427853D02*
D03*
X410490Y408415D02*
D03*
X383000Y429918D02*
D03*
X398301Y441628D02*
D03*
X421025Y411393D02*
D03*
X431996Y348607D02*
D03*
X438899Y355781D02*
D03*
X325258Y487189D02*
D03*
X311258Y445494D02*
D03*
X436098Y659704D02*
D03*
X573257Y567189D02*
D03*
X579320Y575132D02*
D03*
X543622Y570305D02*
D03*
X592787Y579047D02*
D03*
X630257Y549189D02*
D03*
X482257Y631189D02*
D03*
X483257Y617189D02*
D03*
X332802Y515835D02*
D03*
X328655Y500980D02*
D03*
X517130Y304553D02*
D03*
D41*
X546730Y351101D02*
D03*
X848956Y909551D02*
D03*
X853315Y51791D02*
D03*
X105017Y50721D02*
D03*
X106234Y911229D02*
D03*
M02*
