G04 Layer_Color=16711935*
%FSLAX44Y44*%
%MOMM*%
G71*
G01*
G75*
%ADD32C,0.2540*%
D32*
X283934Y407369D02*
G03*
X252896Y403928I-14142J-14142D01*
G01*
X403929Y252895D02*
G03*
X407370Y283933I-10701J16896D01*
G01*
X676071Y552634D02*
G03*
X707109Y556075I14142J14142D01*
G01*
X556076Y707109D02*
G03*
X552635Y676070I10701J-16896D01*
G01*
Y283933D02*
G03*
X556076Y252895I14142J-14142D01*
G01*
X707109Y403928D02*
G03*
X676071Y407369I-16896J-10701D01*
G01*
X252896Y556075D02*
G03*
X283934Y552634I16896J10701D01*
G01*
X407370Y676070D02*
G03*
X403929Y707109I-14142J14142D01*
G01*
X724451Y508698D02*
G03*
X724451Y451306I45309J-28696D01*
G01*
X508698Y235553D02*
G03*
X451307Y235553I-28696J-45309D01*
G01*
Y724450D02*
G03*
X508698Y724450I28696J45309D01*
G01*
X235554Y451306D02*
G03*
X235554Y508698I-45309J28696D01*
G01*
X890002Y105002D02*
G03*
X890002Y105002I-35000J0D01*
G01*
X849079Y179767D02*
G03*
X780237Y110925I5923J-74766D01*
G01*
X814873Y41641D02*
G03*
X918364Y145131I40129J63361D01*
G01*
X140002Y105002D02*
G03*
X140002Y105002I-35000J0D01*
G01*
X179768Y110925D02*
G03*
X110925Y179767I-74766J-5923D01*
G01*
X41641Y145131D02*
G03*
X145132Y41641I63361J-40129D01*
G01*
X890002Y855002D02*
G03*
X890002Y855002I-35000J0D01*
G01*
X780237Y849079D02*
G03*
X849079Y780236I74766J5923D01*
G01*
X918364Y814873D02*
G03*
X814873Y918363I-63361J40129D01*
G01*
X140002Y855002D02*
G03*
X140002Y855002I-35000J0D01*
G01*
X110925Y780236D02*
G03*
X179768Y849079I-5923J74766D01*
G01*
X145132Y918363D02*
G03*
X41641Y814873I-40129J-63361D01*
G01*
X556076Y252895D02*
X780237Y110925D01*
X707109Y403928D02*
X849079Y179767D01*
X724451Y451306D02*
X918364Y145131D01*
X508698Y235553D02*
X814873Y41641D01*
X552635Y283933D02*
X676071Y407369D01*
X179768Y110925D02*
X403929Y252895D01*
X110925Y179767D02*
X252896Y403928D01*
X41641Y145131D02*
X235554Y451306D01*
X145132Y41641D02*
X451307Y235553D01*
X283934Y407369D02*
X407370Y283933D01*
X556076Y707109D02*
X780237Y849079D01*
X707109Y556075D02*
X849079Y780236D01*
X724451Y508698D02*
X918364Y814873D01*
X508698Y724450D02*
X814873Y918363D01*
X552635Y676070D02*
X676071Y552634D01*
X179768Y849079D02*
X403929Y707109D01*
X110925Y780236D02*
X252896Y556075D01*
X41641Y814873D02*
X235554Y508698D01*
X145132Y918363D02*
X451307Y724450D01*
X283934Y552634D02*
X407370Y676070D01*
M02*
